<mxfile host="app.diagrams.net" modified="2023-12-06T09:23:17.881Z" agent="Mozilla/5.0 (Macintosh; Intel Mac OS X 10_15_7) AppleWebKit/537.36 (KHTML, like Gecko) Chrome/119.0.0.0 Safari/537.36" etag="M9IM1ugE_UinPNOJYonW" version="22.1.5" type="github">
  <diagram name="第 1 页" id="wMBq58jxj7TZekm_dWzr">
    <mxGraphModel dx="2195" dy="773" grid="1" gridSize="10" guides="1" tooltips="1" connect="1" arrows="1" fold="1" page="1" pageScale="1" pageWidth="827" pageHeight="1169" math="0" shadow="0">
      <root>
        <mxCell id="0" />
        <mxCell id="1" parent="0" />
        <mxCell id="zNO3inHTsQPZRsrdVChj-12" value="" style="edgeStyle=orthogonalEdgeStyle;rounded=0;orthogonalLoop=1;jettySize=auto;html=1;" parent="1" edge="1">
          <mxGeometry relative="1" as="geometry">
            <mxPoint x="430" y="180" as="sourcePoint" />
          </mxGeometry>
        </mxCell>
        <mxCell id="zNO3inHTsQPZRsrdVChj-13" value="组装此运维行为对应的指令&lt;br&gt;请求UeServer" style="edgeLabel;html=1;align=center;verticalAlign=middle;resizable=0;points=[];" parent="zNO3inHTsQPZRsrdVChj-12" vertex="1" connectable="0">
          <mxGeometry x="-0.4" y="1" relative="1" as="geometry">
            <mxPoint x="-1" y="6" as="offset" />
          </mxGeometry>
        </mxCell>
        <mxCell id="zNO3inHTsQPZRsrdVChj-33" value="" style="rounded=0;whiteSpace=wrap;html=1;fillColor=#fff2cc;strokeColor=#d6b656;" parent="1" vertex="1">
          <mxGeometry x="210" y="130" width="530" height="260" as="geometry" />
        </mxCell>
        <mxCell id="O229sDAhucVUfMIDG_dj-7" style="edgeStyle=orthogonalEdgeStyle;rounded=0;orthogonalLoop=1;jettySize=auto;html=1;entryX=0.5;entryY=0;entryDx=0;entryDy=0;fillColor=#fff2cc;strokeColor=#d6b656;exitX=1;exitY=0.5;exitDx=0;exitDy=0;" edge="1" parent="1" source="zNO3inHTsQPZRsrdVChj-44" target="evtpe5G1LGWTd8iD0ivO-10">
          <mxGeometry relative="1" as="geometry">
            <Array as="points">
              <mxPoint x="660" y="175" />
            </Array>
          </mxGeometry>
        </mxCell>
        <mxCell id="O229sDAhucVUfMIDG_dj-8" value="7. 分片上传 folder==filename chunkfilename=filename_index&lt;br&gt;&amp;nbsp;minio分片数==totalIndex请求合并&lt;br&gt;比较md5更改任务状态" style="edgeLabel;html=1;align=center;verticalAlign=middle;resizable=0;points=[];" vertex="1" connectable="0" parent="O229sDAhucVUfMIDG_dj-7">
          <mxGeometry x="-0.174" y="-6" relative="1" as="geometry">
            <mxPoint x="21" y="-6" as="offset" />
          </mxGeometry>
        </mxCell>
        <mxCell id="zNO3inHTsQPZRsrdVChj-38" value="UEServer" style="rounded=0;whiteSpace=wrap;html=1;" parent="1" vertex="1">
          <mxGeometry x="220" y="280" width="220" height="90" as="geometry" />
        </mxCell>
        <mxCell id="zNO3inHTsQPZRsrdVChj-42" value="&lt;font style=&quot;font-size: 16px;&quot;&gt;&lt;b style=&quot;font-size: 16px;&quot;&gt;安恒云域&lt;/b&gt;&lt;/font&gt;" style="text;html=1;strokeColor=none;fillColor=none;align=center;verticalAlign=middle;whiteSpace=wrap;rounded=0;fontSize=16;" parent="1" vertex="1">
          <mxGeometry x="600" y="130" width="80" height="30" as="geometry" />
        </mxCell>
        <mxCell id="zNO3inHTsQPZRsrdVChj-45" style="edgeStyle=orthogonalEdgeStyle;rounded=0;orthogonalLoop=1;jettySize=auto;html=1;" parent="1" source="zNO3inHTsQPZRsrdVChj-44" target="zNO3inHTsQPZRsrdVChj-38" edge="1">
          <mxGeometry relative="1" as="geometry" />
        </mxCell>
        <mxCell id="zNO3inHTsQPZRsrdVChj-47" value="2.生成抓包任务、组装运维行为对应指令" style="edgeLabel;html=1;align=center;verticalAlign=middle;resizable=0;points=[];" parent="zNO3inHTsQPZRsrdVChj-45" vertex="1" connectable="0">
          <mxGeometry x="-0.06" y="3" relative="1" as="geometry">
            <mxPoint x="-63" y="-5" as="offset" />
          </mxGeometry>
        </mxCell>
        <mxCell id="zNO3inHTsQPZRsrdVChj-44" value="UEManager" style="rounded=0;whiteSpace=wrap;html=1;" parent="1" vertex="1">
          <mxGeometry x="270" y="145" width="120" height="60" as="geometry" />
        </mxCell>
        <mxCell id="zNO3inHTsQPZRsrdVChj-52" value="" style="rounded=0;whiteSpace=wrap;html=1;fillColor=#d5e8d4;strokeColor=#82b366;" parent="1" vertex="1">
          <mxGeometry x="-140" y="493.5" width="550" height="386.5" as="geometry" />
        </mxCell>
        <mxCell id="zNO3inHTsQPZRsrdVChj-22" value="" style="rounded=0;whiteSpace=wrap;html=1;fillColor=#dae8fc;strokeColor=#6c8ebf;" parent="1" vertex="1">
          <mxGeometry x="-100" y="560" width="320" height="290" as="geometry" />
        </mxCell>
        <mxCell id="zNO3inHTsQPZRsrdVChj-24" value="日审Agent" style="rounded=0;whiteSpace=wrap;html=1;" parent="1" vertex="1">
          <mxGeometry x="-90" y="690" width="80" height="37" as="geometry" />
        </mxCell>
        <mxCell id="zNO3inHTsQPZRsrdVChj-25" value="数审Agent" style="rounded=0;whiteSpace=wrap;html=1;" parent="1" vertex="1">
          <mxGeometry x="-90" y="749" width="80" height="37" as="geometry" />
        </mxCell>
        <mxCell id="zNO3inHTsQPZRsrdVChj-26" value="Edr Agent" style="rounded=0;whiteSpace=wrap;html=1;" parent="1" vertex="1">
          <mxGeometry x="-90" y="800" width="80" height="37" as="geometry" />
        </mxCell>
        <mxCell id="zNO3inHTsQPZRsrdVChj-64" style="edgeStyle=orthogonalEdgeStyle;rounded=0;orthogonalLoop=1;jettySize=auto;html=1;entryX=1;entryY=0.5;entryDx=0;entryDy=0;fillColor=#fff2cc;strokeColor=#d6b656;" parent="1" source="zNO3inHTsQPZRsrdVChj-27" target="zNO3inHTsQPZRsrdVChj-25" edge="1">
          <mxGeometry relative="1" as="geometry">
            <Array as="points">
              <mxPoint x="70" y="768" />
              <mxPoint x="10" y="768" />
            </Array>
          </mxGeometry>
        </mxCell>
        <mxCell id="zNO3inHTsQPZRsrdVChj-65" value="抓取本机对应&lt;br&gt;端口数据包,并将文件保存在本地" style="edgeLabel;html=1;align=center;verticalAlign=middle;resizable=0;points=[];labelBackgroundColor=default;labelBorderColor=none;" parent="zNO3inHTsQPZRsrdVChj-64" vertex="1" connectable="0">
          <mxGeometry relative="1" as="geometry">
            <mxPoint x="16" y="-23" as="offset" />
          </mxGeometry>
        </mxCell>
        <mxCell id="evtpe5G1LGWTd8iD0ivO-1" style="edgeStyle=orthogonalEdgeStyle;rounded=0;orthogonalLoop=1;jettySize=auto;html=1;entryX=0;entryY=1;entryDx=0;entryDy=0;fillColor=#e1d5e7;strokeColor=#9673a6;exitX=0.5;exitY=0;exitDx=0;exitDy=0;" parent="1" source="zNO3inHTsQPZRsrdVChj-27" edge="1">
          <mxGeometry relative="1" as="geometry">
            <mxPoint x="30" y="610" as="sourcePoint" />
            <mxPoint x="220" y="320" as="targetPoint" />
            <Array as="points">
              <mxPoint x="90" y="585" />
              <mxPoint x="90" y="320" />
            </Array>
          </mxGeometry>
        </mxCell>
        <mxCell id="evtpe5G1LGWTd8iD0ivO-2" value="4 抓包成功返回文件md5" style="edgeLabel;html=1;align=center;verticalAlign=middle;resizable=0;points=[];" parent="evtpe5G1LGWTd8iD0ivO-1" vertex="1" connectable="0">
          <mxGeometry x="0.07" relative="1" as="geometry">
            <mxPoint x="45" y="-68" as="offset" />
          </mxGeometry>
        </mxCell>
        <mxCell id="O229sDAhucVUfMIDG_dj-4" style="edgeStyle=orthogonalEdgeStyle;rounded=0;orthogonalLoop=1;jettySize=auto;html=1;entryX=0.332;entryY=1.026;entryDx=0;entryDy=0;entryPerimeter=0;fillColor=#e1d5e7;strokeColor=#9673a6;" edge="1" parent="1" source="zNO3inHTsQPZRsrdVChj-27" target="zNO3inHTsQPZRsrdVChj-38">
          <mxGeometry relative="1" as="geometry">
            <Array as="points">
              <mxPoint x="140" y="420" />
              <mxPoint x="293" y="420" />
            </Array>
          </mxGeometry>
        </mxCell>
        <mxCell id="O229sDAhucVUfMIDG_dj-5" value="6 超过5M分片上传 文件名+index、totalIndex&lt;br&gt;上传失败将此分片保留在本地 (reqId+文件名+index)" style="edgeLabel;html=1;align=center;verticalAlign=middle;resizable=0;points=[];" vertex="1" connectable="0" parent="O229sDAhucVUfMIDG_dj-4">
          <mxGeometry x="-0.2392" relative="1" as="geometry">
            <mxPoint x="140" y="-26" as="offset" />
          </mxGeometry>
        </mxCell>
        <mxCell id="zNO3inHTsQPZRsrdVChj-27" value="UeAgent" style="rounded=0;whiteSpace=wrap;html=1;" parent="1" vertex="1">
          <mxGeometry x="20" y="585" width="200" height="70" as="geometry" />
        </mxCell>
        <mxCell id="zNO3inHTsQPZRsrdVChj-30" value="&lt;b&gt;&lt;font style=&quot;font-size: 14px;&quot;&gt;资产机&lt;br&gt;192.19.10.44&lt;br&gt;&lt;/font&gt;&lt;/b&gt;" style="text;html=1;strokeColor=none;fillColor=none;align=center;verticalAlign=middle;whiteSpace=wrap;rounded=0;" parent="1" vertex="1">
          <mxGeometry x="105" y="807" width="60" height="30" as="geometry" />
        </mxCell>
        <mxCell id="zNO3inHTsQPZRsrdVChj-74" style="edgeStyle=orthogonalEdgeStyle;rounded=0;orthogonalLoop=1;jettySize=auto;html=1;entryX=0;entryY=0.5;entryDx=0;entryDy=0;" parent="1" source="zNO3inHTsQPZRsrdVChj-72" target="zNO3inHTsQPZRsrdVChj-44" edge="1">
          <mxGeometry relative="1" as="geometry">
            <Array as="points">
              <mxPoint x="80" y="175" />
              <mxPoint x="80" y="175" />
            </Array>
          </mxGeometry>
        </mxCell>
        <mxCell id="zNO3inHTsQPZRsrdVChj-75" value="1.抓包" style="edgeLabel;html=1;align=center;verticalAlign=middle;resizable=0;points=[];" parent="zNO3inHTsQPZRsrdVChj-74" vertex="1" connectable="0">
          <mxGeometry x="-0.1143" y="-2" relative="1" as="geometry">
            <mxPoint x="12" y="-2" as="offset" />
          </mxGeometry>
        </mxCell>
        <mxCell id="zNO3inHTsQPZRsrdVChj-72" value="运维人员" style="shape=umlActor;verticalLabelPosition=bottom;verticalAlign=top;html=1;outlineConnect=0;" parent="1" vertex="1">
          <mxGeometry x="-40" y="145" width="40" height="70" as="geometry" />
        </mxCell>
        <mxCell id="UXK1C_oignjXM_dTzYS3-32" style="edgeStyle=orthogonalEdgeStyle;rounded=0;orthogonalLoop=1;jettySize=auto;html=1;fillColor=#e1d5e7;strokeColor=#9673a6;entryX=0.25;entryY=0;entryDx=0;entryDy=0;" parent="1" source="zNO3inHTsQPZRsrdVChj-38" edge="1" target="zNO3inHTsQPZRsrdVChj-27">
          <mxGeometry relative="1" as="geometry">
            <Array as="points">
              <mxPoint x="70" y="300" />
            </Array>
            <mxPoint x="10" y="660" as="targetPoint" />
          </mxGeometry>
        </mxCell>
        <mxCell id="UXK1C_oignjXM_dTzYS3-33" value="3 下发抓包指令&amp;nbsp; 携带reqId、对应ip、端口、文件名" style="edgeLabel;html=1;align=center;verticalAlign=middle;resizable=0;points=[];" parent="UXK1C_oignjXM_dTzYS3-32" vertex="1" connectable="0">
          <mxGeometry x="-0.0907" y="4" relative="1" as="geometry">
            <mxPoint x="36" y="-49" as="offset" />
          </mxGeometry>
        </mxCell>
        <mxCell id="evtpe5G1LGWTd8iD0ivO-10" value="mino" style="rounded=0;whiteSpace=wrap;html=1;container=1;" parent="1" vertex="1">
          <mxGeometry x="610" y="290" width="100" height="60" as="geometry" />
        </mxCell>
        <mxCell id="O229sDAhucVUfMIDG_dj-2" style="edgeStyle=orthogonalEdgeStyle;rounded=0;orthogonalLoop=1;jettySize=auto;html=1;entryX=0.445;entryY=0.029;entryDx=0;entryDy=0;entryPerimeter=0;fillColor=#e1d5e7;strokeColor=#9673a6;" edge="1" parent="1" source="zNO3inHTsQPZRsrdVChj-38" target="zNO3inHTsQPZRsrdVChj-27">
          <mxGeometry relative="1" as="geometry">
            <Array as="points">
              <mxPoint x="109" y="350" />
            </Array>
          </mxGeometry>
        </mxCell>
        <mxCell id="O229sDAhucVUfMIDG_dj-3" value="5. 下载指令&amp;nbsp;" style="edgeLabel;html=1;align=center;verticalAlign=middle;resizable=0;points=[];" vertex="1" connectable="0" parent="O229sDAhucVUfMIDG_dj-2">
          <mxGeometry x="0.0558" y="1" relative="1" as="geometry">
            <mxPoint x="40" y="-73" as="offset" />
          </mxGeometry>
        </mxCell>
        <mxCell id="O229sDAhucVUfMIDG_dj-11" style="edgeStyle=orthogonalEdgeStyle;rounded=0;orthogonalLoop=1;jettySize=auto;html=1;entryX=1;entryY=0.5;entryDx=0;entryDy=0;exitX=0.5;exitY=1;exitDx=0;exitDy=0;fillColor=#fff2cc;strokeColor=#d6b656;" edge="1" parent="1" source="zNO3inHTsQPZRsrdVChj-27" target="zNO3inHTsQPZRsrdVChj-27">
          <mxGeometry relative="1" as="geometry">
            <Array as="points">
              <mxPoint x="120" y="675" />
              <mxPoint x="320" y="675" />
              <mxPoint x="320" y="620" />
            </Array>
          </mxGeometry>
        </mxCell>
        <mxCell id="O229sDAhucVUfMIDG_dj-12" value="定时重传失败文件" style="edgeLabel;html=1;align=center;verticalAlign=middle;resizable=0;points=[];" vertex="1" connectable="0" parent="O229sDAhucVUfMIDG_dj-11">
          <mxGeometry x="-0.1701" y="1" relative="1" as="geometry">
            <mxPoint as="offset" />
          </mxGeometry>
        </mxCell>
        <mxCell id="O229sDAhucVUfMIDG_dj-15" value="" style="shape=image;verticalLabelPosition=bottom;labelBackgroundColor=default;verticalAlign=top;aspect=fixed;imageAspect=0;image=data:image/png,iVBORw0KGgoAAAANSUhEUgAAAeAAAANkCAIAAADgCG4lAAAMQmlDQ1BJQ0MgUHJvZmlsZQAASImVVwdYU8kWnluSkEBoAQSkhN4EkRpASggtgPQiiEpIAoQSYiCo2JFFBdeCigVs6KqIYgfEgiJ2FsXeF1RUlHWxYFfepICu+8r35vvmzn//OfOfM+fO3HsHALUTHJEoB1UHIFdYII4J9qePT0qmk54CFGgBdTAaUDncfBEzKiocwDLU/r28uwEQaXvVXqr1z/7/WjR4/HwuAEgUxGm8fG4uxAcBwKu5InEBAEQpbza1QCTFsAItMQwQ4oVSnCHH1VKcJsd7ZTZxMSyI2wBQUuFwxBkAqF6GPL2QmwE1VPshdhTyBEIA1OgQ++Tm5vEgToXYGtqIIJbqM9J+0Mn4m2basCaHkzGM5XORFaUAQb4ohzP9/0zH/y65OZIhH5awqmSKQ2Kkc4Z5u5WdFybFKhD3CdMiIiHWhPiDgCezhxilZEpC4uX2qAE3nwVzBnQgduRxAsIgNoA4SJgTEa7g09IFQWyI4QpBpwkK2HEQ60K8kJ8fGKuw2STOi1H4QhvSxSymgj/HEcv8Sn09kGTHMxX6rzP5bIU+plqUGZcIMQVi80JBQgTEqhA75GfHhilsxhZlsiKGbMSSGGn85hDH8IXB/nJ9rDBdHBSjsC/LzR+aL7YpU8COUOD9BZlxIfL8YG1cjix+OBfsMl/IjB/S4eePDx+aC48fECifO/aML4yPVeh8EBX4x8jH4hRRTpTCHjfl5wRLeVOIXfILYxVj8YQCuCDl+ni6qCAqTh4nXpTFCY2Sx4MvA+GABQIAHUhgTQN5IAsIOvoa++CdvCcIcIAYZAA+sFcwQyMSZT1CeI0FReBPiPggf3icv6yXDwoh/3WYlV/tQbqst1A2Ihs8gTgXhIEceC+RjRIOe0sAjyEj+Id3DqxcGG8OrNL+f88Psd8ZJmTCFYxkyCNdbciSGEgMIIYQg4g2uD7ug3vh4fDqB6sTzsA9hubx3Z7whNBJeEi4Tugi3J4sKBb/FOU40AX1gxS5SPsxF7gl1HTF/XFvqA6VcR1cH9jjLtAPE/eFnl0hy1LELc0K/Sftv83gh6ehsCM7klHyCLIf2frnkaq2qq7DKtJc/5gfeaxpw/lmDff87J/1Q/Z5sA372RJbiB3AzmInsfPYUawR0LEWrAlrx45J8fDqeixbXUPeYmTxZEMdwT/8DT1ZaSbzHescex2/yPsK+NOk72jAyhNNFwsyMgvoTPhF4NPZQq7DKLqTo5MzANLvi/z19SZa9t1AdNq/c/P/AMC7ZXBw8Mh3LrQFgH3ucPsf/s5ZM+CnQxmAc4e5EnGhnMOlFwJ8S6jBnaYHjIAZsIbzcQJuwAv4gUAQCiJBHEgCk2D0mXCdi8FUMBPMA6WgHCwDq8A6sBFsATvAbrAfNIKj4CQ4Ay6Cy+A6uAtXTw94AfrBO/AZQRASQkVoiB5ijFggdogTwkB8kEAkHIlBkpBUJAMRIhJkJjIfKUcqkHXIZqQW2YccRk4i55FO5DbSjfQir5FPKIaqoFqoIWqJjkYZKBMNQ+PQiWgGOgUtQkvQJegatAbdhTagJ9GL6HW0C32BDmAAU8Z0MBPMHmNgLCwSS8bSMTE2GyvDKrEarB5rhs/5KtaF9WEfcSJOw+m4PVzBIXg8zsWn4LPxxfg6fAfegLfhV/FuvB//RqASDAh2BE8CmzCekEGYSiglVBK2EQ4RTsO91EN4RyQSdYhWRHe4F5OIWcQZxMXE9cQ9xBPETuIj4gCJRNIj2ZG8SZEkDqmAVEpaS9pFaiFdIfWQPigpKxkrOSkFKSUrCZWKlSqVdiodV7qi9FTpM1mdbEH2JEeSeeTp5KXkreRm8iVyD/kzRYNiRfGmxFGyKPMoayj1lNOUe5Q3ysrKpsoeytHKAuW5ymuU9yqfU+5W/qiiqWKrwlJJUZGoLFHZrnJC5bbKGyqVakn1oyZTC6hLqLXUU9QH1A+qNFUHVbYqT3WOapVqg+oV1ZdqZDULNabaJLUitUq1A2qX1PrUyeqW6ix1jvps9Sr1w+o31Qc0aBpjNCI1cjUWa+zUOK/xTJOkaakZqMnTLNHconlK8xENo5nRWDQubT5tK+00rUeLqGWlxdbK0irX2q3VodWvrantop2gPU27SvuYdpcOpmOpw9bJ0Vmqs1/nhs6nEYYjmCP4IxaNqB9xZcR73ZG6frp83TLdPbrXdT/p0fUC9bL1lus16t3Xx/Vt9aP1p+pv0D+t3zdSa6TXSO7IspH7R94xQA1sDWIMZhhsMWg3GDA0Mgw2FBmuNTxl2GekY+RnlGW00ui4Ua8xzdjHWGC80rjF+Dldm86k59DX0Nvo/SYGJiEmEpPNJh0mn02tTONNi033mN43o5gxzNLNVpq1mvWbG5uPM59pXmd+x4JswbDItFhtcdbivaWVZaLlAstGy2dWulZsqyKrOqt71lRrX+sp1jXW12yINgybbJv1NpdtUVtX20zbKttLdqidm53Abr1d5yjCKI9RwlE1o27aq9gz7Qvt6+y7HXQcwh2KHRodXo42H508evnos6O/Obo65jhudbw7RnNM6JjiMc1jXjvZOnGdqpyuOVOdg5znODc5v3Kxc+G7bHC55UpzHee6wLXV9aubu5vYrd6t193cPdW92v0mQ4sRxVjMOOdB8PD3mONx1OOjp5tnged+z7+87L2yvXZ6PRtrNZY/duvYR96m3hzvzd5dPnSfVJ9NPl2+Jr4c3xrfh35mfjy/bX5PmTbMLOYu5kt/R3+x/yH/9yxP1izWiQAsIDigLKAjUDMwPnBd4IMg06CMoLqg/mDX4BnBJ0IIIWEhy0Nusg3ZXHYtuz/UPXRWaFuYSlhs2Lqwh+G24eLw5nHouNBxK8bdi7CIEEY0RoJIduSKyPtRVlFToo5EE6Ojoquin8SMiZkZczaWFjs5dmfsuzj/uKVxd+Ot4yXxrQlqCSkJtQnvEwMSKxK7xo8eP2v8xST9JEFSUzIpOSF5W/LAhMAJqyb0pLimlKbcmGg1cdrE85P0J+VMOjZZbTJn8oFUQmpi6s7UL5xITg1nII2dVp3Wz2VxV3Nf8Px4K3m9fG9+Bf9pund6RfqzDO+MFRm9mb6ZlZl9ApZgneBVVkjWxqz32ZHZ27MHcxJz9uQq5abmHhZqCrOFbXlGedPyOkV2olJR1xTPKaum9IvDxNvykfyJ+U0FWvBHvl1iLflF0l3oU1hV+GFqwtQD0zSmCae1T7edvmj606Kgot9m4DO4M1pnmsycN7N7FnPW5tnI7LTZrXPM5pTM6ZkbPHfHPMq87Hm/FzsWVxS/nZ84v7nEsGRuyaNfgn+pK1UtFZfeXOC1YONCfKFgYcci50VrF30r45VdKHcsryz/spi7+MKvY35d8+vgkvQlHUvdlm5YRlwmXHZjue/yHRUaFUUVj1aMW9Gwkr6ybOXbVZNXna90qdy4mrJasrprTfiaprXma5et/bIuc931Kv+qPdUG1Yuq36/nrb+ywW9D/UbDjeUbP20SbLq1OXhzQ41lTeUW4pbCLU+2Jmw9+xvjt9pt+tvKt33dLtzetSNmR1ute23tToOdS+vQOkld766UXZd3B+xuqrev37xHZ0/5XrBXsvf5vtR9N/aH7W89wDhQf9DiYPUh2qGyBqRhekN/Y2ZjV1NSU+fh0MOtzV7Nh444HNl+1ORo1THtY0uPU46XHB9sKWoZOCE60Xcy4+Sj1smtd0+NP3WtLbqt43TY6XNngs6cOss823LO+9zR857nD19gXGi86Haxod21/dDvrr8f6nDraLjkfqnpssfl5s6xncev+F45eTXg6plr7GsXr0dc77wRf+PWzZSbXbd4t57dzrn96k7hnc93594j3Cu7r36/8oHBg5o/bP7Y0+XWdaw7oLv9YezDu4+4j148zn/8pafkCfVJ5VPjp7XPnJ4d7Q3qvfx8wvOeF6IXn/tK/9T4s/ql9cuDf/n91d4/vr/nlfjV4OvFb/TebH/r8rZ1IGrgwbvcd5/fl33Q+7DjI+Pj2U+Jn55+nvqF9GXNV5uvzd/Cvt0bzB0cFHHEHNmvAAYrmp4OwOvtAFCTAKDB8xllgvz8JyuI/MwqQ+A/YfkZUVbcAKiH/+/RffDv5iYAe7fC4xfUV0sBIIoKQJwHQJ2dh+vQWU12rpQWIjwHbIr4mpabBv5NkZ85f4j75xZIVV3Az+2/AG6mfGqMNNsUAAAAOGVYSWZNTQAqAAAACAABh2kABAAAAAEAAAAaAAAAAAACoAIABAAAAAEAAAHgoAMABAAAAAEAAANkAAAAAKwx1BMAAEAASURBVHgB7J0HgBVFtvcnMUPOWZIgoiIGMIKKARUDJszpW9Pu6qpreL511cV9uMbPsMEc1/AMn1lRFFlMqICACQFJApKRHAYmfr+ZA8ey+869fePccO6y4+nqU1Wn/tX9r1Onqrvzq2t/mzZtysvLa9KkSX5+PkLwH7kzLm9lZeWqVatoY5s2bQoLC4M3Fs1MbG88NldUVPz000/87d27d1RA5SBWdl0Fv0LsugqIVUFAPVMzBAwBQ8AQSDECRtApBtyqMwQMAUMgKAJG0EGRMj1DwBAwBFKMgBF0igG36gwBQ8AQCIqAEXRQpEzPEDAEDIEUI2AEnWLArTpDwBAwBIIiYAQdFCnTMwQMAUMgxQgYQacYcKvOEDAEDIGgCBhBB0XK9AwBQ8AQSDECRtApBtyqMwQMAUMgKAJG0EGRMj1DwBAwBFKMgBF0igG36gwBQ8AQCIpAUe27kqpFHTlovu16mkWF7Wci/1ezqBA5z3YNzaLC9jOR/6tZEFSOnK1WQ/VVCJgRNc2iguWtCwGFSIW6NP3pmkUFv05dKZpFhbo0/emaBUFlv1rIFNVXIaRayETNokJItZCJmkWFkGohEzWLCiHVQiZqFhVCqoVM1CwqhFQLmahZVAipFjJRs6gQUi1komZRIaSaPzF/w4YNpEq2aF9lJ8VlXN6qqqrS0lKMb9SoUUFB1HOIjGtvPP0rb2jjb6dOnaS7o/qbU1jZdRX82rDrKiBWUdNTwHJNzRAwBAwBQyBOBIp4BzRuzubNmymocePG0TrRmZiX0XvLli3S3hjeB51TWPHe3tWrV4MV10m0l1omXhvx2GzXVfArxK6rgFgVuYyM7B4GLELUMiivtjGDbNa+SLHNLlZqQ7RCim1W81Jcr4uVympMQCHFNqtVKa5X8VFBLQkupNhmNSyV9VqIQ2E3wRAwBAyB9ELACDq9+sOsMQQMAUNAETCCVihMMAQMAUMgvRAwgk6v/jBrDAFDwBBQBIygFQoTDAFDwBBILwSMoNOrP8waQ8AQMAQUASNohcIEQ8AQMATSCwEj6PTqD7PGEDAEDAFFwAhaoTDBEDAEDIH0QsAIOr36w6wxBAwBQ0ARMIJWKEwwBAwBQyC9EDCCTq/+MGsMAUPAEFAEjKAVChMMAUPAEEgvBIyg06s/zBpDwBAwBBQBI2iFwgRDwBAwBNILAfsmYXSfYeSF7tKBKgTvT82iguWtCwGFSIW6NP3pmkUFv05dKZpFhbo0/emaBUFlv1rIFNVXIaRayETNokJItZCJmkWFkGohEzWLCiHVQiZqFhVCqoVM1CwqhFQLmahZVAipFjJRs6gQUi1komZRIaSaP9G+SRj1HEIgju1F4xmX174d579n6kqxbxLWhYw/3a4rPyYhU6Kmp5ClWKIhYAgYAoZAwhGwbxIWRoUpLrB9kzAgYrmGlX2TMOCFgZp9kzAgVvZNwvyASHnUUvldMrfqFNerkRwVXGMCyim2Wa1Kcb0KUYrrra/2xlOvi5WWE62QCzhbiCPaq8L0DQFDwBBIEQJG0CkC2qoxBAwBQyBaBIygo0XM9A0BQ8AQSBECRtApAtqqMQQMAUMgWgSKos2QtvprN5V9O3/1zJ/WLV61eenqzRu3VJRuraioiu45lLRtXRoYtiANbDATsgeBwoK8kqKCFk1WdGrduEvbxn26tNijR+uWTYqzp4WJaEnGE/SG0vJPpi0f9+3S2UvWJwIQK8MQMARSgUBlVd7msqrNZaVL15ROnbsqb+JP1Nq7c/PD9+g0uF/HZo0apMKItK8jgwl6zcayUZOXjP12RVlFVdrjbAYaAoZAZARws/j377Gzhw7ocsrA7q2blUTOk9UaGUnQFZVVb05Y+MLH87YaNWf11WmNy00EuK/fnLjwvamLzhrc88T9uxURDcnVX+YR9JJVm+945dsfl2/M1S6zdhsCOYHA1vKqf4+dQwDzT8P7dW7TOCfa7Gtkhg1NX8xccdVjE42dff1oCYZAdiIwb9kGbnlu/OxsXqRWZRJBvzdl0R0vf1taVhmpUXbeEDAEsgcBbnlufG7/7GlS4JZkTIiD7nngnZmB22WKhoAhkD0IsF1Wbn8WD7OnVQFakhkeNBOcB42dA3SnqRgCWYzAQ+/OzLVYRwYQNKuC973xvT1wksU3njXNEAiCAH40VAAhBFHODp10J2h21LFnw+LO2XG1WSsMgTgRgArueu07aCHOcjIle7p/k5D9zrZnI1MuJrPTEEgBAvOWbRw9ddmwfTvLB+SiqlGzqBA8u2ZRIQV50/qbhKs3ll3z5Nf2NErw68A0DYFcQICXeNx7wZ6xPWco9KpfDIgKrtTnTesQxzuTlxg7R3UBmbIhkAsIQAujpizNhZam7zcJ128u5z0budAH1kZDwBCIFoH/fLvinMN6N28c3dvvcIEz65ui6ftNwk+/X25vQYr2qjV9QyBHEIAcPvl++bD9usXW3kz5nmH6hjh4g2hs0FsuQ8AQyAUEPvx2WdY3M00Jmrfv2/uds/7iswYaAvEgAEVAFPGUkP5505Sg+TZK+mNnFhoChkD9IpD1RJGmBM2Xq+q34612Q8AQSH8EfliU5USRpgTNdwXT/+IwCw0BQ6B+EVj0c5YTRZoSNF99rd+Ot9oNAUMg/RHIeqJIU4Lmm9zpf3GYhYaAIVC/CGQ9UaTp+6BLtxpBR77y+fIxHzWPrJeBGrt3b3l0/x0wfNKsn9kRn4wWZDF6ClfWtzHriSJNPegKXixov7oRaNmk+NqT+z73X4cUFebXrZXBZ3p3bn5ov07823PH1glvRtajB2K50EaamfVEkaYedMLvyWwqsLAg/5HLBzYusb6LpVdzAb1caGMsfZ+BedLUg85AJFNncn5+nrFzzHDnAnq50MaYL4DMymgEnVn9ZdYaAoZADiGQ69PkHh2atmvesE2zEmaFLLgtX1v6w+L1Yfq/U6tGO3Vq3rRRgx+Xb5izdH1FZTXObMPiQj7xwOv3/BkbFRd2b9+Uf1vLK2cuWrdsTalfpyA/v2XTmpdyrd1YVlVdTViZKnbs0GzTlvL5Kzay05NEzUV1rPzoYZtmDcupehOvjvlFR89GK6gl6zaVVVZVN2/cYNeuLds2K/np501zl27YFHblNloki4sKaCa5WOdZuqaU8mlIRIOLCvKbN9n2ArONpeWe12lFRDup6LnGB29dENyi6pcwbeQib1GLnh86jCdsXVCQX1ZeqVsjuBTldXFrNmzl7UIDdmqDztfzVq9cv8VtLHJE5D36dhgQgdwl6GP36XLi/t06t2nsQern9VueHTfX/6qmPXq0+q9Tdm/VtET1yyuqHh4985gBXXbq3BwOPf2OD7eW/0IxLRo3uOrEvlzT7qvB12zc+tF3y577cK7LLIfv0fGPJ/al2AdGzcCe4/ft2qDol5nN4lWb7n5t2pylG6TeW8/vD6+pDY9fOQj56f/MeeWz+ZoYs6CW/Hvs7N27t9qnd1stivc0jp++4p9vTd9SXqmJIkSL5C5dWlx01M47dWpWVPhLM1dv2Pry+PmjvvzJU7h7COv95cy99uq5bdnw0fd+eHvSNv2AaCcVPTE1eOuC4xZVv4RpIzX+dmgf7Hx38iI+wOpi27Z5yVNXHUwKb7c4755P5NTwgT3OPawX8hNjZp0ysLte/JNn//w/L3wtOgGRF2X7Gy0COUrQFwzpzQUXEqy2zRtefVJfvMWJP6xUBVj4d8f0wQHRFARo9Iphu0kKPg7/9OzOOzS/8fQQX3zgEj/5wO79urf6078nK0cXbuepPxy/q5agwg5tmtx90b7XPP7lvGU1HF1U8AupqY7HME2PVlBLfjOktycvw8zBfTt0b9/kpmenrtn4yxtqokVy4K7t/3t4P7/BfB0DhFs3K35m3FxP1XLYoLDgpjP2VHZ+58uflJ2Do51U9LAzeOuiwi2qfgnTRt3z48dfU5ijKP6qz4CqiQhMreQwOPJudpODI1BUWVmJc1RVVeP6IbvuXpBS6itvENvq0sE3VHb+cdmGL2f/PHvpeu7//r3aDNmrs+Q6au/OStDEQC4ZurNcwYRBXh7/I1Pynh2aDR/Uvbio0F8LTI3vLN/jwbMePXnR1z+u5ro/Ys/O4pPicf/+2F3wRv15ScFlZvMvwRC87/12bkdKYUHB8IHd/+9r05CfHDurc+vGvz9mF8n78LsziQxMW7BWDhP7d8ZPa9+YsJAQxEF9Oxy1d82u5G7tmp49uOcD72xzvqJFskPLhn88YTdBkvnHGxMW/Lhs444dmw7evWP7lo0o/7SDdqTtxII8DYEpYOe9e7WRdDI+MWa2yFGhnVT0grcuWtw8aITvl+S1kfkfaBMkGft1zauAo0Le04QEHsJawUurL76Kud6iVatW0Tzy83fLFm9oKUjL6ytvENtC6jBhlPRZi9dd/+8pGvrkgQjiG2ce0pOzRKU171mDd4S+OeQC/dNTk2Fn5AkzV06ctfL2/zOgUbF3FgK5d23bBB2QGfnC11Pm1CDMjxDBaQf1OP/wnZCxgTCCP2zNy19ufHaKhEqYh+Js4rei37d7q5oi8vK+mrv6u/lrlKDf/2oxcXA5ldi/3/y4GuPFzf9q3upV67eeNbgGmSP37vzq5wskmB4tkkMHdCFCSiFE5PHEhYg/nb581KSfHrliUMMGNaPdIbt38BA07Mx0pP9O29iZAdL1sqNCO6noBW9dtLi5PRuxX5LUxo+nLbvntWlcat3aNVleewtEhbzbhMTKwmDBy6wvvoqt3hDz5eBNzVDNzVsr5y5djy/MJ8OVnaUt+tCafo+S+R6PS8hZgqTCznLIutbbE7fFQF0ohg6ocTb5vTd1sbKzpFACS4vIOMUH71bDvO6PlUY40Q1kM5EXhaYNvcOAmzEZMhFeDcJQPpYzPiFg+cBd2kuNUSFJlkP7bRsax369xGVhvg5MX6CweWtF04a/LIGSQhzphtP21Gj4/34012VnFGJGm7yJ/QVvXbS4uXYG6RdXPyEyV+Yjo38QR2DhSuJ/NRPu9EE+IW1Mz0KK2rRpA7Vn1ne64oTy8TGzPCUQxNihbeOdOzffq+c2N63R9sdA2rVoKEt2oDRm6mJPxtFTFp1+8I6eRF14ZC9Evx7bPF/VUf7t2q7Gy3Z/RJnX//rR7RVrt81pSvDh8/Pd7RxuxoTL381fzX3oFstIxuh1wv7dSOzYuiYcwS8qJEsaFBDfl4zv+5B88eN5b09cuM63E+bwPbaNjmTEiXvxkx+lBP0bM9paQkKEqFoXFW6ueQH7xc2SEHn6wrX+lwqkCfIwWPA2ZhzXFRUWFmJ0Qe3SE3IMMeh6yRu8S+rS3K1bywP6tONJ4h3aNIb+6lLr1HrbNg+8PP8nxn9ev5VYqrvpgn1IGvQgWnLmIXUVXLOryXPOXXyTU+5dweJNIrbSeeoMfbjg1+wsSuxBFIG9hm62gEjqHgDyLl29rSgth22CfnbWsyIwgpYUFbi9EA/ansLjPIyhdQFxcw2Lql/cjHHKhP48JaQP8rCWx7YwhxnHdameOIfBLmWniHWyYW7/PjXrbxF/TRttg4iwaUhltp25BN2m+S/B65D6mijRWD1EcEMKbnrqZXZk+yst3boNgSbboxBRIdlke5SmsqrKv1fPX50/hcHy/wzZ6dH3fpkAxYO2v/x4UqJqXVS4uVYF7Bc3S0A5vGe2odT78rL0QT5gAzNULRcJ+tJj+7jsvGTV5uk/rV2wYuPcZRvY0nLnBfvQl7rVaOW6bb6DRqXdnibw4D42win3FiJsF+bhDtk255aWPrKnUWKYPE2D/PN2TKJCUucHRLEZnAg3B2kvUZ1/vT1j756tD9m9Jn7NJvHPZ6zQXSvpg3ZUrYsKNxelgP3iZgkp66Y6Pdva2eCviSr4Y2vpg7wamZVCzhE0jzwN3r5UxZaJx97/wX10cNBu25a/CPhKf+u3XfB6CIbooZzlMTDPZbFqw1bcQ5RJ5znAaQvWeBSID8B0BJd5NMNzKn0OO22PMrsmdandmkLKktrPKUSLJO1lFiLRJJD0fBS4VdPif/x2f2iOQMr/fbVmQ6H8eK6HFcVJs1bu2bN1i8bFOHps1Lv84QkSyk8ftIO3jvEmqitwOxI1/w3SL66+R9YNP8UNvLsDWGvxKIc/TB/kw9uZ6We9/ZTp7YloP5uE8OBE7eXP5rvsTOIBfbYT9HZgNm2pWLHdYTzDtx7IpmB/jUu3f6/r5ANrltTcH6R26/kD7rpg339fffB1w/u5p2KTw0TPYytQcrEF23PHEnM8aPvotai2gdEiSckaej5m+0YXNXLvnm0I4/bs2KxXp+bu1hpC/OiwH/Gx7ZGNjq0au8/RxIN2YtEL2LrOrRtFdQUqRAhB+sXVR3bbqI9od2rlfYB2v51/eWrUU0Jdh/EgX1eZlu5BYDsPeZKz95AdTto4z2IXT6noTiluIX2k6qVP5kkWHB/laM7yMJhu/9IyEcZ+s0QOeczkhP27uqdgFiW+T79f5p4KLuMHse1J9HnLR/CMwTVp/qXH7MKj1ZKFSM5lx3FYMy1gs91n05cjxIDkmK+2bYNh5yJco/YQwD2n9pFiUj6fUVO4/8cWji9n/Szpx+3TRbfHRIt28tAL2LoYcFM0gvQLynW1UV8Fw+u2eThIi2XHp0SQNCWIEC3yQco0HQ8CORfi4Dm9LWWVvN4IIHjyAoJj5z8ExAWqjxELRm2aN5R9C0yxTzygGw/REffg1QR86YMSWDx0F+5dWEdNWjS0fxfZRXfJ0X327d1uypyfef5q/53b6da6RT9v0icV3bwBZV5nI5tAbj2vP9Fz4gA88hcwb0C1fXdue/eF+/IwDq1mHMK3lYy8SKS0rGaQiwFJHqoEyQ4tG7Gsyls1AJa95LDzsP26SoifGMgHX20b3vx2PvDOjAe7H0j8mkDHlcN2u+LhCUSTYkA7SegFbF0MuLlQROwXUQ7ZxmWrSxna5RUofzxxt8P26EhMibdw6O5St6KIcgzIRyzTFDwIFP71r38lqby8nL/FxTUxPo9GxMNk5H3h421Oa8Tao1Vgsz3LU+L5QhPwDu9PYM2wY+3WMZYEdTkeWR6mIMuEmSt4CY44vyjAtrKXjgCIupnPfzxPtsGh/8PidTw4LrsdKBmZPVXyIjEMJn5307NT9J1hvPxIHulm6/FnM1a4LeJe0n3WL33yo26z26lzM/Gdef0Y1EYc4JNEfBdKLREbGIF4KJmHGHUo+uDrJS9+Mo8G8osBSeyfs2TDPr3bgB68T3XQDeOi7DpnC9Tdr0+TBcBdu7aQB7thcB7+FnsYGHjD3761j7/zQkH+8daeaNGmqCShF7B1MeAWVb8IViHbyF7GRiWFu3VtiQ7rhLwzgOufkBGHfH1VViDZSsSTolIILwjjAkDmRuBpUknUvzEgr3kTKIQMM4YpPxl8FaY6PRVbvTkX4gCvd75c9OA7M3lrl2KHsG5z2etfLLjswS947FjSdQc0h2yC/vPTU3g4G0YgI0FSHhPn4bcbnpkiylCkrsCQwsvnWMjicYzSsl/tVSAjD3Bf+/ik5dufQEEZf1wK2fJrZRJ552dZRc1ZXEtlZw4ff3/WnCU1TyTK8nr7ltGt8JAx/I8Badw3S9wqafU/3prO+0NcM2JAkg0zVz4ykWCFBJfVDN4vAcKfTd82PjmYbANHNEdPWcyT7iIf3b9zk9rniaJCm7zJQy9g62LATZocsF/CtPHfY+c89cHsn5x97lxZvEGUt3cxFSOjTI+kOpW1OyRd/0aLvGY0ISAC+bgt/DZtqnlsrEmTJtF60EnKO2zk2IANiFmNNzzgQeDewjjzl2/gkZO6imI1jEfgCEroaqFqsv1r5Ln9OSQye/69n2q6K7Rv0bBb+6Y4LARMmGPGtgXYLVBlXhiCF9OgMB/jXTJVhWgFojeX175Rj4cG73r1O/ai9N6hOSTIBkTdbugvMziSbl48aAI+bOfAKYYvGALdszHLwdFOOHquzUFaFxy32PoFe8K0kRBZny4tAP+HRevhaNf42OTgyMdWfl253h4xpK5T/vQk8ZW/Ik9KzPXmXAxagcPhJaTgeaBZz7oCnMV760lxX0AsCmfUvlkJOcymZmjdz+xu+THLhEokL7v9eCoyYDkTflg5f3mNrxTxx1ii7moY5eBIuoXg++OyidfmpscpB0c7qegFaV1suIFPwH5BU9voR5UpUTyrIP4CgyPvz2spdSGQuwRdFyL+dEhcCJpFRYLLRFG5/XB/eJ153241xM0vCJGJZjL+EuM+59BeAUsmyBiQoAMWmOlqhl6m92AW228EHblz2VXGOzaZtLKKcs9F+xFWZr7Pt6Z0OfHbH1dr5DpycUnQmDp3FS+pCFgwygE1c0TN0MuRjs7EZhpBR+411q/55M+FR/aW5wvYgcCWO80GO9e8I7T2eQpNTLGAR2xOccyYG3oxQ2cZk42AEXQghN+a+NMXM1Yes88OfMuVzXa8W5INpGz7Hz99OW98TsgCXSA7kqxEAEemAt8v9D6hnuSarfhwCFi/hEMnq88ZQQftXh6T9bwqPmjOzNHDl3zkvR8yx95csdT6JVd62tfOIvZ/8JN0FXxqdSZoFhXqVPWd0Cwq+FQswRAwBAyBcAhExR6qrEK4on99TrOo8Ovz4Y40iwrhtJ1zRbIDWrLJd1Wcs4HE+sobyDhTMgQMgaxGQBgseBPri69iqzfo0n/w9pumIWAIGAKGQEIQKOLpQag9p75JmBDgrBBDwBBIBwRgsOBmZBzX1bwYTJuH7B5qehChvvIGsc10DAFDIFsRiI2y6ouvoq3XQhzZet1auwwBQyDjETCCzvgutAYYAoZAtiJgBJ2tPWvtMgQMgYxHwAg647vQGmAIGALZioARdLb2rLXLEDAEMh4BI+iM70JrgCFgCGQrAkbQ2dqz1i5DwBDIeASMoDO+C60BhoAhkK0IGEFna89auwwBQyDjETCCzvgutAYYAoZAtiKQAe+DjuqrvdnaT9YuQ8AQUASGjRyrcnYL5kFnd/9a6wwBQyCDETCCzuDOM9MNAUMguxEwgs7u/rXWGQKGQAYjYASdwZ1nphsChkB2I2DfJMzu/rXWGQJZjoB8SipgI1VZhYAZUdMsKqQgb+5+k7AG5cqyvOqq8vLS/Lyq6qpKuqAW8fz8gsLqvIIGDRrl5RfkFRbH9kbw4J1nmoaAIRAzAtn9TcIM2GYXc8+Fz1hdWbZ+8YyK0rUbFn5WuXVD1dal1VUVZMkvKCoo6VRY0qx5t0FFjVo222HX/KKS8EXZWUPAEDAEkoFALn6TsLq6qqqstLJsc/mm5RWlayo2La8q21BZtjyvlqDzCooKKwuqKzi7rLpqa0XpDoXFjQuKG+FXJ6MDrExDwBCIBwH7JmEg9KL91pZbaDx53XICylVlm1dMHwM7ly79qLpyU1GDsqIGeQ0aEuKQX3l15eLqqry1s+flFzbZvHpegyYd2u92VGFJ0+0K9l9DwBBIFwRii0DGwzmpzJtbIQ6JO0PQ5ZtWVGxeUVm2Jq96S35xYX4B/8vPy2cdoDYQnV+OVFW+Ja+iDDXCHmQpKGwQMR49fvz4L774om3bthdccEH463fcuHFTpkzp3LnzOeecE17TPfvjjz8uXry4YcOG++yzj5seXC4rKysqKioosNlAcMxM0xCoNwRyjKAryzYsnlG2cVnpso+qytaWNCovKCyqIeY8qLiqZqWwqqYnaj50np/fsEkhoZCtP39RXtxyTasexU07No8Ujx41atSdd97Zu3fviAT9yiuvPPTQQwMGDIiKoBctWjRjxozYCJrBadasWRMnThwyZAgDQ71dcVaxIWAIBEYgxwi6qqpiy5rKrWuqyjfmVeEUF9V4zlBXdX51QePq/Pwidm5A1lXs66jOLygt4Fzl5qryIrJUFJVs4+/A4KaV4tKlSz/++OO0MsmMMQQMgfAI5BZBV1WUbljwRcXm5Q0alBUQ2SgqBJ3y0orqgoaN2w0ubNimWY8DSNkwf0LlllWbV3yUV1la0ogtd2WbFk4oatyhRdc9C4trGLyu35VXXjl8+PDGjRvXpRBnev/+/fv06UOMIs5yLLshYAhkBAI5dqtXV1eUreNfgyK209VEMmq2nxPWyC8sbNS2qFGHBk06koRQ23mFhKQLCmsC02Vl6/KKGtaGqGvP1PGH0EFSowcsWIdfs2YuUFpa2qgRe05qG1eHnZZsCBgCGYFAbhE0/Fy5ZXnl1uXFDSoLCmpXBavyqiurChuUNO8xCHZuUNIUjmvec2DFpmUbF71LUJpt0VA4WdhlR/bwnfrMM8+8+OKLXbt2feSRR1zN0aNHP/zww5MnT4Y9991338suu8w9qzKB6aqqqg4dOgwePFgTXeGrr76aPXs2Hvrxxx8v6d98880PP/zAqLDrrrtOmjRp+fLlsgzYrl27gQMHtmnTRtRYk1yyZInKxcXFBx54IHa6hZtsCBgC6YZAbhF0rb9cUfNASn517VJghO6o8UJr/l/NFunax1jkUcM6c02fPh0uZpHQ1bjllltuvvlmeF8Sx4wZM3bs2Pbt27s6Iq9evRqBNUD/KUnZuHHj2rVrt2zZogqSsnnz5jlz5kDNkl5RUUHE+fXXXx82bBh0T+K6devQkbMI/BgqtBATDAFDID0RyPXtVjWb6woLqqq2rp//2dp548u3rKvYun7dvM/Xz/+iuqosn+1o20IFsv8u6k5k192IESNgZzbGsQmPbRj/+7//27Rp02XLlvnLIrhcWFjYoEED/6nwKVAzv5122unoo48+/PDDJcyCM45/LRmPOOKIQYMGiYxwyimn9OjRI3yZdtYQMATqHYFc86B5zUaDmh3NebX76Wrgr3lCsDq/srL0Z0IYZZtqeLOydDmLhHn5lXmMX9Vs6Mjj8UJiHeJOR9VnN910E/q4sf/5z3+aN2+OfPbZZ3fs2BHG9Jdz4YUX+hMDprB4qIGRnj17EmnBuV61apVkp+pWrVqJjMBO7YDFmpohYAjUIwK5RdCQbFGzjnlF+M2L8ySgnJ/XoJjNdFs3r/yYzXabF71HZ9Rss8uvblC4Na8wv2ZrXVVRYUnHwoYd2IYXVVcRapCdbRdddJGws2THyWU/xtSpU6MqLbxy3759VYHnUBgSIOitW7dqogmGgCGQcQjkVohDYso1YY3ajuJvbUrNcQHbois3VmxdyT+E/KrNNefy86sqayi6qLgF/4KErd0rYMGCBZWVNU+QH3BAze4993fIIYe4h/HLLVq0cAthIweHUrubbrIhYAhkEALRuYQZ1LCQptbs4tiwoKJ0eVEzIhssFNYSdCH7OfKKcJY55P+1UQ3+5tc8WFi9tbSSN3K07HkAezwKisJtgvbX+NNPP0mif0kwsbvx2JXhiVzbNjt/d1iKIZBxCOSMB83bRTeuLNu4Iq9qa35NcKOGiWvc5+0/GI2N0TX/r9kfXfMgYXXNO6J5nrBxQYOmhSWtihq2qlkzjObHXjdRX7hwoScf+yg8KXZoCBgChoAHgVzxoMs2rVr4n7/wDGFR8fqSpgUFeM2QcFWtw1z7t7rGja751WyHq2QHRPWWzZV5+Q0btjuQZwhbdetf1KgFL0sSnYB/e/XqRTiYsqZNm3baaae5uebNm+cemmwIGAKGgB+B6FxCf/4MSKn1ncs3Luf9zuWlK4lkbHORMb26ho6r8xpUVzeorKqurKz5BzVXVhVVVTcoKGpeWNyqqHH7Bk3aFxQ35rX90cYN2NG81157Uc8LL7ywfv16xWrlypWvvvqqHqZGUONt5TA1gFsthkD8CGT/Nwl/8Z0bbChpWJxfzFPeNcENqLmqorI6ryivpAtPe5etWVRdWfugIC/sL+lUUNysRe+BRY1atejaX17YHxvWt9566zHHHMPjf+eff/4TTzzBo31sfTvzzDNDfqeHR0vYMU3A+qCDDoqtujC5Skq2fReGJw/Zbd26dWu2Y4fRt1OGQEYgoI+ABbFWlVUIkkt0NIsKKcib1d8kxHfetFp854otP5e0LC7Af67d1sybRflVlPMCu4IGLdpUVxcVbSmvqiXomk9eNezAJ69YFeSTV0WNmhfE8cmroUOHnnvuuc8999ybb77Jy0h5loStHTwKyLIej5Z4OhjPmpQkvQuJl3hQMjv/CIjz48EZtvp5DLBDQyDjEAjp64RphdBrbItAqc+bzTFov+8MO+fjNRNf3sqT21Vb1pcXNW7R+dDfFDdtX8vOtSHpmkdXfvXR2DCd7TklL8L3vA7/2Wef7devH640UQ68V1jyvPPO22OPPa677jqPJlEIrgBPoluFv3x/iuj70/GgeTsHm6/ZH42OG3JxqzDZEDAE0geB/JrlsOpqGU94C49GKgOamKS8J9zyHzXg7RFDVA4q1PjOq8o3Lls47i/4zk1rfee8BryYLq+qvKKqim3PbfiKd+mGcuLLvYbeUtxMXl8XtHjTMwQMgXpEYNjIsVr7W38J8VCunvUISeIrTy3+w5jr5aG6XzabIbuH/mrCpNRX3pAmlW1cNe+9m9izUdJoA5ENjTszFpWXVvPe506DRjRo3K6aEHR+YXHTba98C1mUJRoChkA6IxAbZdUXX0Vbb7aGOCrLN66sKF3ZuGlxYWHBL3HnquqKiqq8ynzYWV79nM5XntlmCBgCOY5AdhI0w1RRTbQmP79BUXVh/i9x5/Kqzau3FDXZWuM7288QMAQMgfRGIDsJGsxr6Zk/NTvqiGxUVecXNWxb2SCvwZatDRq35wHB9O4Xs84QMAQMAXYBZ/uP8Lwbd+bpbeLOJRZ3zvZ+t/YZAlmAQNYSdO0DgXyTGzrOs7hzFlyp1gRDIAcRyE6CJqJRtqGifFN5QW2ouXY7ncWdc/DytiYbApmNQJYSdH5BcZP2RJ8LGtc0sLiywuLOmX2dmvWGQE4ikJ0EXdK0ba9ht/G97ppPd7NIyPvqLO6ck9e3NdoQyGgEspOga+i4WYjPZmd0V5nxhoAhkGsI2G6zXOtxa68hYAhkDAJG0BnTVWaoIWAI5BoCRtC51uPWXkPAEMgYBIygM6arzFBDwBDINQSMoHOtx629hoAhkDEIGEFnTFeZoYaAIZBrCGT/NwlzrUetvYZATiHAy3aCt1eVVUjzvFn9TcLg2JumIWAIZCYC2f1NQgtxZOZVaVYbAoZADiBQxMee8fbT7ZuEOYC8NdEQMAQSgAAMFryUjOO67PwmYfAOM01DwBDIaARqvsoR/U8+6BF9vpocqcxrIY7Y+shyGQKGgCGQdASMoJMOsVVgCBgChkBsCGTp2+xiAyNBuaqqqgoKMnLky1zLE9R1URfz448/Ll68uGHDhvvss0/UmWPNQCB19OjRa9euPfroo9u0aeMvZv369d9++y0z8f32269BgwauwtatW3/66Sc3RWWCuZ06deLw559/HjNmTPPmzY899tgMvZK1UZkuGEEnuAc/++yzyy677Omnn95rr70SXHSSi8tcy5MMTLjiFy1aNGPGjBQT9KxZs6i3Xbt2rVu39hvHKPvhhx8uX76cU3vuuaeHoJcuXTpu3Dh/LlI6dOhw4oknIkD6tGjJkiVfffXVgAEDQipbYmoQyEhHLzXQxFDL999/f/DBB+O8xLANPobqEpglcy1PIAgZUVR5efmXX36Jqfvvv3/I9bFvvvlG2Dlkc/COQ6aTqKUhHHDAAaRA0KtXr65L39JTgIB50IkEuaysLOOoWdqfuZYnsv8yoSxIk02xXbp06dy5s9/elStXTpkyxZ+uKatWrUJu0aLFsGHDNFGEoqJf2IDC+eFET548+aijjvJo2mHKEDAPOmVQW0X1hgCjZmlp6ZYtWyIOn5WVlYxVIQ2FFjkb8pQmUj5qEWuJ2R4JLlPd7rvvrpWqUFFRQfiCEIem+AUhaMIjjX2/4uJiV3+XXXbhcP78+QS73XSTU4nAL2NmKmvNyrpGjBjxwQcfSNMIQ7dq1WrkyJGydsSyzO233z516tRp06Z17Nhx0KBBLO+cffbZLg7PP//8c889N3jw4AsuuOCWW275/PPPp0+f3rNnz4EDB952223cUa4yd/g777zz6KOPEgBlkYqVnPbt2xNdueaaawg7qmbAMsNYrkWFFAKWr3nnzJlDW/AB586d27Zt2379+p1//vnDhw9XBRFeeeUVWIaQKGh4TnE4duxY5t3Qy/HHH+85K6datmwpTh/RAPCZOXMmvCa0xeQdJFke6NGjh+adOHHiggULSCFcS3gKgqZqAgj8RQebsZagAfzOIb4nZkNentUzQgcTJkzAgaVSmI7uoATPCl789gAdDWnUqBEetNqvAgasW7eOVkDfaGq6CjRh48aNHHouJ1VwhR133LGkpIRFxe+++45Lyz1lcsoQMIJOGNTcHvykOBEuvfRSDllwP++888Rz4ZC7nd8zzzzz0ksvvfrqqzqvhEfQ5D5/4oknZs+eLeXA0fzefvttClROgZ0vvvjiJ598UnTkL9sJ+L388suffvqpLuwELLPG7lCWu+WHlAOWL3kfeeSRq6++Gk9WDjds2IDBb7311qmnnvrss8+yKqVVSNzTTdFTCOwumDdvHm7dihUr4EE9BQuTzmHXrl35izsJnsuWLVMFBKAjF1sUYHDFE0soDRpSB5lcQseACcW7JcCA48ePh68PPfRQDdqi/Oabb2p2KJ5FPMj6uOOOYxyS7PHbAzUzkFBar169PMMDiQsXLuRSQWD4V0ukav2rFyHZWRNes2YNgDCKAAUBDVUTobCwsHv37ixIUulBBx2kjfWo2WFSEbAQR8LghYAgGikOAX/5sMMOgw7OOOMMbgwc5xdeeIE1dJbjLrnkEtTgpptuuslTPes/sPNFF10EueBIDh06FAXo4J577lFNChd2PvPMM/GjYRMc8+uuu45bCPp78MEHVVOEiGWGtNxTSJjDiOWTF8/08ssvx7xu3bq98cYbBDcnTZokLjDN/Nvf/uaWz6AFO3i2H6jCzjvvLLIOY57DPn36kALhCjvDMtDxOeecw0iw2267iTJDiwj6V0gN7ttpp53YHQHL4zsLO+OxHnnkkaBNh+Kek4WqhSvd7GQksAtxi+uN70lfq0L89nAtybDB5EyLFQFgP/74Y2SoVvHx6HCoBA07Yxu9wAXJxTNq1KhPPvnET+tctOQiaKMZ/WVaSlIRMA86YfAyJdRoXd++fffee2+Kvv7663HQmCoSHNx1111J4aInNAEBPfzww5DpzTffzP3vGnHVVVfdd999knLKKacwoeZeIuKhOnjfyJRPhEH8GhjhrrvuggTff//9kLtcw5cZ0nKtLogQvnxKuOKKK3AhcX7hZeEvttwyRLGvi/kBxl944YXEc6Qu5DCVQpGUwKDFROTAAw9UX1L4Go9VNp9BrxRCjXCr6LDPF0+QOQpMB+n4qyD0wcZhTYe5kEH4hBNOILIhpTVr1gyzkaldfXAOoUWoGYF2kU4f4fDq9UB6/PbAp5TDj0aJoH+hVziaOUf4WIRu4QAQrkOInmmHXDCMWGR3m0/hQtAIVK1TAa3UhBQgYASdXJBfe+01KjjrrLOEnbUyHF4IGu4mbM39r+kIV155pR7CDnAKBM1sVBOhdciI2b2ws6RDB/KUgWdSL2cjlqmFxyaELx9qlgEGJ1rYWWrBfkLzEDTBWRSUoCPagI8sQWEiCbjk6HMI1yCI+4wwZMgQUhgalcFJhMXEMQ9J0Ayr6MgPXxUeR8YqYWdJh7NYFaBMD2G5296JQaMGqbkEHac91K42ewgabhV3/pBDDvEM9mKz/pUANBMUphQaxcZOpmu4z+zPAz23sVqRZNRyTEgZAkbQSYSaN9UyhaQCHBwPC2utHocXQmFKrmcRhNFgFk3EWeMH6xFFwSEl8sgtikB4FB3/JoQgZWrhMQgRyyfWjLWUjMPrKR9OxCdloPLHHDya7iGkCaFTJm6pELS4z/AmcQbRxD3kRxcQmIZq4Up+QuIoEHt1C0SGVd33oikbumFuyeLfQcFIo1wmOgR2IT5ptaTEaQ+FyDVAG1076XQZ/LgkXI9eKvX85SJkLISL3fg+0WdGFzbngQnjnEvQ1AUsXFGKhqdAO0w2AkbQSUQYYpLS4Qh+IWtiKclNh465K9wUgiHuITI3zL333nvHHXcII8tZ1CBK4p4eZQ6DlOnPFTwlYvls1ZLSdthhB3+xEMQPP/zAXhT/qbpSYA3CMpAyJcM4tJ2AA8owFCBILlxgVj5Z46qrEE+6y1mckmgvQnifVAqhUk+veQqXAuOxR0rgL9tX3LpYsZRhoGnTpsS4pF6dRTF40y6cZX3mkAmEzCFEU/4ScJfd0+5ETU4JQSsabi6TU4CAEXQSQZYFJSpgOweR0JA1edwxN2oRUp/Ea6+99v7770eAmCiW0CfPfbGfj3SW+/y5gpTpzxU8JWL5uqkr5GNpsgClM+6A9TIZh6DhJmb3zNllZMKL1OwE/QmAyCFjAGMDvjCWfPTRR9C6qqngaYXycsgxT3MFF+K0h4rgSv56lvL0eyJMp/zGfP311yQycVGCFjbXvUOSRSnbAwI+tbjtUrW/fEtJNgJFdBjhS37UhDPiDs5B6q6vvEFsq3cdSAF/h+khTH3yySe79gA7W7iYnssM3T0VXiYa8MADD6DD4iHbxXQZhxRZhvLcwOFLS83Z3r17S0VsijjiiCPcSgkBycqV6rhnw8gE3CU2gu8sdAPUyvKgJOyMDjsr8C61KIly+EMcqiACGUXwO5XAjs3ENPwbsT2F6GH89lAUDeSvx5kl3OEPapEiRIxrL1MrMtJwdmFyebCVhYUNtQ1BB07iMG467C+Xk1TtnkofWVoa0J764quY6y2SGKhcr57xM2Cb6ytvQPNSqcbNINXJogp4Et0jRPj444+zKuhe/exbuPHGG1Fmz9y5554b3Ejm7AL46aef7rIzIRTZyxzV9ar1eizX9IQIkAiBdVzdv//977/73e/UX6Pwf/7zn1KFboALWCPY4kTzIDLFynWL+6zuhQZ/mLy77MzcX8hIPJIwdUH69BfsjJ/O3gZ1IaFaccB1ehSmED0Vvz0UJaFnep+rSxvFVmutRQUGQoZ/DnkISDUZckAewiXytu+++2osiAL1qRZPwF1D9jqf0CrSR/Cs4kQ0rL74KrZ6C7if+dFt/ESO9m8y8kZEOT0VlIJffPFFmJTr+9Zbb8VUAs0nnXSSXElMU9i3wEOGpHM/nHbaaVG1hdir6LN9WG97NoSxyVdmu7EtuPstj8qqiMqCA94uu8LVbMatu+++m7yA476u8/XXX2f3C9HV8MVqQEMufT0kly7ZQabqHiLzqKGUSS9IrjBVyPM+aLLZnK5En3U/IT5yBd9zkih7dDxmKS+M2XWdYhiTi4eoBXuH5DphesfWTIGIMdJdIaQcRiMpzUPcdVVRL+npwFdBbIiNJ4uYWnLlyb3NEC3OSHCgk5a35ompjPsR4hS3i51w/B566KHf1/7YUcdGDm5pnD5Ww9hOQNNwyni2Wx2ZgI0lmAid8awHm6KojueJ6TtkXELxUpl981BZtJGTkJYHNCmIGs+JwLn8IN93332XvRY4sxJ9Zo0RoNxCZOHUEyd1FUTGNySIJKuLMIjr0kLQxJ3hUwiIkQwHkNtDQgF4kcLO1BKed6AzYARMNBlxmWRQiFTNaiRd6TeprpSE2ANBi/FAxwM1ddUVJp21CsgdOgYZNtFzBWp4hOsKt9qTVy5UOgIwPafS5zCq4FjS+CoCHjHX+6sNAxEqsdOREGDFHK5R30q2EJDCM4SERxlm2dEsFz3P4+LNuSuHMj3XSbpW5U9/6qmneIUF6RANbibzU65RnhpXlxMGlOz+vHWlh7RcbahLCF4+JUCUjz32GHQsj9jBzhDEH/7wB+bj6htKReIlSOF1VS3pypIqqD7Bbu0IfEaYiDk+jwLKK49Rg6REWSrSII+WgBm8MgXawk4ShZ1hKx4ROvzww10j/ab6kYnfHsqUp9iJ6nDDq51+QdviMQx+J27O6oUoCDvTIlJYI/H7CrINiUq1QH9dlpJUBPLpaX7p5kEPG7ltKkrj3x4xJKkQJKNw1r5waVnIcu8QKAmC5n6AODyUFIMNlEZ4lHtsjz32cJ3HGIpys4S03FWIX2b5jn11IACrgkb8BYYpAWomokJf4CF6NtKFyeU/xWSfcvDECQLEY3Oc9uA7y3OMfOtEV0T91kZMYbAhaEOUA9eeX8h5M1cCsTiK4nFWz1M5EctPtkLM/JCGXBceq+TeHuHrzuKz8lCfp4E8vMCzXp7EmA8pjV/M2evKiOU4aHfeeWddCprO2/g8z9ToqfACzBIPuYQv3HMWSuXnSYzhEO+bXwwZPVnitIdRjR80zXM98WCIR0wsjp/HPPdQ3kPCIJpu7OwamfWyEXTWd3HUDSQyc8MNN0TMxrJebAQdsWRTCINA//79CWERfCCUrLubw+jHdor5Gbs2CYn4A9OxFWi5YkPAYtCx4ZbNuYiM18a9IvxxA+jZDEeatQ3HGa+WvuHh/uSZJoUTbU/nHdDJa376lGwEnT59YZYYAoEQ4MlANlyxvcT/EE2g/JGU2AjEllBi0yweRtK188lFwEIcycXXSjcEEo4Au0p4OTVOdJI2V7C2wRtfWd/ml3DjrcCoEDCCjgouUzYE0gKBJFGztI1NHfHsVEkLgLLFCBshs6UnrR2GgCGQdQgYQWddl1qDDAFDIFsQMILOlp60dhgChkDWIWAEnXVdag0yBAyBbEHACDpbetLaYQgYAlmHgBF01nWpNcgQMASyBQEj6GzpSWuHIWAIZB0CRtBZ16XWIEPAEMgWBIrkhQvSHORo26VZVAhegmZRIXhe0zQEDAFDAASiYg9VViE4hppFhRTkLZI3QUuVfH4ieJWqWV951QATDAFDIGcREAYL3vz64qvY6rUQR/CeNU1DwBAwBFKKQBGvxYLaxXfm1YIhv60QxqL6yhvGJDtlCBgCuYOAfOw8YHvri69irrfIZWRk9zBgm0WtvvJGZaQpGwKGQJYhEBtl1RdfRVuvhTiy7HK15hgChkD2IGAEnT19aS0xBAyBLEPACDrLOtSaYwgYAtmDgBF09vSltcQQMASyDAH7okriO7SqqipDvxWUuZYnvhfTqUS+4b148eKGDRvyJfWU2cXGg9GjR69du/boo4/mI1j+etevX//tt9+y6rXffvvx/W9XYevWrXzV0E1RmU0XnTp14pAvH44ZM4YvHx577LEZer9oo5InGEEnGNvPPvvssssue/rpp/faa68EF53k4jLX8iQDU//FL1q0aMaMGSkm6FmzZlFvu3btWrdu7YeAsfzDDz9cvnw5p/bcc08PQS9dunTcuHH+XKR06NDhxBNPRID0adGSJUu++uqrAQMGhFS2RAtxJPIa+P777w8++GDcCryPRJab/LIy1/LkY5OLNZSXl3/55Ze0fP/99w+5j+2bb74Rdg6JDt5xyHQStTSEAw44gBQIevXq1XXp53i6edCJvADKysoyjpql/ZlreSL7z8rajgCkycNrXbp06dy58/a0X/67cuXKKVOm/HLsk1atWkVaixYthg0b5jnpfo6WwvnhRE+ePPmoo47yaNohCJgHbZeBIZAYBBibS0tLt2zZEnGQrqysZEQMWSu0yNmQpzSR8lGLWEvM9khwmep23313rVSFiooKwheEODTFLwhBEx7h4WTPr7i42NXfZZddOJw/fz7BbjfdZEHAPOiEXQkjRoz44IMPpDjC0K1atRo5cqSs6rBgcvvtt0+dOnXatGkdO3YcNGgQCy9nn322W/fzzz//3HPPDR48+IILLrjllls+//zz6dOn9+zZc+DAgbfddhvXuqvMvffOO+88+uijhCZZPmKNpX379kRXrrnmGgKCqhmwzDCWa1EhhYDlS96ANj/yyCNvvvnm8ccff9hhh911113jx49fsWIFIJx88sm//e1vYQcS33//fSbgRDMPOuggDmXRSS0MgjbKr7zyCixDIWCueVUYO3Ys827IBUs0UQQ51bJlS3H6iAbQCzNnzoTXhLaYvNNfLEL06NFD806cOHHBggWkEK4lCAZBUzUBBP6iM2fOnLlz5xI0gN85xPfs168f5OVZPSN0MGHCBBxYKoXp6HRK8KzgxW8P7jMNadSoER602q8CBqxbt45WQN9oaroKNGHjxo0cei5aVXCFHXfcsaSkhEXF7777jgvYPWUyCBhBJ+wy4MLlJ8WJcOmll3LIUvh5550nPgWH3If8nnnmmZdeeunVV1/VGR93OJrcgU888cTs2bOlHDia39tvv02BerfDdBdffPGTTz4pOvKXhX5+L7/88qeffqpLLgHLrLE7lOVu+SHlgOWTN7jN3KjgsGbNmr/+9a8wkdT7Xu0PSmJYglglEbeLH5YDkS5SBUSbEiTuyTqVlOb5y+6CefPm4dYxPMCDehYWJp3Drl278pcBgxqXLVumCgg0llxsUYDBtdc2bNhAabROHWRyCR3TZVC8WwIMyMgEXx966KEatEWZoUuzQ/Es4gHRcccd17ZtW8kevz1QMwMJpfXq1cszPJC4cOFC0EbAyVBLpGr9q5c62Vl5pisBhFEEKAhoqJoIhYWF3bt3Z0GSShlutbEetZw9tBBHwroe1+/ZZ5+V4hDwl/EBuVHPOOMMLlkc5xdeeIHVbZbjLrnkEtTeeuutm266yVM9jiHsfNFFF3Hbw0RDhw5FgRv1nnvuUU0KF3Y+88wzISzucxzz6667joubKfaDDz6omiJELDOk5Z5CwhxGLJ+80doM7UJSzCQo/F//+tcOO+xAIcwtwIRdWR9//DH0BzGRiO+plB0V2gyNsIMyu6eBO++8s6ToYOk57NOnDykQrrAzLAMdn3POOaeeeupuu+0mygxgIuhfITW4b6eddmJ3BCyP/cLOeKxHHnkkfcplg3tOFqoWrnSzk5HALsQtrje+J1eUKsRvDxjKsMEUUIsVgasL5JGhWsXHo8OhEjTsjG2EmLnsuURHjRr1ySef+GmdW4NcBG00o7/MnE0xDzphXc9kTeNoffv23XvvvSn6+uuvx3ViEkfYbtdddyWFy5HQBNTw8MMPQ6Y333wzd6ZrxFVXXXXfffdJyimnnMJUl6uciIfq4H0jUz4RBvE4uFeZ6TNxZu4fcv9p+DJDWq7VBRHCl08JMdh86623/td//Rd5CRPh58qoxoye+1xaTTpzcG5s5UFiSsHRvvDCC8M0DYoEVYZGpjsHHnig+pLC13issvkMeqUQ3G24VXTY54snyEwIpsM2fxWEPtg4rOkwFzItOuGEE4hsSGnNmjVj/EamdvXBOYQWoWYEojqkgyoOr151pMdvD3xKOfxolAj6F3qFo+mL8LEI3cIBIFztED3TDrks6Smyu82ncCFoBKrWqYBWmuOCEXRyL4DXXnuNCs466yxhZ60MhxeChk0IW3NnajrClVdeqYfct9ztEDTzRE2E1qEJ5t3CU5LOjSqhWM90W85GLFMLj02IWH60NtO03//+92qM+qQkaqu587t168Y9D42KZgxoaxV+AR+ZknEniSRQEQocwjUI4j4jDBkyhBQGYGVwEmExccxDEjSDNzryo3B4HJnFBmFnSYezCLtTpoew3M31BHxQg9Rcgo7THmpXmz0EDc7izh9yyCEel0Js1r8SgGaCwpRCo9jYyaQQ95n9eaDnNlYrkoxajgkgYASdxMuAbz0wuaMCXA8PC2utHoeXW53Jsp5FkJks97wm4kbxI9pIFGXSpEnEBLl5EIgJoOPfHhCkTC08BiFI+dHazPpS06ZN1Rh95y9EpokIeJp6GAPamjekQF1MXMAZt1QIWtxneJM4g2RhkOBH1QSmoVq4kp+QOArEXj0lw6raFk4pG7phbsni30HByKRcJjoEdiGW3eVXAABAAElEQVQ+LNRa4rSHcuRKo42unVxaMoejH12PXut1BS51FirhYje+T/SZ0YXNeWDCOOcSNHUBC9etouGWluOyfZMwiRcAq3ZSOncvv5A16TqYnIWOuV5dTYIh7iEyl/K99957xx13CCPLWdQgSiKSHmUOg5TpzxU8JUj5Mdgc0gCXNTwKMaDtKcFzCGsQ/IGUWYqEcUCYgAM6MBRQizIuMOFy1rg8ees6dDkLHYn2IoT3SaU0KvVcG/5a4rRHTWL7ilsXK5YyDDBqEkmTenWuhotAu3CW9ZlDJhAyh3AtJOAuu6fd6aAoCEErGm6uiLJ/FAyTRZVVCKPsOaVZVPAohDnULCqEUXZP2TcJXTQSLMtSD4WynYMYZcjSPY6Szt9DKkvitddee//99yNDGRRLUJInsgjIks5ynz9jkDL9uYKnBCk/Wpt1c0twM2JAO2LhTMYhaLiJ2T0myfiHF6kZWVogACKHOIksZuIL4/5/9NFH0LqqqeDBSnk55MiquYILcdpDRXAlfz1LefrdPyZtfmO+/vprEonUK0ELm3s6USnbAwKcJW67VO0vP3yK2hZeTc8KRcbmrac+r4U4tOMSL3C74olwKcAdbON1K+AKZnMVE2eZO7unwsuErR944AF0WDxkJ4MusJAiC0SeWyt8aak5mxqbk4E2YX2iKNiP7yx0Q4dqXJV0YWd02FnhxmQkyhHRXdIQjd+ppHNZbSOm4d+IXVevxW8PJdNA/nqcWSYu/tAZKULEuPYygSMjDWevJxchywYsn7im6vPcxGHcdBhWLlqp2j1lsn2TMJHXAJepFCfLHXgKxN0I3j3++OOsCrrXJZsubrzxRpTZf3buuecGN4LZtNz2p59+usvOhFBkL7PcM8ELFE2P5dFmD6+fJJs9lSYDbcrEieZBZDxoZGrEfda5v4aYmLy77MzcX8iIlVuPkZ5DSJ+rAnbGT2dvg7qQUK044Dot8GQMeRi/PRQrQSSuMa5hbZTsaPRUyu5AnAwShw8frpoMOXjKEC4Rp3333VdjQRSoT7V4Au4astf5hKei8Idhol7+jJghvjODgXSoX6eulHrJW4CVaqjI0f6V9kSbS/TrylsXRmmerhT84osvwkpceewVw2YCzSeddJKsBxLN5METNoSRzpV62mmnRdUooqKiz+ZfvSHZqsX2W5nrxbYU7rc8KqvCKyfJZn+lUaH9+uuvs+uD6Kq/HDdFAxrcn6TrIbIu2UGm6h4i86ihlEBfSy63QI8sTxWhyZZ2Lhj0WfcT4kPTsyjqyes5TIg9Ourr3hhPLeEPua+lu4lasENJrkY4kQ2gAhGetbtCSGmMRlKmh7jDV6Rno2UeyRhtrvB8FaS02Oq1EId2dAIEgo/iELGrjN9DDz3EtjB+7KhjIwc3G+4YT2az0E9luEs8260uRsDqCfPB9W+88QbblaiOfcHwMjLOGts/cPSYF/O4V7SRk5CWBzQpolqSbPbXSzg+ONqyPOuJk/rLxDckeEKvcQoGcV1aCJG4M3wKATFe4gDiOUooAC9S2JlawvMOdEZn0WVoMq4zlZH5PtWxGskF4zeprpSE2ANBi/HMA3igpq66wqSzIgK5Q8cgw1Z9rnMNj3Al4FZ78srtQEcApueUHf5qw4DBEScCrGVDyur1yOI+KTxDSOCS4AM7muVy5ElZ/Cx35VAmzjp9Vkv86U899dT5559POhSAA8jMsXfv3jw1rs7gu+++K9n9eetKD2m52lCXELz8OG2WijBDhboaEhBtsuP1+AuUYj1/lSVVUIUjjjhCuxufESZijs+jgPLKY9QgKVEWyzWUpCVgBi9mgbYkviHsDFvxINLhhx/uGulpOyVIipsevz2UJk+xM9iHd/+1La4BWAW/EzdnjUQUhJ1pESmsxPg9Etl+Q6VaoIJjQj59wE9mx0Rz5IIIjkuS8g4buW2SiCVvjxgS3J400WT7szw54l67PMkKQXOlckvrRDJmgymNwCVX/x577OG6dTEXKBlDWh5nmZo9STZr+a6QWLTdkv0y1Ey4iR7HQ/RspPMrh0lhsk85eOIEAbhOwmiGPxWnPfjO8hwjT9Xrimj4GkOeZbAhaEOUA9eeX0hu4Xoj4kd2Hpr1PJUTskxJjJkfksRXYUyVUzHXG/tFENGmXFbwvF9NoOCxAp7CShQslMYvUaVpOViO63TnnXdqSl0Cb+PzPFNTl6amJ8lmLd8VqCuBaLsl+2UolZ8/PdoUvG9+0eby68dpD94DP2iaB6DiIWg8YiJ+/PwWaoq8h4SpSXB21ry5IBhB50IvR9dGIjM33HBDxDzsvI6WoCOWaQppgkD//v0JlBF8IJTMtCBJVjHLYW8oIRF/YDpJNWZcsRaDzrguS7rBRMaZkUX8uQH0pNtkFaQWARxnvFquAV4hkLyapXCi7bYDui6QjaDrQsbSDYGcRoAnA1mUYnuJ/yGahODCdiM2nhKbZvEwIQVmZSEW4sjKbrVGGQLxIsCuEl5OjROdpM0VLBLwxldW0fnFa2v25jeCzt6+tZYZAvEhkCRqFqPY1BHPTpX4WpYxuW3sypiuMkMNAUMg1xAwgs61Hrf2GgKGQMYgYASdMV1lhhoChkCuIWAEnWs9bu01BAyBjEHACDpjusoMNQQMgVxDwAg613rc2msIGAIZg4B9kzBjusoMNQQMAT8C7NT2J9aVosoq1KXpT9csKvh16krRLCrUpelJt28SegCxQ0PAEMgkBORNnMEtFoqU76oEzyWaqc9rIY5o+8j0DQFDwBBIEQL2TcIUAW3VGAKGQDIQyO5vEha5b9FGdg+jQrO+8kZlpCkbAoZAliEQG2XVF19FW6+FOLLscrXmGAKGQPYgYASdPX1pLTEEDIEsQ8AIOss61JpjCBgC2YOAEXT29KW1xBAwBLIMASPoLOtQa44hYAhkDwJG0NnTl9YSQ8AQyDIE7Isqie/QqqqqJH3F55NPPpk4cWKHDh3OP//8xNudSyXyverFixc3bNiQb5OnrN08hzZ69Oi1a9ceffTRfPDJX+/69eu//fZbdmLtt99+fOvaVdi6dStf8HNTVGYjcKdOnTjkK39jxozhK3/HHntskq5ArdSE1CBgBJ1gnD/77LPLLrvs6aef3muvvRJcdF7eG2+8cd999/Xt29cIOk5sFy1aNGPGjBQT9KxZs6i3Xbt2rVu39tvPuP7hhx8uX76cU3vuuaeHoJcuXTpu3Dh/LlIYsE888UQESJ8WLVmy5KuvvhowYEBIZUvMLAQsxJHI/vr+++8PPvhgnKBoX4mSSCOsrLREoLy8/Msvv8S0/fffP+SzFd98842wc0jz8Y5DppOopSEccMABpEDQq1evrkvf0jMIAfOgE9lZZWVlRs2JBDSLyoI0eUFPly5dOnfu7G/WypUrp0yZ4k/XlFWrViG3aNFi2LBhmiiC++lVCueHEz158uSjjjrKo2mHGYeAedAZ12U5ZDCjXWlp6ZYtWyIOe5WVlYyOIaGBFjkb8pQmUj5qEWuJ2R4JLlPd7rvvrpWqUFFRQfiCEIem+AUhaMIjjX2/4uJiV3+XXXbhcP78+QS73XSTMxEB86AT1msjRoz44IMPpDjC0K1atRo5ciRrUNzV77zzzqOPPkrQk4UpVm/at29PJOSaa64h1OhWj8Lf/va3SZMmLVy4EF+pW7duZ5555u9+97tmzZq5aq4M9Vx77bUEN0m84oorjjnmGPdsXfLzzz//3HPPDR48+IILLrjllls+//zz6dOn9+zZc+DAgbfddhss4Mk4Z84c0vEB586d27Zt2379+hEEHz58uEftlVdegWUIiVKy5xSHY8eOZd4NvRx//PGes3KqZcuW4vQRDQCKmTNnwmtCW0zesYqwfo8ePTQv66ULFiwghXAtYSUImqoJIPAXHWzGWoIG8DuH4InZkJdn9YzQwYQJE3BgqRSmo2sowbOCF789QEdDGjVqhAet9quAAevWraMV0Deamq4CTdi4cSOH/q5RHRV23HHHkpISFhW/++47LjNNNyETETCCTlivcZvxk+JEuPTSS2Hniy+++Mknn3SrYQsBv5dffvnTTz/VxZzx48cffvjhcIFoQhn8mPbCerhX8JpbgsiwM0QJ23IIjw8dOtSvEzIF7mM7Adz0xBNPzJ49W3TgaH5vv/02xrs8+Mgjj1x99dV4sqK2YcMGjH/rrbdOPfXUZ599llUprULinm6KnkJgd8G8efNw61asWAEP6ilYmHQOu3btyl/cSWxbtmyZKiAAI7nYogCDq21YQmnQkDrI5BI6Blgo3i0BBgRh+PrQQw/VoC3Kb775pmaH4lnEA/bjjjuOcUiyx28P1MxAQmm9evXyDA8kMhgDO8KgQYPUEqla/4r7zCHZWYVes2YNgDCKAAUBDVUTobCwsHv37ozZVHrQQQdpYz1qdpgRCFiII2HdBJFBWFIcwtSpUw877DAEYWd8YfxoGGTatGnXXXcdtw2U9+CDD2r1f/jDH2Bn7rfXX3+dW4v78MILL+QsfqKH3yULt/1vfvMbYec//vGPDz/8cLS3ImtWsPNFF10EITIMCL9DYffcc49ahWd6+eWXYyruPHtICG7i4IsLTBb8fdVEIBgKO3i2H6jCzjvvLLIOCZ7DPn36kALhCjvDMtDxOeecw0iw2267iTJDiwj6V0gN7ttpp53YHQHL4zsLO+OxHnnkkSBPR+Cek4WqhSvd7GQksAtxi+uN78liryrEbw9DiwwbTKq0WBEA9uOPP0aGahUfjw6HStBcFdhGL7Cpgwtp1KhR7Lz003rHjh3JRdBGM/rLtJSMQMA86IR1E1NLjfqxE27vvfem6GeeeYa/yDCpECgscNddd0F877//vu5s5QbmfkPzt7/97UknnYQAIRIeYd8V7pKH0TgLO0PfhCmQ//SnP91xxx0IMfyuuuoq9u1JxlNOOYUgAPc/EQ8tirAJLiTOL7ws/MWWW9xn9nXha9MQzCA2IvoyomhejwBFUgIDAJGHAw88UH1JaR0eq2w+g17JSI1wq+iwzxdPEH8fpoN0PMVySOiDjcOaLkiC9gknnEBkQ0ojTITZyNSuPjiH0CLUjEC7SKe/wFb7kfT47YFPKYcfjRJB/0KvcDRzjvCxCN3CASCQL0TPtEMuHkYssrvNp3AhaASq1qmAVmpCBiFg3yRMbmfhI0NAzOhd9xYKkCcLdCLPPQaDMA1/7LHHevfujYvKzUxI9IcffvA7pGQnbMJWa0y/+eab//rXv8bchiuvvFLzYiE8CEEzJEgi1CxkjRMt7CzpaN5+++0QNC4/CkrQWlRdAj6yBIWJJDACocYhXIMg7jPCkCFDSCGKqgxOIiwmOIQkaIZDdOTHUAePI2OVsLOkw1lE2CnTQ1judnUARw1Scwk6TnuoXW32EDTcKu78IYccgrMvdob8KwFoJihMKTSKjZ1MfXCf2Z8Hem5jtSLJGLLMrEkk2hO8LaqsQprntW8SBu+gWDRx0PjBdEQ8cEKJNnJbIsDFFOduPLjkkkvuvvtuVhGZ1ENGsAnPm+FN77rrrp6Kmb/LFJ50dDxngx9CgoQRXH1hYdhQEok1YzkyDq+rhgwnMqIQBfbHHDya7iGkCaFTJm6pELS4z/AmcQbRxD3kx4fmCExDtXAlPyFxFPz3FazqflND2dANc0vJ/h0UjDTKZaJDYBfik1YnxB4KETxpo2snF4AMflwerkcvlXr+MhVgLISL3fg+0TBGF1YpwIRxziVo6gIWri5Fw1NgNh1m9zcJLcSR3GuVm+Tee+8lBCGMLJURqJV1drdufFLm+GyWwOvhbiQ0ye+GG244+eSTcas9+wrIyE2IK802jK+//tq9b90yw8vQMYW4OhjmHrJVSw532GEHN11kCAIHnxHFf6quFFiDQBCkTMm0keoIOKAMQwGI5MIFZpVS9qXUVY6b7mm7RHtRCO+TSgkeP90tVuU47aEcMYllXhdtVixlGGjatCnxLqlOZ1QM5LQLZ1mfOWTM5qdWiUDAXXZP66RHFYSgFQ1NNyGzELBvEia3v9gDd//991MHZERQlXAnz3oRXCadRUW3biawf/7zn9kvwZ4zoqVEnyX6yZohtx+Hqozf969//Ys7kIA1FHnjjTe6y3qqFlGgnPA6uqkr5GNpsgClM+7wRelZJuMQNNzE7J4msyLHKbxIVWDLCgEQOWQMYGzAF8aSjz76CFpXNRU8rVBelpJVLWYhTnuol57ir2cpT/0+plZ+2xh0SWTiogQtbA5irrJStgcEfGpx26VqN0v2ye68JGLrQEZmFYyXHtDSM699kzBiv8SuQATggQceID+Lb2wR06UbUoR89abFF4awSGS/AQFofugQx2DZDXcSb4s5vk7GCXqw5YNL7YUXXoC4//73v7MlmZBI7IbWkZNouJzBkiOOOMLVYheBrFypjns2jEzwXWIj+M5CN9wqyvIgJuyMDjsr8C61KIly0GpNCSmQUdL9TiVdgM3AKPCGzO5JjN8eCpQtkh5nFlpxA1xSLylCxLj2Ms0inYazI5NLha0sLBK4FurASVDITYf95dKSqt1T2SdHy7OCALliy0j2VOb91YCcfZ2X4hZpiEAWZ5inC6GcfvrpLjsTXZWN0nI3YiS7cdlEgfDUU0+xeU7MhojPPvtsNFGDEJWg5cLiL6GPPfbYA4+ALKwUqfMo2eP/C4kQpGbkYAxgn7X6a5T8z3/+U8rXDXABq8NsnGgeRKZYaQjus879NRDE5N1lZ+b+QkaMZOErgvRhK9gZP529DepCQrXigMt+u/CF6Nn47aEocfG4ErgqtFFstdZaVGAgZAc3h4y4qsmQA/IQLksC++67r8aCKFCfavEE3DVkn/BLQk01ITUI/CoEmZoqs7gWdWRefPFF2FkDx2wZ1ludTWBs7JUZri6yszovsVR2FkNeQuuELwhlABec4gYBFEA2//IcIIeQEYEOTU+gcOutt1Ia3u4ZZ5yhTXj88cdZzySdNUz3dZ1EY1577TX8/fAGaFukmXpILh2EIFN1D5EJ+0iZRK4lV5gq5NkfNNl4DlWhz7qfEB+5gu85SZQ9OjazlBfG7LpOMYwRuOcsUQseVZVrhlGZbZoCEWOku0KIJqORlOYh7rqqsPS0RcA86ER2DaFScd/YXcfvoYcegsJ4vgP3llM8QwwvI+MGimfKjJsHydjPgJPF8iAPf0OFeEncVzhKukv6H//4hzibflt5ROWll15iWwg6+OCeKbBfP9oUtpTAufwg33fffZe9FjizEn1mjZEGugXyDB6HnjipqyAyviGRZVldpKWuSwtBE3eGTyEgRjUcQDxHCQXgRQo7U0t43oHOgBRg0WSkZFoj831qZzVS9/P5DfOnJMQeCFqMBzrGVH8tEVNYt4DcoWOQYUM90wINjxCk5oLxlMC+F1LoCMD0nLLDzELAPOhE9hdeMJylPhpONCELnsZmCg+54FoyJyVo++qrr6qbCeuJBSwP8r4OGIRDtpcJO0OI/+///T99+7OEAjQggCbsw+Pa3LGQPpujpaiIf/3lSJaQ6RAlsRToWB6xg52pjiA483H1DSW7jCKueXVZoiypgmoS7FYA8RlhIub4hObllceoQVKiLBVpWElLwAx2H0Jb2EmisDNsxeNCPEzvGuk31Y9A/PZQpjzFTlQnvPuvbfEYBr8TN2clQxSEnWkRKWzy0aCHIkAwBJlKtUA9ZUJmIZDPFcNPZtz4cXV5anW1Kkl5h43cNqWl3rdHDKmr9rRNJ2QMY7IgJncapEYUgvuKkLHrMPrtJxfUjPeHAE+xehZtj/jLTFQKy3dEXSBlWDWimxxnpVAzERVAwEP0bKSLqmQm+5SDJ04QIB6b47QH31meY+RbJ7oiGlVDRJnBhqANUQ5ce34hrw2uPZ4hQp8ZleepnBhqTM8sMfNDkvgqIkox12shjojYxqIgDwpqToLRGo/WxJAChE70g1/Is+ETcdDk1Rzh1Vh4jK18mCUecglvlecslMrPkxjDId43vxgyerLEaQ+jGj9omud64sEQj5gYGj+Pee4hMxsOGUSzlZ3dxma9bASdPV1MRIUHWyK2h2W92Ag6YsmmEAaB/v37E84i+EAoWXc3h9GP7RRzNTZrEhLxB6ZjK9By1S8CFoOuX/wTWTsPwjCTivhDLZG1WlnBEMBxxquld1jRDZYjFi0pnGh7LuyAjgWgTMtjBJ1pPWb2ZiwCPBnIMg8LDP6HaBLSJjYFsYBBbJrFw4QUaIXUOwIW4qj3LjADcgUBdpXwcmqc6CRtrmCdg0dPWcbglyuYZns7jaCzvYetfemEQJKoWZrIpo54dqqkE05myzYEbKS1S8EQMAQMgTRFwAg6TTvGzDIEDAFDwAjargFDwBAwBNIUASPoNO0YM8sQMAQMgSIeHmVZmWdqwQI55MOjYWCqr7xhTLJThoAhkDsIyLtWAra3vvgq5nqL5M1k5KeFnneKB29zveQNaJ6pGQKGQBYjIAwWvIGZxXUW4gjes6ZpCBgChkBKEShicztDSmZ9pyulCFllhoAhkMYIBHwNmbQg47iuiJ3zGC2PHiHHEIOul7xpfMGYaYaAIZA6BKJ69ifjuM5CHKm7kqwmQ8AQMASiQsAIOiq4TNkQMAQMgdQhYASdOqytJkPAEDAEokLACDoquEzZEDAEDIHUIWAEnTqsrSZDwBAwBKJCwAg6KrhM2RAwBAyB1CFgBJ06rK0mQ8AQMASiQsAIOiq4TNkQMAQMgdQhYF9USR3W6VYTb8iybyNF1Sl8k3vx4sUNGzbky+hRZYxHmWcrRo8evXbt2qOPPjrkU3Pr16//9ttvecRsv/3243vebl1bt27lK4Vuisp8HbFTp04c8iXDMWPG8CXDY4891q4HxSdNBCPoNOmIVJvx2WefXXbZZU8//fRee+2V6roztr5FixbNmDEjxQQ9a9Ys6m3Xrl3r1q39yDHKfvjhh8uXL+fUnnvu6SHopUuXjhs3zp+LlA4dOpx44okIkD4tWrJkyVdffTVgwICQypZYXwhYiKO+kK/Per///vuDDz4YtwvvrD7tsLojIVBeXv7ll1+itf/++4d8DcM333wj7ByyJLzjkOkkamkIBxxwACkQ9OrVq+vSt/R6QcA86HqBvZ4rLSsrM2qu5z4IVj2kyYvMunTp0rlzZ3+OlStXTpkyxZ+uKfIqzhYtWgwbNkwTRXA/L0vh/HCiJ0+efNRRR3k07bAeETAPuh7Bt6qTggBjT2lpKS83jzgI8a53xqqQRkCLEd8ET/moRawlZnskuIx5u+++u9/IiooKwhfyqQ3/WUkRgiY80tj3Ky4udnPtsssuHM6fP59gt5tucv0iYB50gvHnbnznnXceffRRgpUsKLHq0r59e+IJ11xzDSFCT2Xvvffe448/jtvC1HLfffc9++yziQj/5S9/admy5fPPP+8qs9Rz++23T506ddq0aR07dhw0aBBLRui7OmR57rnnBg8efMEFF9xyyy2ff/759OnTe/bsOXDgwNtuu427VJRHjBjxwQcfiEwYulWrViNHjgyy6hWwfDVpzpw51IsPOHfu3LZt2/br1+/8888fPny4KojwyiuvwDKERLHcc4rDsWPHAg70cvzxx3vOyimwEqePaACYz5w5E14T2mLyTquBtEePHpp34sSJCxYsIIVwLUEeCJqqCSDwFx1sxlqCBvLxCnxPzIa8PKtnhA4mTJiAA0ulMB1dTAmeFbz47QE6GtKoUSM8aLVfBQxYt24drYC+0dR0FWjCxo0bOdSu11N+YccddywpKWFR8bvvvuNy9StYSr0gYASdSNhh54svvvjJJ590C2Xpn9/LL7/86aefuoswd9xxx4033qgeEN4Qv759+xIg9iwHsYh/3nnn6ZcjYBB+zzzzzEsvvfTqq6/qXBVuQhPueOKJJ2bPni02wNH83n77be5n4SkEfnJWhEsvvdQ1uC45YPmS/ZFHHrn66qvxZOVww4YNgPDWW2+deuqpzz77LKtSWovEPd0UPYXA7oJ58+bh1q1YsQIe1FOwMOkcdu3alb+4k7R92bJlqoBAd5CLLQowuHI0llAaNKQOMrmEjukgKN4tAQYcP348fH3ooYdq0BblN998U7ND8SziQdbHHXcc45Bkj98eLgwGEkrr1auXZ3ggceHChXQrAkO1WiJV61+9YMjOmvCaNWsAhFEEKAhoqJoIvLSze/fuLEhS6UEHHaSN9ajZYYoRKKDP+EmtIkf7Nxl5U4xCoqqDeoSdzzzzTPxo7nwc3uuuu47LHap68MEHtSJu+z//+c/chPh3n3zyCb72iy++yM0DO6uOCFDMGWecwc2G4/zCCy+wLo/OJZdcwln47qabbvLos6YEO1900UUQFs7p0KFDUYBi7rnnHtGEOrFTZAS88sMOO8xTSJjDiOWTF8/08ssvp8ndunV74403CG5OmjRJXGBM+tvf/uaWzwADO3i2H6jCzjvvLLIOOZ7DPn36kALhCjvDMtDxOeecw0iw2267iTJDiwj6V0gN7ttpp50YDmF5fGdhZzzWI488kh4EFtxzslC1cKWbnYwEdiFucb3xPd2+i98e+l2GDaY4Wq8IAPvxxx8jQ7WKj0eHQyVo2Bnb6AUuHi7IUaNGccn5aZ0LjFwEbTSjv8w0TEkHvgpig0AXRNPVKdq0aRM5SeIvfRNDB9RX3hhMTXYWvFqq2HvvvYkGiA/C3XvXXXdBWO+//767IxXfGU0cGby2pk2bIsPCu+66K3nVpxZriT/g9DH9xL9GgURuJEIokNrDDz8M6d98881wiijL36uuuuq+++4T+ZRTTmGSzv1JxENSmMxqnBGHnRrdvEHk8OVTwhVXXIELifMLLwt/seWW4YR9XfjyAHLhhRcSe5G6kMNUCkVSAgMMk4YDDzxQfUnhazxWmW1ArxRCjXCr6LDPF0+Q+QRMF/LCZmhk47BWDXMh02snnHACkQ0prVmzZpiNTO3qg3MILULNCLSLdPqdXlNUSY/fHviUcvjRKBH0L/QKRzPnCB+L0C0cAMI1A9Ez7ZCLkBGL7G7zKVwIGoGqdSqglaatIAwW3Lz64qvY6rUQR/CejawJXUIczMTdGSK3rjwRoBNwIoPcYxRHEEDYWYreY489CNESDHFreu211zg866yzhJ31FI45BA13E1CGUzQd4corr9RDLIGnIGhmuJoYpxC+fKhZBgOcaGFnqQ5LCKND0ARnUVCCjmgMPrIEhYkk4JKjzyFcgyDuM8KQIUNIYRhTBicRFhPHPCRBMzihIz98VXgcGauEnSUdziKCT5kewoLct+XMyyMGjRqk5hJ0nPZQuNrsIWi4Vdz5Qw45xDMwq0kiSACaCQpTCo1iYydTK9xn9ueBnttYrUgyekqzw3pBoAhHA2qXq4GlGJdZghhUX3mD2JZ6HRwrfjAUcQOcR6KE3E4IhDIxRjcMiHtFCguDHiNJcQka74BpKToQuoeFNaPrmJMISTHN17MIwpKwlZsYsxyxfGLNIED5OLyeWuBEfFIGFX/MwaPpHkKaEDplgpsQtLjP8CZxBtHEPeQHXASmoVq4kp+QOArivLhlwqpc+ZqibOiGueWsfwcF94hymegQm4L4pNWSEqc9FCL9RRtdO7mQZPDjMnM9eqnU85cLhrEQLnbj+0zaGF3YnAcmjHMuQVMXsHCVKhqeAtPz0MUnooX1xVcx11vkMjKyexixta5CfeV1bah3mYv73nvvZfVPGFnsIRYBqRGjVPPwBEX2L6+7Lic6kJ1owjv8tARXYHnKPaQE7jQ3BQPcwzjliOWzVUuq2GGHHfx1QRA//PADMXf/qbpSYA3CMpAyJcM4NIeAA8owFMBKLlxgFjxZ46qrEE+6y1mckmgvQnifVAqhUg/CnsKlwHjskRL4i8/k1sXShQwDTLyIm0m9OjPDIaBdOMu6yMwEQuYQoil/CbjL7mn/pEoIWtFwc6WtHBtl1RdfRVuvhTgSeeFde+21999/PyVCIgRDCVPyjBY72EhnaU5r0jV0XBhdyJKzpKgagixSIbDRggLdUyp7XLzYrlctLaIQsXwddUI+liYLUDrjjlidKDAZh6DhJmb3zNlltMOL1OwE6HXYA17GBnxhLPnoo4+gdVVTwdMK5WV3HFXlGIQ47aFGuJK/nqU8jbcyRfNb9fXXX5PIxEUJWthc9/lIFqVsDwh4eeK2S9X+8i0l9QgYQScMc2buDzzwAMWxKMfWLl1yIUViGnqz9e7dW2rljvLsoGD13zUIosGHYsoJU5988snuKe49FhiZ8sus3z1Vv7K2jk0RRxxxhGsM4RpZuVId92wYmSC+xEbwnYVugEVZHuSFndFhZ4Ub1pcoB9QTpnBOkVEU/E4lXYnNxDT8G7HrKjN+eyiZBvLX48wynddAmdZOihAxrr1M1zhFw4mVccnhAbAIocoIOnASh3HTYX+5RKVq95TJ9YXAr+bC9WVEdtTL/FqI4PTTT3fZmdCEbDeWu4jGQgcsPSEQD3FDw5TARjoXDXwcWY/ieRYPd7AX4vDDDycIy25oN0sQWYMeyVgOgkQkCP73v/+diIRrzz//+U859MwbXJ2QMjjIeiAetIR6cJ917q8BJSbvLjsz9xcy8myM8VcB6Qtb4ae7DAjV4oCDktblz+tPid8eypTQKleU20dstT7X99NYPyvMnJSJBdeYeMpEydxpAQXqUy2egLuG7HU+4W+apaQYASPohAFOnFTKYquv3qJs3mJDrsxM3TvtzjvvRBm/j51SbFMlssFuDbxpJXE169Zbb0Um0HzSSSfJeiCsx14Itt+Rzj122mmnqXJAQV0nNl8zKuidGTB7RDWxGW+XvYMKBWPM3XffTV4a4j64+Prrr9N2oqvhi9WAhoyCekguXbKDTNU9ROZRQykTxCRXmCrkGSI02cAOIOiz7sccRbIE33OSKHt0jPdEvcI0wT3FkCYXJB4A+3zk2mMqxnZPgYgx0l0hJC+jkZTgIW63WJNTjICFOBIGOIE/qIfnMtjARPSTZ3/hZWTcNzxKXD9myjwAJhEJZp3sOWM3NMs17gwUTw199XAxjkD273//e3bUsZEDmsCRZIWNLQqcIlbIs926UBa8JZgHR+OSsy+Q30MPPUQVwbNH1OQ5ETiXH+T77rvv4ubjzEr0mTVGqnNLkEVOT5zUVRAZ15iAj6wuwiAanecsBE3cGT6FgBgdcQCZqosjjBcp7Ewt4XkHOqNr6CA0GbfoAg1JsRop/rvfqpApCbEHghbjgY4HakJWFD6R9Q/IHToGGTbmc7Xo5IBr1b+DSC4qOkLXSMKXb2dTgIB50IkE+amnnuJ1E5AspIBLyFySYCtPY6t7CFtpfddffz3v4iCyTCwV9oGIeTuzEKW6hKIMoxH6QA3/mh3NciPxjC8eortyKNNw/2Tcn85aP2WqVxhw84O/HDEvZDpE+dhjj0HHzK+xGXaGIP7whz8QmFbfULLLUpXfbAVKBWVJFfQUwW5tDj4jTMQcnxmJvPIYNUhKlKUidwiUdMzg9SbQFnaSIuwMW/EgD6Ek10i/qX4E4reHMuUpdob28O6/tsVjGPxO3JwVEVEQdqZFpHDV+cd12TJEpVqgIGN/6xGBfPqen8zBCXvJhRjcoCTlHTZy2+QUS94eMSS4PemgCRlJKJMHT1xHz7WNrWY8++B5vQ4KxK9Z24Em2D3t6otMyZAd9xhk5KE5v3KQFFbt5Dkaz70dJG9AHcI4NBZrYVUsD5grNjWomYgKLcJD9Gyki6pAJvuUgydOECAem+O0B99ZnmPkWye6IhpVQ0SZwYagDVEOBn5+Ie9xrgTiZujz6KnnqZwYakx2lpj5IUl8FbG9Mdeb3Bsmot1ZqQDt+pnX01KeDMS/JkTLbFpP4cLIDemGaPUsAsXy/JibEqfM7ggcNAmIhy+KN+d5nn8Jr69nYZZ4yEXLCSJAqfyCaIbXwfvmF14nyNk47WFU4wdN81xPPBjiERPR4hfGZnkPCYNo+rNzmFZk3ykj6Prp0/79+0PQbMDgfQgszRPlZIPdH//4R1lwh7hTZhbxjRtuuCFidYwZsRF0xJJNIQwCXCeExRi5CSXr7uYw+rGdYmbGTlBCIv7AdGwFWq5EIWAx6EQhGV05//M//yNLMTzDwuuGmY9zb8hTvLzlLuSbkaOrILA2UWzmXxF/brA7cNmmGC8COM54tfROyJBXvKVvzy+FE223HdDbIUmX/5oHXT89wYYE7op//OMf7Ppg5wBG4KKyofWYY45hSap+bLJa0xIBrgri+Fwk7LoJH6aIzXw2F7F9k9g0i4exlWC5koeAEXTysI1QMhzNwyb88I88W+si5LTTuYQAu0p4OTUXSZI2V7CwwRtfWSXml0u4ZkZbjaDrv59YVU/SvVf/bTMLEoFAUi8PLr94dqokon1WRp0I2JhZJzR2whAwBAyB+kXACLp+8bfaDQFDwBCoE4EiWb6X88h1KtZxQrOoUIdiiGTNokIIJUsyBAwBQ6BuBKJiD1VWoe6CvWc0iwpejbqPNYsKdev+6ox9k/BXcNiBIWAIZBYC8hR0cJuFImP7akzq81qII3jPmqYhYAgYAilFwL5JmFK4rTJDwBBILALy4uyAZeICi+/MIzkh30kSppx6yWvfJAzTI3bKEDAE0h2BaHlW2kOu2DKSPZV5LcSR7tef2WcIGAI5i4ARdM52vTXcEDAE0h0BI+h07yGzzxAwBHIWASPonO16a7ghYAikOwJG0OneQ2afIWAI5CwCRtA52/XWcEPAEEh3BIyg072HzD5DwBDIWQSMoHO2663hhoAhkO4IGEGnew+ZfYaAIZCzCBhB52zXW8MNAUMg3RGwL6qkew8Ft4/vZqXtV4vGjx//xRdftG3b9oILLgjeokzU5Avcixcv5ivAfGQyZfbzmojRo0evXbv26KOP5hNW/nrXr1//7bff8owyX5Hn692uAh+S55uEborKvOaiU6dOHPLdwjFjxvDdwmOPPTZtrzE1O5sEI+gs6c3PPvvssssue/rpp/faa680bNKoUaPuvPPO3r17Zz1B84HXGTNmpJigZ82aRb3t2rVr3bq1v/cZuT/88MPly5dzas899/QQ9NKlS8eNG+fPRUqHDh1OPPFEBEifFi1ZsuSrr74aMGBASGVLTAYCFuJIBqqpLvP7778/+OCDcZHkfbWprt7qq1cEysvLv/zyS0zYf//9Q74A6JtvvhF2Dmkm3nHIdBK1NIQDDjiAFAh69erVdelbesIRMA864ZDWQ4FlZWVpTs1XXnnl8OHDecdjPaCT7VVCmrxCs0uXLp07d/a3deXKlVOmTPGna8qqVauQW7RoMWzYME0Uwf2YLIXzw4mePHnyUUcd5dG0wyQhYASdJGCt2F8hILf3r5Lq9YDxbMuWLTiGJSUl6ieGtKiy9ldcXOw/Cy2SPfwnt6motLS0UaNG4WuJ2R4JLmPb7rvv7rewoqKC8AUhDv8pTRGCJjwScfjcZZddIOj58+cT7G7ZsqWWYELyELBvEiYe20mTJr3wwgusiTG1ZFmMqN+111572GGHaU3cje+8886jjz5KsJIFJVZd2rdvT4zimmuuQVnVnn/++eeee27QoEHEAW+77bbPP/98zZo1/fv3Hzp06HXXXadrNSNGjPjggw8kF2HoVq1ajRw5kqpfffXVnj173n///VogwuOPP/7aa6/16tXrX//6l6Q/8MADGHP88cdjw6233sodeNxxx/33f/83dyMKLB/dfvvtU6dOnTZtWseOHTGGZaizzz7bLTOI/Mwzz7z44otdu3Z95JFHRD9g60T5lVdegWUIiQ4ePNhf3dixY5l3wy+0wnNWTsEm4vQRDQDzmTNnwmtCW/Am3ETgvkePHpp34sSJCxYsIIVwLYEjJihUTQCBv+jMmTNn7ty5BA2geA7xPfv16wdc2iNSDqGDCRMm4MBSKfwOvJTgWcGL3x7cZxrCAIAHrfargAHr1q2jFdA3mpquAk3YuHEjh4CgiXUJO+64IwMSi4rfffcdl2tdailO524KXqMqq5Dmee2bhME7KJAmhHjVVVfhdYk2Szf8YEBo7vrrryeRK+Piiy9+8skn3eJY+uf38ssvf/rpp7oIA4+wNA+h3HvvvRr4+6j295///AfOYlWdQrgJ+UlpIlx66aVEpcnbt29ftxZkeJZ0CEXToXJSKP/rr7/m3iP9qaee+s1vfgPjkH7eeeeJh0U6rMQPqn3ppZdgf3f+q6XVJUyfPp3SWCRUhYCtE31pPutUmt0VwGHevHm4dStWrIAH9RQsTDqHDAz8xZ3EhmXLlqkCAt1BLrYowODK0Rs2bKA0aEj7kVxCx3QQPeKWAAOyRwW+PvTQQ9VNRvnN/8/eeYddUR1/3CQokB9IUYoiVaQqzSDSuxgEBCw0RUWxmyeKxo7Gimg0xAKI0UQNoiIgVQQLXRBBBKRaQOkqCD4BUXx+nzBmcty9d+/eft/7zv7xvmfPzpkz57t3v2fOnNl7X39dm0PxfAwgayY/5mxpnrw9UDMTCdqYcT3TA5WbN28GdgpMq2qJdK1/9ebSnH1mPAAAYRYBChY9KiYF1gpVq1ZlQ5JOW7VqpYP1iGX41H6TMMOAF+DucHKFnatUqTJlyhTcT7hM0ipuvfVWgneM7YUXXhB27tu3L8TNkw9p4hHzcWct/NRTT3nGz4oSerrtttuQZMMd/QjgMsP4IolPik4pU8Dbdb11j7Zop/iMeHMXXXQR1Myzh38EbfXp04cHGMeZBQFdQ/qDBw9Gw+TJk++4445oquKqjzk60cZkADt40g+0o1q1akl5w4YNWklBT2vXrs0phCvsDMtAxwMGDDj33HPr1asnTZgw3LaUhdTgvpo1a5IdAcvjOws747F27tyZOwjUstinL+FKVUJzGhLYhbjF9Wb+A0MVSN4e7pFMGyybVK0U+CzNmTOHMlSr+HhkOFWChp2xjfUTN5oPJFk3c+fO9dM6HwZaEdvRhn6dVpNCBOw3CVMI5hGPPfYYn2nW2sQ3xAE5//zzcUUbN26Ms8OintxYPFC6pIZT8UF4eocPH85SeubMmREzUq+99lqCD2IoXfBY0pYYBSERVqYsPHH35CouM5oTGxJRlJtvvlnbEifBkWRJSxCzbt261PNwEpaBKEeNGsVEctddd8FTKp9wIXh0onbQoEEB+qFIMMSHxcFv3ry5+pJC0HisknwGvaIEdxtuFRnyfJmNiEUAqfxUnacXJlcSh7US5qLMXevRoweRDdFWsmRJZizK9K4+OKfQItRMgVRi6rnvfAb0TlGfvD3wKXo4ZC0lZfkLvcLRrDmCYxGawgEg3F+InmWHfAiZsWjuDh/NQtAU6FqXAm6/mS/bbxKGwpxPLUcoUZ9QMm19yrJWATXLgzpw4EB3edigQQN4javyWYfaIA5W4i5cPLryRoC4eO4YcBslNqKVuNsQNCs7HHZJU9VLCRfo5YorrnCbE6rmtF+/fsLOeoneIWi4Gy8entL6xAqpGh0+sgSFiSSwfMEYTuEaCuI+U+jUqRM1TDnK4FTCYuKYRyRoN0aErwqP04TIvrAzZQ44q0WLFuj0EJabkE4MGjFIzSXoJO2ha7XZQ9Bwq7jzbdq0CZ5EJQDNAoUlhUaxsZNYEJ9Ywl+g5w5WO5KGhwHI8h/3OQpvSjKck8m2lsUR/p7GkOTpJdSIEHtBHtFLL71Ua3CsOIg/EotgO5EoIY8TBUKZyIgGFaZA3LZSpUpuDRFk3FieH1w2tz6ZMg+nuy8P+7PURSGOWDQWjujsx2tDqkYHaTJdgSpuqRC0uM/wJnEGsQr3kIOhEZjmZsGVHELiCPh3jWBV1ztTNnTD3KLZn0HBM6xcJjIEdiE+LJRT/iZpDxqYXfjLGF07+SABBfV8zFyPnhr/wc0ltMVnyY3v414wu5CcBybMcy5B0xew8ClVNPw6rSaFCBhBpwxMca9Qp8vAiKr5cLPpN2zYMGFkkYFwZX/c30Q2uNx6hHHWeHLIAHHrkyl7sgvYsRRtcBlHRM1seUWsj6syVaODNQj1QMoEtWEcIJLZC4YCWDEJF5hNVPa4QlrochZNJNpLIdgnFeUePz1ij0naoyYRUoM3tQt2LGUaKFGiBHEzqdeVGQ4B42I+1ncOWUDIGkI1UOC+SPY024ZuPWUhaEXDc9VOU4uAEXTK8NQVLn5ZgFJS7iT1DRIhGEqYkne0iE1TrylobnOCCe4pZeIhktUgURHPVfcUz8g9pSwNPZWcYoxbqd40CSEY6V7Sst9t1EvhC8mMztMLi3EIGm5idc+aXTJS8CJVjGA6ARA5xUlkXYIvTBCfvBhoXcW04Fk7Ky+LZhVLuJCkPfQLV/LXc5c1q4Elmt82cnWoJFKvBC1s7snJUcr2gIBPLW67dO3XbzWpRcAIOmV48szzDPPx9ftot99+O34NwWg24sg7pkvCFKR2ub62bBl5HjYkcWB5KtznBPcWJ5FLbtaaZxjCJvIsuZc8mQbuJbcMeeGXsYyFqXv16uVe4nkm1YwwgkQS3EsJlBMbXcSOmK7Yr4Px8Z2FbhiCxlWpF3ZGhswKvEtVIlEOf4hDBaRAQyn4nUpuJbttxDT8idgeJXqavD2oYoD89TizhDv8gTJqhIhx7ZmMZVXBwMns5CNHKgubpWobBZ3IicO49bC/fESla/eSldOBwP9WRunQXqh0wqG8RcKQyaJzeZbH4G9/+xvBXIIScLcQAdkdLjvDU5LCLE+RixuL00mTJrk18o4JPo50xyX1f3XrhvU+9cSRXTbBT5RUP1dbxDJjkT0uXmxxNSBMwkmHDh0I7JJBGLFtXJVhRhdSITbLfiCTkIRlcJ917a8BJRbvLjtjgJAR65LgjiB9YSv8dJcBoVqABXntK1iPXE3eHvRI6JlPlN53Kkm1vsB34DJLv7xwz0VZWDDliKfMlO8uC1Cob7V4Au4astf1hKi1v2lCwAg6lcCSeYY6CIJEDvnEs5NG2oM8P6QVC28iw2sm+oiSvEVCrqxM3SdNLbvuuut0ucpbJJIrTfBBA7jq5vC2HnMATxGbZjSHR3gpRoLFbEWStxt+b0cS+2jbs2dP2Q/EbSe5m/Q7NPPcnnfeeWphMoWYo0P5xIkTySphFRLckQY0ZBbUU1rplh1kqu4hZV41FJ2MTloFdCHvECFJAjsgI8++H+sJaSKYBzR3L6XEHp3jmftd5SHLTGnygWSlRU6OfPb4hJDuKRDhWbs7hKhlNhLlHuIO2aOJxYuAhTjiRSxInnAtrz/861//Ig0Ot5dPP3sy8thD2TgvNIbvuEQCE9FP8j3gZcq4b7w9AbOzUuYFME/0gM1AgtQ8/zxIMAJKyK2WyUCsQRUcjasLd3OMHDmSxGH8XKKc8BrsRpqwbBMROJZk3qBhHL5GcPzKK68kow7fn65xTjFDwuvEH3kHXTffYqoKFog5OprLHOOJk/rV4hoTnJG9UxhEI+lIQojEoEAPAmJ2xAFklSOOMF6ksDO9BPMON5Rbww1CkrmQhYsuldiNFP/db1XEmpTYA0GL8dxcXqiJ2FFwJfsfkDt0DDJ8aLmzujggSN20aVNPc/kAcCMA03PJTtOBgHnQKUYV5hoxYgQfboiAV7NgZ3wQvNExY8ZIT7jAkDXLYUgBl5C1JKFk3pxW93D69OmuTRA3YWvYkNAqTxEPJEtUvl5SN3kQZl8eUlYPDieaJw1qZrXLJWzgASZP4+GHH+aLO5B3F+NSdmu0d3TyDiFhXAIvjEUeTt4bxuuMtnOobT2FaL2EGR2q8PX4G9FIT0fKklpQgY4dOypETHUwEWt8XgXUXHKZ/LQjDRypBszgq0igLeClUtgZtuLlIKZD10i/qX4EkrcHnbKKYmoXP0BN9RR0LB7D+DgRN5fETZoIOzMiath78M/Bkt5Dp6rQ05GdphaBX3FfOWR9TUhLPmTh+0hT2+73/LzwxJIpQzuFtyd3JAkLrFu3Dh+HhbY8z65tvCkroUx2Dl1Hz5WBTO+9914ojJU4bM7+O442oWH/Y6OtCDojw3aZPodEWog741/zvkm8N1fVYi0EzXMLwemyWq8mVkhgdIl15GkFNRNcAiVmOE8inUcy+JTFPnrwxJmAQSZYOOBqkvYw9crrUfzWie6IBnQX7RKTDUEbohy49hwRPyp8uohxoaF3796asxRNYVrrE+aHNPFVzMEm3G/iH6yYNhVyAbwMjmgg4M9yRLvqr8fT8a83/WL+xDvYHJ/XLxlXDabyTpq/CY4b62J/vaeGb79jmvFUuqchR+c2SbgMpXIk3Fwb4n1z6GnChSTtYb7kgKbZY0iGoPGImcU5AgYi30PC0iS77BxgYf5dMoLOv3uauRERS+FbnGL2RwA9mKBjajCBAARI5iEsRvCBULIb+ApoksAlVlFkgmZyKk3AyPxrYjHo/LunmRsRkWjWbjGPeAPWmRtAXvSE44xXy13gCwPSNyBRTrTdMqDTB7Jfs3nQfkxypQavk012zxdx5IpxSduR36NLGp74FJDmzGs4pJeQyRMcpohP73+lSS5iT4XYNJuH/62z/5lAwDYJM4Gy9WEIpBsBdvlwogklR9zfS7J3NKOfnWfdfE5SYZLNbZMwSQCtuSFgCGQUgbTmvUH6yWSqZBSI/OrMfpMwv+6njcYQKGQI4N2HH7EKayHH29pvEoa/QSZpCBgCOYeAvMMR3iyh5vDfeeBqznxby+Jw8beyIWAIGAI5hID9JmEO3QwzxRAwBOJFwP01mZhtcYHFdyZZMN7d1Ky0LeJaSdk9jTlaVyBbbV0brGwIGAKFDYHEKCtbfBVvvxbiKGyfZxuvIWAIFBgEjKALzK0yQw0BQ6CwIWAEXdjuuI3XEDAECgwCRtAF5laZoYaAIVDYEDCCLmx33MZrCBgCBQYBI+gCc6vMUEPAEChsCBhBF7Y7buM1BAyBAoOAEXSBuVVmqCFgCBQ2BIygC9sdt/EaAoZAgUHACLrA3Coz1BAwBAobAkbQhe2O23gNAUOgwCBgBF1gbpUZaggYAoUNAftNwvy54z/99FOO/CJRLmBacNHg97m3bNlSrFgxfg09Y0jyVW0zZszYs2dPly5djjnmGE+/XF28ePF3333Hj2SWKFHCc1VOd+7cuWPHDjRgeYUKFSpWrHjUUUepJL9q+Oabb/Krhl27drVPqcISs2AedEyICobAggUL+MXlDz/8sGCYm2YrCzQa/Pzrx4ePNIP0C/Xr16+n3+LFi5ctW/YXFw6ffPDBBx999NGnn366f/9+/1XoG8AnTZq0aNGiNWvWLF++/I033pg4cSKErsKQPsS9detWrmqlFWIiYAQdE6ICILB69erWrVvzCPGoFABz02yioREvwD/88MP7779Pq2bNmvm/vXPjxo3Lli0L0Ak7gzkCJUuWPOmkk/hL+dtvv508efKBAwekIWrxvilD0N98841U2t+YCBT58ccfWQxyIMp9inf1ka22MQdWqAQOHjxo1Kx33NBQKEIWIE2+xv6EE044/vjj3SbQK07xhg0b3EpPGZ967dq1VB577LE9evTgt2X5KC5duhSdeNC0PeWUU6QJyjlworl6xhlnePQkfAqDhW+bLb5KuN8iX3zxBcOTx9s/eYYZebbahrHNZAyBNCHAxx7+4pEpWrRo8INz6PDhBmTVJGiR5sE/yE1HkCDBh+BeErZn7969rL0w6eSTT1bDKBDxePvtt9UFdi+5ZWIj4t61adNGfvkbOxs1akSsg7br1q1TgqZVnTp1IOjPP/+cUHXp0qVdPQmXhcHCN88WXyXW73886PBjM8kwCCxZsuSll17C9VixYgVuRcOGDYcMGdK+fXtty62aNm3a008/zYeY7SBWLeXLlydGccMNNyCsYmPHjn3xxRdbtmx59tlnP/DAAwsXLty9e3eTJk3OPPPMlHMwEAAAQABJREFUm266Sdc6Q4cOnTVrlrS6+uqry5Qpc88999D1a6+9VqNGjSeeeEIVUnjmmWcmTJhw4oknPv7441L/5JNPYky3bt2w4f777+f5Oeuss/70pz/xLCHAp//BBx9khbtq1Sq2fTCGTaT+/fu7OsOUQ45FVbGsZsh4YZ988gkY8pAPHDjwnHPOUQEKES0n0EkrEVM02G0bP348PMLmVdu2bV0lUp49ezbrbn4GCRw8V+USbCJOH6tM7ho+I7wmxAQflStXDkqqVq2atmVLbdOmTdQceeSR0B9OPV0TQOAvMoyOcbGlJvRXqlQpBgjgek9FDxtr77333q5du+gUfucGocGzg5e8PcDFQJgA8KDVfgoQtJiH28sHaf78+VT6JwnYlnp+d4rbREEORl2vXj0+NqC6b98+CXpwqXr16kxI33///cqVK/nA/1c8qf/5zWBFiBnBF/LLuKDsvwHB4KWt7abgfnP2KoT4xz/+EZ9JLORTzgEDQnO33HILlSB22WWXPfvss+4Q2LjnePXVV+fNm3fqqafKJViAjXXo4NFHH+WDLpXvHj7eeustGIc9cSp5hjnkqhSuuuoqYoK0rV+/vtTrX3iWetepgcqpQT8bjDw5SD733HMXX3wxfEH9hRde+PXXX0tzOIXj+eeff/nll2F/cZdUc3Ah5FhEyejRo6+//nrdj+IJBxwCmueee+4LL7wABYtYRMvhYlbQIqBocCoAalsR0L8gyQ4Ybh2pCPCg1sPC1HNauXJl/sIFYLJ9+3YVoMANpRUpCjC4cjQ2ow0a0k8CrYTvuMXcU1cD4VroD75u166dPoAIv/7669ociueDBFkzfSoVJm8P1MxEgjHM2Z7pgVMmHhyCKlWqiIxrs5aFOpi8tUYKaiQCStCsFapWrYrTjcJWrVrpYD1t4zqFwcLLp42vYpiQcL+2SRgD2bgu4+QKO/OZnjJlCu4nXIZvhZJbb71ViAOKEXbu27cvxM1zC2niEfNhhZKeeuopT494KJDLbbfdhuS2bdvQjwAuM4wvktAZOqVMAbfF9dY92qKd4vHhi1100UVQM08O3g2k06dPH9iZZ48FAV1D+oMHD0YDXHnHHXdEUxVQH3MstMXfvPbaa4ECDEkMwKNnRSKOLXPSfffd59HvsRzAI6LBdAI74Nl5mstprVq1pOCJt+pp7dq1EYBwhZ1hGeh4wIABzBm4itJWQrFSlr9Cr3BfzZo1yY6A5fGdhZ3xWDt37sxngJsli3368vAgzWnYvXt3iFtcb2ZQ2Y4T/cnbw12WaYOFl2s5Zaa6Xr16MVKXRiEaj5jMowzHU6+krBOtCAiVE9vRid/T0E5dBCwP2kUj2fJjjz3GQ8VKmfgGC0PUnX/++biiJMDhqrDM50OPB0o9NZzKR59nb/jw4RDTzJkzIwbUICyCD2IcXfBQ0ZYYBSERfByWjThrchWXGc1SjvcvIYWbb75ZWxEnwQ1kQUogsm7dutTzaBGWgeZGjRrFRHLXXXf5H0ttHq0QPBZaXXfddTiGuLTwsrDScccdx5RAnIc5D6AGDRrEitvV77Ech1SuumjQym3iKUOR9IUPyxKhefPm6ksKQeMMSvIZ9EpDbINbRYZFJ/MZsQhuivxctEcz0/Npp52mlUzGlLnv7KcR2RBtcBkDpEzv6oNzyrQBNVMAAer55PAp0ntNffL2MP+hh0NWY1KWvwqCW+kp49fLJOSPsOtcGJGg0UPX6mV71NqpIvBrLVkhSQT4pMpjRrRU2FkUNmjQAF7Dz6WeGqht6tSpnLqOCQ8eDyFXxUFzLeGDLrERrcTdpszKEYddK5Ms0MsVV1zhKiFUzWm/fv2EnfWS9A53a+BbL8UsxBwL1CyDgseFnUUnWMmKATffM2q/5THNiCggPjLuJJEEEYCvCXFQlksUOnXqRAge0nTJCwLCBq5GJGg3yoRyeBxJJhhhZ8oczHwtWrSA6N3QE/Wy9joscgQMKL6nS9BJ2oNmtdlP0NJv8F8IWgQEgYjC3DK3Xjtys6RdASu7CJgH7aKRVJlnTz6v7OR4FF166aVag1vEARMRi8BJ5I0ElsYUxO/TT7zKE2KrVKmSnlLgMcaNZT7A4XLrkymzQeTuqsP+xDRQOHfuXHy9iJojOvsRJbUy5liINYMM8rix2koKMB2eJhODJ5LgsdzTKvwppAn10ztuKdEVGor7DBcTZxA9xAE4AIfANLcbruQQEkfAv/yHVXGx1QZlQzfMLVc9GRRUMicpl4kM24N4nYKP1CRpD0rEvWWMrp2iPMxfjemLH+020U+yyshV+gIWrioabisrexAwgvYAkvipOEe0F08nmiI+mmz6DRs2TFfiSEK4srvtbyXbU249wqwN8e/IAHHrkyl7cgMgStEGE3FE1MyGVcT6gMqYY5GUADR45iTRybqEtC3PqD2WB/QefAnWIFgEKWMDTh8gy/xHbIFbI21xgdl4ZI8rWJVe9XCTRHu5GiY0RKeun6463UKS9qBKTCIoF7Mvt18tE9nHdwYu2V7WegpK0Ch36ykLQSsanqt26iJgBO2ikVRZA2p4VQGKSLmT1DcogFAm62XesCI2TT1xD39DfEZPJfEQyUmQqIjnqnvq92ukoSsjZYxxK9WbJiEEI91LWvY7fXopWiHmWAipS9uIdsq2kicbzGN5tK7D1BPKgKBxUdmsg3qEdFjuaFvC8RoAYbZgFsEXxmYya6B1FdOCG8WiUnnZT2faJK5CkvbQF1zJX//nJLwZ8C+uhuttSFu91zpqqWedIW67dB2+o8IpaQSdsvvOE8tnkQ+f38O6/fbbyaMiGM12Ftm7dEmYgsQs19eWDR//o4IDy2fafdRxbyWuF5BgJE+FPAnuCD15Au4ltwz18OCxCIWp2cp3L8FfJIoRBJA4gHspZjnmWHREpDp07NjRVUjIhb04alTGvZqSMhOeRFHwnSWJEBB0PoBxhJ2RIbPC/c4giXL4Qxweq2goNeSzey7xYWB0xDT8idgeST1N3h5UiXubjDNLMB12Zu8El9nlXImA4ZjrqMVyAkTyIZeudThWiIiAbRJGhCWRSjiUpFFakkXn8ixP79/+9jeCuQQl4G55jMnucNkZ5pKkXTfCKEbw0SfbzDVI3jFhaSndcUm9SN14YbVOPaTmcgFenuYIuwr9ZcYiO1S82OJqQJI8ig4dOhCWJaHN3zC4JuZYiISS14WSv/71r57NJTAU5ZrWFq0vPxrRJD31jFr2A5nGJLCD+6xrf3USCdS47MygxN9nZeNR6DmF9IkaU4mfrhEATqFabg33TvvyNIx4mrw9qJXQM59J/eRE7CugUuZLhiMJKiKJZyAEzd3UAJFc0pC9x7MO6KIwXzKCTuXdJ/MMdTzeJGzIMpaPKWkP8uknrVh4ExlSevUB45NNOi2eBfURnxMyz9hRFEN5i0RypQk+aEhXHnsExo0bxxzAMyCJaDw2vBQjwWL21si6Db8zI4l9tO3Zs6c8bDAmiW6k39ERS/vzzjtPTIrrb8yxSL/4sMClEDFPPPLII3SEMYSDgnv0o4E8X65GXoq8DhfQXAMaMo/qKU10yw4y1QgMZV41FIXgE9OJlreQkCQFntuEPPt+rEhEgyd9MMDOVNmjXgLeQ3B30a5qjJ48UT57eBjMN3ybncyvnhQglHBVVPl3SqN1UZjrLcSRyrtPuJaXF/71r3+Rp4zbCx2TpCEPrb6pDMVwibfgiF2S7wEvU8b5wteA2Vnnbt682RM9YFsMVuLpxTGRxFVyq2UyEOtRBSvh6sLdHCNHjiTtFz+XGCWsBDeRsoajhzCBY9fTCRg8wfErr7ySlGd8f7rGtcQMCa+zkuUddI9nFKDKvRRzLACIzWL29OnTcdWxXKLPjIKhudoilv1oMBCZpSRwEbGVVOIaE96RfUgYRGPxXIWgiWKBP5Mc8ysOIOskcYRlo4wbTS/BvMNHgpvLLUaS2RRnXxdbMJ347wHmuZdSYg8ELcYDMi/UuPpDlhkC38LBq61AIa+5akM+pf7NXvkIcSMAUyWtEA0B86CjIZNgPcw1YsQI3mvgMealLx5agnR4hWPGjBGNuMCQNYtZXAwcOr4JgUUib06rcwcruX1D3IStYUOcStiBx+mCCy7gyyHd7+0lWwDmUv8LRwYOheN4LZhL2MDjR7bDww8/zBd3oNxdSkvZrdHe0ck7hARhcYsYizxafB0HPmO0nUNtG7EQZiw0hP6ACzpmFUK/sDPDueaaawhMq8eHWDTL/WggLEH8iMP0mKosqQUVICyuIDNZQkkEWHkVkJdoREamT8rSkQZbVANmkEndtGlTCdcKO8NWvF7EhOoa6TfVP97k7UGnrMNwDsSTUFPdghqjBfcqsw6D0hUGl7gFxN8gbhmRKywJQnTqB8cVs7Ig8CvuCoesrwlI+QENRipNbbvf8/Oykd6nDO0UbENuXiUsQE4YhMIyWZ5G105IRwKR7By6bporA5nee++9kBrraNic78rA0SY0HOC6EnRGhs0ufZDgOOLO+NcsNuO9uWoM1kKU8Aj05FKkCsQsJDAWdLIpJxjClTGdX78NfjT8MgnUQM3EXsCZORImSkCDNGGxjx48cabwBEan/SZpD5O3vGDFb53ojqgqj6vAZiNLQFYh0T7S3BGiZOjs3bu3Zj3F1YUIJ8wPaeKrmENIuF8LccTENkEBfASOaI3xZzmiXfXX4zjjdvnrPTX+xDvYHJ/XIxbvKabiDflb4XYRzPHXe2o8334XciwogS+SoQw/Gh7DEjuFUjkSa+u2wvvmcGsSKydpDzMuBzTNLkUyaGM801WwBvkeEqbbZNg5MZQKaCsj6AJ643LCbGIpfItTTFNibuvF1GACaUWAcASBNYIPbH66obPUdso6jFzS8NNzansvoNosBl1Ab1xOmE0kmrVbzCOxgHVOjLBwGIHbi1fLfeQrB9I3YlFOtN0yoMODbB50eKwyLUn0mZcM/fvgmbYjFf3l01hSgUfO6eDLT4j4k15CLpDmKabQSmLT7Mqwkej5QqgUdpGXqn7FXgczp6THMrPFu4+UprY97n1L4S6gm4RqvxUMgQKBACklPM4kV8RLAmFGh2b0s3et29dhWkWTcTcJJ9/5izdOozWR+jTxVXCnXE243yKSv0F7tIR/i8E1KFttXRusbAgYAkkikNa8N0g/mUyVgKEJgwUIeC5li68S69di0J7bZ6eGgCFgCOQKAkXIfYbacy3EkSvwmB2GgCGQ2wjI14mEtLHAcV0RN95E2T0NOWYRy1bbuIw0YUPAEMgzBBKjrGzxVbz9Wogjzz6uNhxDwBDIHwSMoPPnXtpIDAFDIM8QMILOsxtqwzEEDIH8QcAIOn/upY3EEDAE8gwBI+g8u6E2HEPAEMgfBIyg8+de2kgMAUMgzxAwgs6zG2rDMQQMgfxBwAg6f+6ljcQQMATyDAEj6Dy7oTYcQ8AQyB8EjKDz517aSAwBQyDPEDCCzrMbasMxBAyB/EHACDp/7qWNxBAwBPIMASPoPLuhNhxDwBDIHwSMoPPnXtpIDAFDIM8QsN8kTP0NffHFF6dNm7Zr1y5+W55fYDvqqKMoXHLJJdLT/PnzFy1a5Nak3oJYGnPBBrHx4MGD/NCG/AwSvyq9ZcuWYsWKpelXwJPX71obC2O7bgikAIEifIM1h2jSQnjF2kQLmWkbvpcMSz799NNXXHGFdrpt27a5c+eedNJJStBTp0596KGH3BoVzlghF2zgA7N+/frFixd36tTp+OOPZ+z8aOmaNWvSR9DJ6Pdbm7GbZR0FIxAX86iwFoKVu1e1iRbcq8FlbaKFYHm9ar9JqFCkpnDnnXeiqFSpUuecc84xxxyzc+dOCDo1qvNLC1PXnDlzCsqYCpa1BQXVlNiZ379JaCGOlHxIflZy4MABGJkTaHrIkCEUtm7des011/Bz6ansJmldf/jDH5g/cs2qJk2a1K5dO00/LQpm6daf9G0xBYaAFwH7TUIvIsmc62Reo0YN0cPiXdbvyahNedvctIoflwv+fTmWh/v37y9evHhiv3KUbv0pv02mMAwCwZ8ZjwY+QgXr91ftNwk9dzDx0/POO++bb76R9vfcc8+YMWOaNWtWvXr1cePGVa5cefTo0cGqv/jiiwcffHDZsmWrVq2qWLFiy5Ytu3Tp0r9//+BWEa8Syb3vvvuWLFmyefNmgi1VqlTp27cvkfGSJUuK/PPPP+9a9emnn1577bURVUnlI488Uq9ePSmHtHP8+PE//fRThQoV2rZt69f89ttvs7aQesrsozZv3vyrr77asGEDfn23bt3k0ooVK9atW8d0UrduXYazY8cO2aYrV65cixYtiCCJGEGk7du3/+Y3vzn77LM9DvjChQsJPRctWpRLy5cvT0x/RGu5p/5xWU3mEUhsto73twHdcWWyrYU4XOSTKr/xxhvfffedqPjw8EEZj2/GjBlsCQarRubCCy/8+uuvReyTwwc0+vLLL7/22mse0glWRYZGhw4dfvjhBxEjmYTjgw8+gDEhGglrfPzxx65Vu3fv5jRA7c033yxXw9spcxU7fhHVfvvtt+LIcJUCB0CB3p49ewgTaROp4erGjRuhZqn/8ccfiQhPnDixe/fuTABUMgmtXbuWwqZNm0488URtThPmqkOHDsmCJmH9Ea3VXqxgCKQPAcuDThm2OGuzZ88WdQ8//DC+8JNPPhlGO2HrPn36wM44zi+99BLss3r16sGDB9N28uTJd9xxRxglKkPIG3bG64TCIKwFCxYMGjSIq+RLPPvssyrmFmrVqjXll8f06dOHDh0qMu3bt8ddpRyXnUwquLRHHnmk25GWO3bsyBJBTin07t27WrVqetVTgGc5atasyZKCuUdCRrjn+NciyfwnbhQOstuWvDrYmRpC2269pxxTf1zWepTbqSGQDALmQSeD3i/akvKsLjCU0bhx419cjn5CPGTfvn0sw/FwWcsjCFOTrgfBjRo16qmnnrrrrrsIvEZX8L8ruJ9ESDi//PLLe/bsSYH4BmnF77zzDm6yh7+0GaEPjSpIJS62RFegNlx44dm47JRZQbvwFI4++ugyZcpIJQWywj0CnlPM0FAJ7jDxGdxhRZtlAQEH4jlEM0BA3XbS+NDD1UqVKnkUek6D9cdrrUe5nRoCCSNgHnTC0KWs4YQJE9DVr18/YWfVe9NNN1GGu2fNmqWVwQW4SQLNRMDHjh27d+9e5InwEsmFoEeMGBHcXK4Sz+3atSvRBngTV1qZNIV2hjHDlalfv76e8laLRDa+//57rRQfGbea4JBUwuCsRSgzWcqLMCrsL8TU729iNYZABhAwDzoDIAd1QeKH8Ag7XT169Igoyr5cxPqIlcRG2NPjlbwBAwbg+RKdIDKAN+1h/4htqcQevGliI3j0kyZN0nSUlNsZzYCI9USZ3XpZT0j4QupZKDA54T6zShC21eWCcLfb3F+Oqd/fxGoMgQwgYASdAZCDuiBOKpdJpeCIKMouX8T6iJWkgpQtW/aBBx7AhSQYzcsgHLfddluvXr1wqzXzIWJbKI98D3YUufrcc89pmJjTlNsZ0YCIlawAPLFs/8Y94SCC1IR3CJSzbiAoIQRdvnz50qVLR1SrlWH0q7AVDIFMImAEnUm0I/Sl9HHVVVd17tw5gsQRR5x88skR6yNWsjt36623Xn/99exYssdI9JkUCCTZMyTKwWnEVlLJCyy8BU6ZcDMhF1cy5Xa6ylNSxlOW+DvUjENNiAa17H+mRLkpMQSygoARdFZg/1+n7F+xi0UmGQyIk/u/C0ccQT7ZvHnz4BoOtz6gTBCW6ASMTOoFkQoOhEk1Y8vuvffeIwNPvMuIGsg8YUOSSwMHDpQX1l2x1Nrpak5VmcUBBzuHhKHlGw/ErU6VftNjCGQeAdskzDzmv+iR1XqjRo2oeuaZZ/Bw3WvDhw8nq4yVO9nQbn1A+fXXXydqfMYZZ/CNeipG9FlSMiSDWOvdwiuvvCLJziRLEAlxL0k5tXaiU8MU7l6fv9+4aiTcjO9MniINSd0jfBGXhmjC6bA2Wl9WbwgoAkbQCkXWCvfffz99E2hmK0/2A4kdk5dMnIF6oqi8oxjSOKhZksx4k3Dp0qXiSJLC8fjjj6MBJz3ikh/P+qKLLkKYhId//OMfOKHsMboHb2rQPC47iaiQ9YHmaJazCSmXMI8MOSLm0STD1zOZScKGkH6Y7cGQytNhbciuTawwI2AEnf27365duyuvvBI7SOTA/yXiDCmT0QHL4ADiCys7xLSV7yVgexAxlvlNmzYln5rwSJ06dWTHjDQ79QRdVU888YS8v4cY76bzJsgJvzyuu+465OOyk/mGV7f13Xe3OyljqrwhCTvzEqbkLPvF4qphcqpatarqj5n+HF55OqwN37tJFloEjKBTees139ZT0FM6k7JbQ+XIkSN5hxBWJArB8lw2uEiiYKMv2s5hNLvZHuQlF3kxj5QGcclxLQliEFyWVh4bPMb4NatAeDtlJtCGfp3MOqQAlihRQi4RHPdYRb2/RoSj1XOVRYDIUPDMRv5W/ppo+v3WiqT9NQTSisCvWNhyyNew4SZ4PtMx+05T2+73/PzONAZMGdopphl5I0B4AYLGtcSVxv9NeFzsFkLNOKcUUAX1x3tng7tOlZ30wmePTxE7pUKXwf3GvAp6vN2OGPmCJNvFlI9XILXWxtu7yQsCCfNDmvgq5n1JuN8iMVWbQCYRIA+hTZs2/h7JzeDNQH+9p4bNQFnjQ3YUpOyRSclpNDsTUI5bkECriE2YjSTTjkBNOtiZTlNobcQhWKUh4CJgBO2ikbtlQrS8bBLTPr52I32kHLP3LAqsXLkS35Y3fWSzsWHDhlk0xro2BFKFgP0mYaqQTK8eItGsktLbR0HWzrc7SaoJgyCewy5rQR6N2R4HAnE9FyqshfA9aRMtZKCt/SZheJBNMncR4Hud2GbkjXCyVlq3bp27hpplqUZA9s/CaxV65dWw8E1UMvNtLcSh4FuhACPAVzbz8iQboRwFeBhmuiHwSwTsNwl/iYedFVgEUpIEUmBHX3gNj2vbFhdYfGeyhuKdy7PS1n6TsPB+sm3khkAeIBAvz8qQ/7PUSnSxlcm29qJKHnxEbQiGgCGQnwgYQefnfbVRGQKGQB4gYASdBzfRhmAIGAL5iYARdH7eVxuVIWAI5AECRtB5cBNtCIaAIZCfCBhB5+d9tVEZAoZAHiBgBJ0HN9GGYAgYAvmJgBF0ft5XG5UhYAjkAQJG0HlwE20IhoAhkJ8IGEHn5321URkChkAeIGAEnQc30YZgCBgC+YmAEXR+3lcblSFgCOQBAkbQeXATbQiGgCGQnwgYQefnfbVRGQKGQB4gYASdBzfRhmAIGAL5iYD9JmF+3lcblSFQSBCQn6EKOVgV1kLIhohpEy1koK39JmF4kHNd8qeffsrxXxVxLZw/f/6iRYv4LcFLLrkk15D12+avScbmaNpcfMLo/+yzz7Zs2VKsWDF+zT2MvF/m4MGDRYoUyfGPjd9stya/f5PQQhzuvS7A5QULFjRu3PjDDz/M2TF4LJw6deqf/vSnBx98MAcN9tvmr0nG7IjaPPiE0f/ll1/yc+YcYYQ9MriB69atGzdu3Pbt2z2X7DR3ELDfJMyde5G4JatXr+anrHnkOBLXks6WuW9hOkcfW3fm8dm2bducOXNiW5bzEvabhKFuUSZ/pyuUQYVJiIVqzlKz3Ae/hX/4wx/OOeccfruzQNyo1Frr1+bHJwwsTZo0qV27NjGKMML5KpPYTwtmi6/i7bdQ39p8/cgWiHEdf/goEKZiZGqtTZU2nMdg/5Fpe//+/cWLF0+MxQrK3cljOy0Gnfqbu2TJkuuvv/7000/nwahcuXK3bt3eeecdtxseG6KQPXr0OOmkk3AhS5QoUaNGjYsuumjFihWu2NixY7t27Xr//fevWrWqf//+1apVK1WqVPv27R966CF2k1Ry6NChV199tZxSoMnSpUv//ve/U7j22mtVTArPPPMM9dddd53WP/nkk9Q89dRT48ePJ4pdoUKFQYMGrV27VgS++OILdDIWjKxZsyZGYpW2DVmIaOHzzz9Pv1dccYUqGT16tFiyZs0adg4Bh/H+/ve/f/rpp5H58ccfH3jggbZt24JY9erVL7zwQhbp2lYKKbHWo1NOU2utR1tEfOiXO/LKK68EBCKWL1+OAJ8ltZmPEDVsQn799dczZsz45z//+eKLLz733HNTpkyhRsXePnzIKUWaAJ1etULuIGAedIrvxRNPPPHHP/7x0KFDopdtHI5p06axG3bLLbdQCTtfdtllzz77rNsx2/Ecr7766rx580499VS5BEvyjMFWjz766DfffCOV7x4+3nrrLZ7eo48+msr3Dh9ylSKFq666ipgmbevXry/1+heup/6UU07RGh5patDPBuP3339PPc/zxRdfXKdOHerhQX2wPzl8QC4vv/zya6+9Fn5lHdFCtrbQDwurJStXrqRm9+7dd999965du6T+jcPHUUcdBYYMWSo/P3ygFiVHHnmkVKbKWrXHLaTWWo+2iPjQu9x0kjRcS9zyd999t2fPngMHDmil1Pz73//euHEjYROpZ25jMps4cWL37t2ZgKn89ttvkZGrFDhwtFWJFXIHAfOgU3kvFi5cKOxcpUoVfBa8ErisUaNG9HHrrbfi2FJ44YUXhJ379u0L6bCHDmnedNNNLEJ5SPBkPQbBRTyot912G5I8ZuhHYNasWZr/gOOJTmlFYdmyZXjZHiUxTxcvXvzDDz/gIEPNrVq1Ystx586dffr0gZ0rVqz40ksv0TWkP3jwYFRNnjz5jjvuiKlTBeKyELaCPu69997333//8ccfr1SpEnpwqGFn/GvcyTfffPOss86iEg5Syk6htWp2mEJi1no0R8OHKfA3v/mNzkCeVgGnUDMHK54uXbp06NCBiArCrLp0idaxY8eWLVuKBgq9e/dmfRag0C5lCwHzoFOJ/GOPPYbvzBqcDF95Ks4//3xcUUIHPB4EB8hXxQOlS2o4lcggTs3w4cM/+uijmTNnRlxpEqkg0CGG0gVkRFvI64YbbihXrhzrfdwouYrLjObEhkQA4eabb9a299xzz759+4oWLcoSuG7dutTD1EQboIxRo0Yxkdx1113EcFQ+oBCvhQz2xhtvRCFw4T/KrNCsWTPW8oIY9SeccAJ+n4ZiUmhtwEAiXkrAWo+eaPgQa/JIhj9l85BwkMgTQCOdDudaF0OsvcqUKSNXKZCNHl6zSWYSAfOgU4Y21IxribqBAwcKO4vqBg0awGt4SdRTA7VBNJy6+zbQ93HHHcdVf1IqDpTERkQbf3G3+Ut+Pg67ViZZoBc3HIy2CRMm8Ldfv37Czqpfeoe78eK1MoUFYLnyyitVYb169aRMpSIGp7BGoX7Hjh1ytWBZq6NLX8GNbvEeikQ2JISVvk5Nc8oRMA86ZZDi2LKuRB2+nkfppZdeqjW1Dh+EBYlFsJ1IOBI3kALremREgwpTIEory3ytJIKMG8t8QExYK5Ms4JCWLl1alcD+xDQ4nTt3LpuZWu8WIjr7rkBiZdYEbEhqW81SwA3USgolS5bU04JlrZqd1gL7q65+Wevo1oh7ycq5jIARdMruDgQtuggFBCiFgtn0GzZsmDCySEK4BBMiOjjkgXi0IcyaFOeR13w9lxI+PeaYY9y27FjK6aeHD/eSlnUfT2tSUhBfz69Kmdp/qWBZ67c/5TXsqXoi17r4SHlfpjCtCBhBpwxeDeRpRDii6iFDhpDpwSV4tnPnzu3atSOJjaAq9cQ9/E0IJngqiYfI/r5ERTxX3VO/xyQNXRkpY4xbqd40CSEY6V7S8sknn6zlFBbCJ4dopwXLWjXbCoZATASMoGNCFFaAuDMLSTIx1q9f72lz++23k5pKMJqNOPKOuUqYgmwE19cmJ4F6P6XiwpKZ53pAOIxkXCDs5qh5epQlrT93atOmTR7JiKcEVdjqZBcO7uvVq5crQ3CGXEBCwBIFdi9lq1ywrM0WStZvQUTANglTdtfgUF69RR1ZdC7P7t27929/+xvBXIIScDdsiwzZHS47w8IkbFEP/XkMYttw0qRJbiX5G5yyhpXuKKv/y069SJIYQIE4MmnFUsNfMvYk1U9rohUYi2QH8mKLqwF5Ek7I3CKFiwzCaM399X4L/TIJ16Tc2oQtSbhhWvGJaJVO+REDaxGbWGXmETCCTiXmZJ6hDi+VhA353LOTRtqD8CZpxcKbyJDAqzFo8qDPPfdc+dZEZVjXLF78Y0dRaniLRHKlCT5oeFpTpsimYg5gSpAtNeLdvBQjwWK2Ism8xil2NQeUJbGPtj179pT9QNx2krtJaKNV+fLlzzvvvIDmnkt+Cz0CSZ6m1tokjUmgeUR8eLWE7BTWXgkojNmEPQ+R4TvtNm/eHPGDF1OJCaQbASPoVCJMuHbAgAFoJE+5bNmyRGmrVq0qbypD2Xw3EJXwHQK8MkC6Au+D4AU3bNiQd3aRpP6rr77iafHYxGYgQWqcVtby5MZClORWy2QgkqiSJxzuJgGW3nnZBD+XqzzhbLsRrSZbjrdRwgeOCY5Luhu+P3RPQ0iZjA4mHvageIFYn3CPtRFP/RZGFEu4MrXWJmxGwg0j4sPsyOch2rZBwn1JQzZdJdzP5423Nf1xuST1W/OUIGAEnRIY/6cE5hoxYgREjK/Kq3cENEh4wr8bM2aMCOECQ9akpsKzOEdQM6Fk3pxWR2n69On/U3fEERA3YWvYkKS6rVu3Etm44IILeMuOLlSMtzlGjhypiWg8bHAo1Mwbd1zCBuIk5Gk8/PDDfO0DrdwvaJeyW6Nq0ck7hGTgEXhhLLL5yYtns2fPjrZzqG09Bb+F/n79Na6pHgv9wim01q88TE14a/3a/PigTaIQIuzBU079evw10ST5RLVo0UIzGll1RezCKrOLwK94ejlkfc2kqpGpkGalqW33e2arAVOGdtJyASoQFmDxSKCZvGfo0mM573Rt2LCBEAQ7h5qE4JGBTHnjGYImdgyb810Z5G8QGg5wXQk6yzsv+lTj8BJ3xr/Gg4735qo9WAtB43AxB7ihcxUIX/BbGL5tSMkUWhuyxxSKZQCfFFqbLVUJ80Oa+ComDgn3W4TtLBrzVNMH5Xif4Wy1jYlI1gUIEGuM2G8M/iyHvz5aDY5z06ZNo13Ven/iHWyu37qgYvEWMLVNmzb+VkTbCaf46z01fBWfBHCo91voEU7+NIXWJm9MvBoygE+8JuW4vLshH9PUbPFVwv0Wkdfzac/Y3K/FijlUFchWWzXACtlCgFgK3+IUs3cC6ErQMYXTJ1CwrE0fDnmmWRgs/KCyxVeJ9Wt50OHvrEl6ESASLR8774WcPC9Y1uYkhGZUphEownqQZ0yyr3g3IYEQR1baZhqnbPSH18lLhp4v4siGIdanIZC7CMQVKixwXPefL5zFaNlTopwAQWelbe5+XlJnGV+xxJE6fabJEMhDBPQdnzBjK3BcZ2l2YW6ryRgChoAhkAUEjKCzALp1aQgYAoZAGASMoMOgZDKGgCFgCGQBASPoLIBuXRoChoAhEAYBI+gwKJmMIWAIGAJZQMAIOgugW5eGgCFgCIRBwAg6DEomYwgYAoZAFhAwgs4C6NalIWAIGAJhEDCCDoOSyRgChoAhkAUEjKCzALp1aQgYAoZAGASMoMOgZDKGgCFgCGQBASPoLIBuXRoChoAhEAYBI+gwKJmMIWAIGAJZQMAIOgugW5eGgCFgCIRBwAg6DEomYwgYAoZAFhAowhekckjPWghviDbRQmbahu/FJA0BQyCPEYiLeVRYC+GR0SZayEDbIvJ73tKl/DZK+F5FMltt47XT5A0BQyD/EBAGCz+ubPFVYv1aiCP8nTVJQ8AQMAQyikCR//u//4Pas/K7gsn0m1GQ4uzsxRdfnDZt2q5du4499thTTjnlqKOOonDJJZeImvnz5y9atMitiVO9iecEAp999tmWLVuKFSvGb5ZnzCAemRkzZuzZs6dLly76W3w//fTT559//s033+zduxd7SpUqVbly5aOPPtpj1ffff//FF194KuUUEjjuuOP0UhjJr7766s0336SXrl27yo/eafMMFzA+fI/JcE5W2hZxf4SQsnsafthIZqttXEZmQPjpp5++4oortKNt27bNnTv3pJNOUoKeOnXqQw895NaosBUKEAJffvnlmjVrMkzQ69evp99y5cqVLVtWsNq5c+e7774LZbvQ8TN9TZo0ady4sVvJR/Htt992a7RcoUKFs88+W0/DSDI9MPatW7cuX7781FNP1baZLyRGWdniq3j7tRBHij9Rd955JxrxYgYNGnTTTTdVr149xR2YusKKwA8//PD+++8z+mbNmgkrsfCdOXOmsDMke/LJJ9eoUQN/9tChQ0iuW7fOhQqf1z11yx6OCyNJE35yHiUQNM67q83KKUSgSAp1maoDBw7g0YADND1kyBAKuBjXXHPNb3/7WwPHEEgSAagQRj7hhBOOP/54UfXBBx/s37+fMlzZoEEDqfz6668nT54MmxNJq1WrlpIv9QjgOnTv3l0k9W+RIr/ggZCSmMHBJ3zp0qVnnHGGarNCChH4xY1Jod7CqUo3lHFkBAH5EBdONHJh1MQNmTUhqaJFiypVRTQMr5ODDQP/VWiR5sQN/Je0ho7gyuLFiwf3krA9xJc/+ugjusNN1k4hR8rsZyg7c0rwgVO4++DBg99++23p0qVFXmiX8EhMdyG8ZJ06dbCBCDhevHak5lkheQSMoJPH8GcN5513nq717rnnnjFjxrAUJcQxbtw4Nm1Gjx4d3BMbOA8++OCyZctWrVpVsWLFli1bshHUv3//4Fb+q2PHjmWXsm3btkS977333oULF3788cdMGC1atHjggQd4Pt0m8AX7mcTNCaey5cXquHz58q1bt77hhhsaNmyokhj/+uuvd+vWrX379sOHD2efk4UCCnv16nX55Zf/+OOPVLLWZlnNQrtVq1acuptO6Ak5uvHjx7PlhRLs1961MHv2bBCGX7BEK6Ugl+AIceXwHxnR2rVr4TUUIgNvMvZGjRpVq1ZN2y5evHjTpk3UHHnkkdAfjEbX3DX+IrNx48ZPPvlkx44dUDyn+J5s+UJJnj0xAgLvvfcee8J0Cr8DIBp0B0/6St4e3GcGwgSABy06mU6IAgM+nxap0b9KwUwtwpsM4bvvvkPA8wHQJloIL0kTPt5MXWwqrly5ko+NKrFCqhAwgk4Vkke88cYb8gyg8cPDBwW8Krbd2RIM7gaZCy+8UDwXJOEFjueff/7ll19+7bXXPCvQYFWwEtpgjb///e8bNmwQYTiaY8qUKVCJMhTsfNlllz377LOuQpITOF599dV58+bp5g+PHzp379599913w0Qiz3g5oCQoHmKVSpwpDnqhO1hPKsOPTmY4eMc1ScvkDHz66ac4a0wP8KDWw8LUc8pEyF84ix63b9+uAhQYLK1IPIDBFYF9+/ahjdFBdiJMK6Fjhg/FuxrwRpmZ4Ot27dqpm4wwU5c2h+LZxAOis846C8dWmidvD9TMRIK2E088UacHPHp3Z881lV0+OVWvVj9aNF+wYAG3EkCYRYCCRZ7bNrwkrbChatWqbF1iHhOzwuIqtHIyCNgmYTLo/aItvip+nFQ9/PDD+MJPPvnkLySinEAcffr04cHAFXrppZd4ulavXj148GDECSbecccdUdoFVePMws6XXnopVAV7nnnmmUhDLn/5y1+02QsvvCDs3LdvX0gWbsJ5Z2OTx4x55amnnlJJKUC7kBReOcoff/zxSpUqUY+fjn5yrebMmQP9QUxU4nsqZcc1OqYinnlldo8BRFSlRicez2nt2rWpgXCFneEO6HjAgAHnnntuvXr1RJgJTAr6V+gV7qtZsybZEbA89gs747F27twZfFg6CNnRtXCl25yGBHYhbnG98Si5gyqQvD1gKNNGmTJlVG20Ap8f7OcqM4S60kq7sDO2EZdAjNtNThFZRjrB0Cq8pBgg/juuujaMZpjVJ4CAedAJgBa5Cetf/YziMnuSnCK3OVxLPARXjqUiWVB169aljg89YQeoatSoURDlXXfdBVMEaIh46Y9//ONjjz0ml3r37o15PJnMIiqMh04ZO4mKiO8DvxCdYLFPvCJizuz9999/44030orkX/xcmUVY0fOciwbqWYPzuCoPxjU6Ul/UPH8BisRCphmWF82bN1dfUvgaPpLkM6En3G24VWRIlcW/Y1UB02GbXzOhj9NOO03rYS7KjKhHjx5ENiijrWTJksyXlOldfXBOmTagZgpEdagHVRxeyaygkiN5eyTWjCrMOKwy6h+WIG+99ZZcdkekiRkAwqcLomfZIbeYO8WtVOHwktKLEDRljNRFQ1T77EKcCBhBxwlYGsQnTJiA1n79+gk7aw84sxA03D1r1iyYQutDFv7whz+oJFwDQ0HQrG21EuqH2ogVCLdKPeQi4WNPiICriF155ZXaXH1SKlUDT36VKlV45qFRkUzt6PCR0Yw7SSSBjuiCU7iGgrjPFDp16kQNE54yOJWsCcQxj0jQ9evXR0YOlMPjlAncCztLPUxE2B2dHhqC3H9uecQRBHwQg6pcgk7SHpSrzcEEjdksmPDfaUIetEarOZXgGwsUlhRaj53I4z6vWLEC9GSw4SVl1GqSxvek3v6mBAEj6JTAmLgSEj9YbNKelWY0Fo7ozAZ3CT2xwHdlZPUNT2klrh8HEVKiMUuWLCFqDLFSII6BDOFUlZQC+0slSpTQSn2DS1NW5BKepsqkfHT0xSIAm3FLhaDFfYY3iTNIv0wSHHRNYBrOgis5hMQRIPaq5kkBVtWxUKNs6Ia5RdLNoJAaZiZlKKkhsAvxYaGc8jdJe9Agd40xunaqfinQKesediM5ZSfT834jHy0uwcVufJ/oM7ML+R5gwjwnBB1eUvrFKgDk06K4eQyz02QQMIJOBr0UtGVHTrTAJhwRNeq+XMSrESuhY54c9xIBE/eUMg/Vo48+OmzYMGFkuYqY7Mt7hDkVivfXB7BGykcHF5A5ACmzFQnjYC0BB0witoDZYhsuMOFydq78pkascTkLAYn2UggTVvL46RH1J2mPmkRA2XNPtTs+Oe+8846Ekkm/0XiFClBgASFrCLeSgDsETY27tAovKaqEoBU3V7+Vk0TACDpJAJNtrvvsV111FTHTiOr8jltEMbdSYw5upafMqzRPPPEEldAcXRNI5X0HPC/qIyYFxpVMIn2lY3QsxiFoXFQ26zBJVvQsBXR0hPIJgMgpTiKbmfjCuP+8Eg2tq5gWPFgpL4tmFUu4kKQ99AsD8tfdynONYc+ACYkaBkIgyxMoU0lx6j03USnbBSG8JMrxvsXBFyO1OyukBAEj6JTAmLgS6APPiOUhXEZasauI54RkLxbyspZ3LyVfJrQtSSZsHpJ9oVs9aJZNrWh0EFfX6RgdIXKiKNiP7yx0A4AaV6Ve2BkZMivcmIxEOfwhDs+INETjOpUiA1DsoRHT8Cdie5ToafL2oEqSMSK6qKSICDsDhRtfVgMoMHDyJrmhbBvA4O4lzdwnDhOXpCohlCQfFTFS662QEgR+sQpOiUZTEhcCeC6yy/TMM894GIGEig4dOhBaJRs6Lp1hhIkACFWdf/75LjuzWJYHXtyoMKoCZNIxOnTKfiAetASFcJ917a/hGhbvLjuz5ylkxC5ogMFcgumErfDT3UA8VIsDzlaY9hWsR64mbw96JIjE/fJsxIEA73MjQJSG2LHOUh7DmHLEUybi5C4LUMj7LyIsAffwktqFBvd15aGXrJA8AkbQyWOYrAZy11BBoLlnz56yH0h0lZdKSFCjnieHdxST7cPXnkiu1JGwrCRCehkpw/hEXPJwgU9B2Iq4Rjdx4kSyPngfJFi7BjRkjtFTWumWHWSq7iFlTVEHW2kV0IW8oYMk6eEQEPJswbGakSaeTdEAPamyR2dQzY1BMzONsDNlBNhqxpv2HHITmdLkdhOLICNIKlm0sakoEOFZyw5heEkdNfOWlP17qipjhYQRsBBHwtClrCHBXzLVyKgjkYOHH/eQt65JPKAD4nq8t63bXynr8ogjSBlmPpg0aRIpVsRnyWWGlynz2JP+gWvGWn7z5s3JR1fiGp1sh3ripP5R4xoTPAElLsELGunmFIIm7gyfQkDMPbh1LMDFEcaLFHaml2A2gc4YOMNHkjf1idFrwIfdSPHf/VZFrEmJPfCvGM86gBdqpCPGqN4rMxCH3wCA4qCe3QXIHTqmFWnvfK50ccAnoWnTpto2vKQ0kQ8qtwzYVYkVUoXAr/EOOESdlOP9m462qRpehvXo4tdT0FPskbJbQ+XIkSN5h5AlKoEFspXlQ8/XceD3Rds5jDa0iPoj9vvcc88NHDgQeWgLp5XVLu/X8Ga5OrDTp0+XXiLq1CFoIZpw+NHhwampoi3aX2VJLahkx44d1cnFZ4SJWLnzKqC+GA1JibBYDv9qWylgBl+EAm3JxpewMxzESz0EnVwjPWOnudS49cnbgzZ5i52JU5/WMEscNQN+J27OfoMMVtiZEVHDzofrAYSXFKwkUQfz/DB6UE3TaS7wVRgbZPhhJF2ZX8kKhSrayycvXhzT0bbfo//ZlZZjytBO/y3m/3/eRYSgeXKgGF3YpnXY9CjBVr4CzXVF09FpJkcHNRO6YUGAh+hJpItraDwg6METJwjAfYmrrSucpD34zvIeI2/VR4s1u91FKzPZ4HdD7rj2HAGPfBhJ4irE4uiLV1U97+9EMyAl9d3vma16XrrhP19LHf5IB1+F6T2xfhP/wIWxyWTiRYDXHNq0aeNvhevEytRf76nh2+8876d4BPyn9Mjhr09HDR1FHF06+oJSOZLXjPfNkbyeJO1htuaApnmZKBmCxs+VF2dijiiMpHxjCYuYTLJzTMvzScB+k7Bg3E2SLm677baYtpLFHC9Bx9RpAjmCAG9vE3QipEAoWb51JLuGsR4iI5OQiBvCzrxJAe9J+Y3BjZU3HkkKDFg9+BtSk5W29puEEe9FzlUSiZYlUs5ZZgZlCgEcZ3xVfsiK1/Hl6wkz1XPkfjCDC8Tls5sBHS/PymBolVhDmmeyraXZRf7wWa0hkIMI8B1+OIykl3hS5jNvKkk+pIQSxWabMfO9F54eLQZdeO61jbTAI0BWCV9OzVoqWykTiiDbCXw3LFkiHFpphZQjYASdckhNoSGQRgSyTs0yNpb5yeS0pBGg/FJts19+3U8bjSFgCOQRAkbQeXQzbSiGgCGQXwgYQefX/bTRGAKGQB4hYASdRzfThmIIGAL5hYARdH7dTxuNIWAI5BECRtB5dDNtKIaAIZBfCBhB59f9tNEYAoZAHiFgBJ1HN9OGYggYAvmFgBF0ft1PG40hYAjkEQJG0Hl0M20ohoAhkF8IGEHn1/200RgChkAeIWAEnUc304ZiCBgC+YVAEb4Zi0MGpYXwY9QmWshM2/C9mKQhYAjkMQJxMY8KayE8MtpECxloW4TfcqYb6VJ+ayB8ryKZrbbx2mnyhoAhkH8ICIOFH1e2+Cqxfi3EEf7OmqQhYAgYAhlFwH6TMKNwW2eGgCGQWgTsNwlD4ZnJ3+kKZZAJGQKGQCFAILGfFswWX8Xbr/2iSq5/hN9+++0PPvjg+OOPHzBggNp68OBBKvXULfBbRLVq1XJrCkqZ36vesmVLsWLF+G3yjNlMZHDGjBl79uzp0qUL0Em/P/300+eff86PZ+/duxd7SpUqVblyZX5/z2PV999/z+/yeSrlFLfuuOOO00thJPmVvzfffJNeunbtar8jpdAV8oIRdK5/AMaPHz9y5MhTTz3VJej333+/VatWEU0/66yzpk6dGvFSjld++eWXa9asyTBBr1+/nn7LlStXtmxZwWfnzp3vvvsulO3CxQ9NNWnShF+wdiu3bdvG9OnWaLlChQpnn322noaRZHpg7Fu3bl2+fDm3W9taoTAjYJuEBfLuf/jhhwXS7hwz+ocffmCqw6hmzZrJSplEppkzZwo7Q7Inn3xyjRo18GcPHTqE5Lp169wR4PO6p27Zs+4OI0mT008/HSUQNM67q83KhRYB86AL5K3nGcbupk2bTp482TOA3/72t54aO42GADDCyCeccAIRJJEhcLR//37KcGWDBg2k8uuvvwZn2HzRokWEj5R8qUeAAEj37t1FUv96flA1pCRmcOBEL1269IwzzlBtVii0CBhBF8hbLx40fl/FihUzPACCtgcOHICkihYtqlQV0Qa8To6jjjrKfxVapHnwD1TTEVxZvHjx4F4Stof48kcffYRtuMlqIeRI+dhjj1V25pTgA6dwN6H/b7/9tnTp0iIvtEt4JOakGF6yTp062EAEHC9eO1LzrFDYEDCCTuUdHz169Ouvv96tW7f27dsPHz58/vz5BDRbtGjRq1evyy+//Mcff6SSFTSLZZbPBJE5dbeSMIUNq1GjRuFAwU04yFdffbXfPvSsWrWK+jCRSkLYbHnRXdu2bf2qZs+ezWoafsFmz1W5BEeIK4f/SIB47dq18BoKEYY34aZGjRpVq1ZN2y5evHjTpk3UHHnkkdAfjEbXTCT8RWbjxo2ffPLJjh07oHhO8T1POeUUKMmzJ0ZA4L333tu1axedwu/ly5dHg+7gSV/J24P7zECYAPCgRSfTCVFg4PVPe0rBTC3Cmwzhu+++oyEgSPNof8NLoqF69epMXWwqrly5snXr1tF0Wn0hQcAIOpU3mocKht29e/fdd98Nv4jqNw4fEM20adOgS6nEReKAhj7++GO4TCrvvffeu+66C5dQTtnThyWhJznVvxAlDzCn8OBf//pXyBqiadiwIQttAqYqJgWJZsI7nno5JWfg008/xVljInE7goWpR4bsBf7CWYxr+/btrhLspBVGwuDK0fv27UMbOEB2IkwroeN58+ZhuasBb5Q5DL5u166duskIM8lpcyieTTzAZPMTx1aaJ28PiDGRoO3EE0/U6QGP3t3Zc01ll09O1asVp5hKmi9YsICbDiDMIkBBmMJtG16SVthQtWpVti4xjylcYXEVWrnwIGAEnfp7De1Cx7DtmWeeSXnYsGFkj11yySX0RAbVzTffDL2OGDECvsajhLL79evHJeKbQ4cOpUCSGbTLcz5nzpyrrrrKQ4sISABatEnAlDLHrbfeet99991www1yKn8JhkIcOge4lygTUZVoyYYNG1yC5lQka9euTQHCFTPgDmrwGRkCUwsHV3GrlaClldAr3Ae/MEPA8oxU2BmPFd6ByOBlBgKb0xduo6uB5jVr1qxbty50Tysk6W716tW6CEjeHqYWmTbKlCkjNgf8hZ2xHwFmCHWllXZhZ22LJPMla4KWLVtqACe8pOjBf4egcdVpqHOSdmGFQoWAEXRabvf9999/4403ohq2xXsdPHgwZdbpJMCJT0Q9K2seQthNLLjjjjsoEAp46623JOW2f//+PKsdO3YUAf2rKRy4gZ06dSJKgLeLZsh6yJAhMI5MBiI/aNAgbegv4A/SIwxI5KF58+bqSwpBww6SfCb0hFWdO3cWGfJ84VliETAdo/BrJvRx2mmnab3EZBh7jx49iGxQj7aSJUvKJie9uwTNtIFPjQzxH+qff/55RgqVq7bk7ZFYs5ihaiMWmGC4I3LJHZEmZgAItwnYWXZIWjT3lJuuwuElpRcNsGCkEXTEm1J4Ko2gU3+voaErr7xS9darV0/KVAo7c8rzXKVKFZ5kyJFT1uz4yxQuvfRSYWdp0qFDB9Jvly1bJqfyl9gIBWgOHxxPTSoJ/hJqgCOuv/56SNATsRWZiH/xiLEBd5JIAiYhwyl6KIj7TIFpgBpio8rgVDIfiGMekaDr16+PjBwoh8cpE4ERdpZ6mIgAPTo9NAS5/9zyiCNYi2NZ8LAAAEAASURBVCAGVbkEnaQ9KFebXbS1Uy1gNrEdCShxIzRajYAEoFmgALvWYyfyrABWrFgBejLY8JLSr5okDdUYKxRCBIygU3/TiQCUKFFC9ep3BXgCxPiPKkPAUcICkgmr9RTatGnjIegJEybAL7CGuzzHPf/zn/8MOxPYZROS6IqrJKCMVQsXLmSGwC0Vghb3Gd4kziAN6YiDrw3DVYez4EoOIXEENGiuvcCqOmoqlQ3dKIoIuxkUUsMcpgwlNUw2EB8Wyil/k7QHDRIaYoyunapfCnTKji67kZwStfC838gsyCXumhvfJ/rM7EK+B5gwzwlBh5eUfrEKAAm+K24ew+y08CBgBJ36ey0ZC369AVygbwz7Kcyz4yRqiYRqMFQ7IsANQXNKiDY8QcMFhIAhZRxzGIfIKQEHlBBbwGUW5bjABNMJjGpfwQWXs5CUaC8FAtDBDbnq8dMjyidpDzrFJDCEDSN2wVT0zjvvyKzJBqzGK1xhFhCyhnArCbjLW/hsG2p9eElpIgStuKkeKxQ2BIygU3/HPS8phOlAU7U2b96ML+w2Ce9GaYIBEVtXQ8wyi3EIGhcVRx7jZUXvfqEHLzQTABE9TBiVKlViIsFmXomWeIunC43kSL3ysmj2CCdwmqQ99AgD8lf4128ACYJMSNQzEELtbFf6ZagRp95zu5WyXRDCS6IW71scfDEyYtdWWUgQMILOiRstyV4QK5tp5513nmuTpLtpDX4ZcWf293GWb7nlFq2noElsbvzXFYhWZi+OeAspE/jOQje4lhpXpV7YGRky+dzojUQ5/CEOT0cazHGdSpEhS489NGIa/kRsjxI9Td4eVMn6I6KLyvpD2Bko3PiyGkCBgb/66qvwOxsMMLh7SfIaqSEOE5ekKiGUJDOHf5GkMlYoJAhEXt8VksHnzjCJCcjO2EsvvaSxXcwj//e1115z7eSxJxBBIPhf//qXG5ZF5i9/+Qt/8eDCvMDi6sTXk/1APGiZD3Cfde1PUFuEWby77EzinZBRTIcdphO2wk8ntKpdQ7U44GyFaV96KaCQvD0ol3ATU4tnIw4EyHdEgDtC7FhnKY89TDniKfMNfO6yAIWaBCnRqvCS2oV+AHTloZesUNgQ+DUfKQ4ZtpTj/ZuOtoXtNjBeMvP4C4UNHDhQMmf527dvX/8v+pxzzjlI4mvznqGshXG4brrppilTplBPep/7duLEiRPZVOR9EC4FHBrQkA+DntJEt+wgU3UPKfMSjShkwtCPULQuZM5AkswTCAh5tuB4dUXkPdun0ZRIfUrs0VQ2yaIRzcw0ws6cIkBSM9605xBCZ0ojcI8Y+M+aNUsqCUaxqSgQ4VnLDmF4SbGBv8xbUvZvSKiMFRSBXOCrMDaIwWEkXRn7TUK90VkusK13wQUXvPjii7xHR1IzGRR4c6zBZb/INY5sjblz50IlY8aM4T0XwiNs34nbRRLInXfe6QrLC42eOKkrIGVcYyLLvFDDKbyg4WxOIUTizvApBER3uHXMB+II40UKO9NLMJtAZ6SIEGFHcty4cWxFyioe/exGaj6fGBP8NyX2wL9iPOsAAJQeGaN6r8xAHH5LAIqDeqCG3KFjWo0dO9a9TSSP85q+tg0vKU3IkKHALYu4P6xqrSAI+D2YYGSgPwTCb+242jLf1kIcLv7JlmWp7lmw66kWpBu/8AsvvPDQQw9BQJAX32xJBOPCCy8Uz9ptS54Db4/ffvvtrNOJ6vLFHdAKrajBJ/Wsi2Wrym0ebZDKklpQSV6WUScXnxF2ZuXO943oi9GQlDsofYlONWAG34gPbcnGl7AzHMQ3LJPr7RrpN9UPVPL2oFPeYmcWlKcOUz3hDjXeLah58Dtxc94SksHKjMWIqOGrVzQBhrbhJaUjwiYUMM8Po2uJlQsDAr9iWccHVOYTNiXkUQk/8jS17XHvz+9uYcmUoZ3C22OS6UMAaib+ywcGD9GTSBdXpyzh0cNEQhAgpmsfoDlJe/Cd5T1G0hOjxZoDetdLTDZMkJA7cyRHwBMURpK4ioSqevfu7Xl/R3u0Qvd7fg6vAcXkO72v2gbgkya+CuhRLiXcbxH380TZPY3ZqyuQrbauDVZOKwJQKkfyXeB9cySvJ0l7iHJwQNO8z5kMQePnyoszMUcURlJScVjEGDvHxFMEEqOsbPFVvP1aiCPkx8DE8hAB3t5mVIQUdPMzu4NkW5j3OQmJuCHs7JpkvWcXASPo7OJvvWcTARxnfFWWn0uWLMmmHf/tW8wgLm8Z0P+FpLD/N4Iu7J+AQj5+vsOPvVbSS/wv0WQYGV7Y4Y1/othsM2a4a+suZxGwNwlz9taYYZlAgKwSks1xorOeMsF3QvHdsGSJcGRi5NZHQUDACLog3CWzMZ0IZJ2aZXBsHyWT05JOhEx31hCwuTpr0FvHhoAhYAgEI2AEHYyPXTUEDAFDIGsIGEFnDXrr2BAwBAyBYASMoIPxsauGgCFgCGQNASPorEFvHRsChoAhEIyAEXQwPnbVEDAEDIGsIWAEnTXorWNDwBAwBIIRMIIOxseuGgKGgCGQNQSMoLMGvXVsCBgChkAwAkbQwfjYVUPAEDAEsoZAEX62g69g58AEfr4o3u8ByFbbrAFmHRsChkAuIeD56eRg07LFVwn3W4Qv0GJIfFkMfxP76utstQ2+E3bVEDAECgMCwmDhR5otvkqs3/940OHHZpKGgCFgCOQUAvnNYEVOOukkqF1+GZcvxo3XiU5b20059SEwYwwBQyA3EYDBwhuWNr6KYULC/domYQxk7bIhYAgYAtlCwAg6W8hbv4aAIWAIxEDACDoGQHbZEDAEDIFsIWC/qJId5Em7iTejUQ1Npq0qSbjAb2Bv2bKlWLFiv/vd7xJTcvDgQX46JNrw9+zZs2rVKjTXqVPn2GOP9XfBptDixYsJ6h1//PE1atQQAW1VsWLFmjVr+ltRQysSSd1WKrZjx44NGzbs3bt33759/Kh2yZIly5QpU69ePf+Pty5atOjQoUPlypXj12a1uRSo//zzz0kq+O6779jU4YdaSpQoUapUKSTLli3rCidmrbZyVfnLVQ4f1H/77bcrV670CGAVv/JVtGjRypUrY5vnqp3mGgJG0Fm4IwsWLLj66qv/+c9/NmrUKN7uk2kbb18R5b/88ss1a9YkRtCw6vr16yHKTp06QZQR9UMrH3/8MZfKly8fjaBXr16NAISoBK2t1q5dy4/7Qa9+5bSC3JnetBUy1Lz99tsQqyvP77cyD61YsaJhw4aeeUgor2rVqh6C3rhx48KFCw8cOODq+eabbzilSfXq1du3b6+/aJWYtdrK7cJfZoKBoqlnvhEk/TJSA8Lt2rUrXbp0NAGrzzoCRtCZvgXQROvWraEqjnj7TqZtvH2lQ37btm1z5sxJh2bVCf++++67Z599djQPXSWlMHfuXGVn/MoKFSpAo19//TVsyASwbNkypqKTTz7Z08pzunTpUiSlEiXMEMJ6EPT27duph+6ZCbp06eKxKl5rpQtcYKzy2KCnfq/flWcNwQqGoSG/c+fOyZMnn3XWWRisza2QUwgYQWf6dvB4JEDNYmUybVM1ziZNmuA8qjOYKrUp1LNr166PPvoozOoEFsbzpWv4FKcev1vSTLlB1EP0FN577z2CLQHj3bx5s7LzKaecctppp7m/Qosxb775JhEPQh+sHlDlGWl4a7VhixYtatWqpacxC82aNatbt66KMSts3bp1yZIlLBRw+WfOnMnvmntmDhW2QnYRsE3C7OJf8HonWZ6lsSeo6g4DUvv3v/+d8CTkqkq4jEu7e/fumM1xIUWmefPmjEhfAqBAdi1sy1XoDA6Npoqr8+bNk6uEC9DjsjP1RKu7du0q9EdoKKKekNZGbJtAJcaccMIJ3bp14z7SnIg5M0cCeqxJBhAwgk4xyDyEAwYM4PFmqcsDQATzkUceYetJuhk6dCjRZylT4NHl4eQUOps6dWqPHj1oyBKVzSXipBdddBFhULUvYtu///3vKLn22mtVTArPPPMM9dddd51bH2ybSI4fP/6VV14JCEQsX74cAaxVzRhJzfz584kMzJgxg9j6iy+++Nxzz02ZMoUaFSPUyyGnFGgS70u6qiqgQHSYq/AmQ+CvX9KdOWSlj4wWXHkCx3jW7DoSFnDr3TIReXnJi9hINK8Wx5y7CelzEOhwm8dlrdsw+TJxDzxx0cOCI3mFpiEdCFiII5WoQlIdOnTQ5xnPi+ODDz6A9aAkmJf1Mod0KYWrrroKyrjsssueffZZ1xSilhyvvvoqDtqpp57KpcNNvW2JSsOJ9evXd9tSJhGCevEB5VJM20RM9rUCQpw4XKQTuLthUoPXTFiAIIzogYmIOE+cOLF79+6QF5XEE5CRqxQ49u/fL6cp/Eu8+Pvvvyfyi3ccM9ChsVci0Vh+4oknuv4vZp9//vnBtn366aci4NlL9LSCClu2bMmc7amPy1pP2+RPcSDYhiXQwQ1lMrMoR/KQplyDedCphPSaa66RRC6IadOmTWRcDBo0iA7IWxD+HT169AsvvCBdUiB2yeY+BblKKHDatGmQC/R600034XBBYU899ZTIR2wb3vqYtokqgq2QFJkA4TWLJATHQYobW2HMUpKkwWOvi4COHTtCUiJMoXfv3tWqVYu3l5jygNa2bVvhWaZGqCegCfEHSXhgviHijO8/ffp0aF1mqYCGekkDKajSSn+BCc/PzojFZa2qZdYn8B3xkD1JlYxZkCgHYsyyMYVNIPMImAedMsx5yCWB9/LLL+/Zsyd6efhxrN555x0eY9JsqWHVrJSB29u4cWMqn3/+ef5SHjt2LE8sZXy34cOHwxRs4GgcIGJbhMMcYWwTPTKjhNHpl2HzEHKUehb148aN47HXKMfRRx+t2W8UIqbQ+XUmUEN6b9OmTVlwELiAdgkcBfiGTJCkx8ndwesnZMFBpyx35Pb5kyJckyS+Af8SMXDrUaVxLbeeDGvPfmNc1ooqlk0crlotExzr37+/nsYsFC9eXGTIyeMGxZQ3gQwjYASdMsB5Snn8WMiPGTOGUDKbMHzieW7XrVsX7JDiI0MQ+DLCzmIQvudxxx1HOV6fKOJ4ErYtorZolW6kBU5kmoGgCThEk09fPbEdAkS8fkKggzRk0pmj9YVjC0cTavjkk09Y9HD7RJIIDCnVRDCCUyY8MWXtBfd29uzZeqoFckXcLGypD2+t6klVQUM6EeP1qerF9CSMgBF0wtBFaDh48GC2BHnRjn1CSJlnm/U+3rSb5ORvxuYSB486EQ+Sn3i5AGqgIGRB3MDfJIGaxGyLqyPPm2ninUXcfwujNhplaL07n3kUSujgtddeo3e2YdmLC34dgwAFx+mnn47bSwoaTjTJ0bQFfHxwbiXLF08XcsqQCTiwQGEqwnuNKBOzMl5rWZb5WV568bjnMbvW6TNh42N2YQLJIGAx6GTQ87Z98MEHH3jgAfmsE4wmkeC2227jjWHirbrS97Y54ghYYNiwYSz52Qxkz/Dxxx+fNWsWD3zEqKW/eciaxGwLqRwx1gqehUIAgQaoVSWwXkQxfFupDyYjGJlAB5IS6HCTN1y1gK+butSzBiJQQ7j8wgsv1JzlgCQHDdqw1eaqJQT/e+eQbV5XwFMOaa204gOGfMQjXp7VaLvFNzx3JEdOjaBTeSOgjFtvvRWXigwzPFb9Ugj2DM8999xoPQ0ZMoRW+MusN88880zIGq+N04svvjhaE0+930vVB08lE7NNm2esoNNStBwPJWhP2NdvIaEDSSCRjA6PABMAyYj/+Mc/NK/GFUB5mzZtIEEqddvAFZCy5oMTTnGvElPiyy70EDNcAX852Fq/fPI1TE5k2qCHOHvwbJd8X6YhMQR+jWehzoWU4/0rHcfbSuSjtU1sMNltxdKbuCfOL591AtBPP/00kWXiFSycMYwsN/Zh/Baypn7yySep5/lkZU1u3M0338xWG++DyEtufvJ1lUgYwc9lhFNdscRsczVkrMzApS8JMvj7JQQhlZ6Iil9SQgcSZiXQ4YkXw6GCHtuwGjbxKJE5IIC8CH3IVSLd+sq4R0nI02BrQyqJS4zkQsGECFtcDXNKOF7mEePjbRXMV2G0JdZvEdmGpgPaq28S1w3IVtu4jMyA8Ouvv04og454R0OdX6LP7Krjo/Ek4K2wkNRtGYIYCPMSlwBIyi3vRKidbE+JZ+fSiqctwhIbRTOJIrrchink/RfVFtI2lU9TQYMeGvr0dwRvEh+AhZm6SNHjzXJXhpFKwIFNSHnLw73qL+MCa0aH/yqAszfIjSDThq1CT7IHG30shmiluWh+DYREeLebPBAonl3Bzp07+62S96r9bf01wdb65ROuwVqwlSRuJpgGDRokrCrrDYXBwpuRLb5KrF/bJAx/Z2NInnHGGZALC+f77ruPrADCjvARKRzElGnJsyd+itIoWWisfPVdCV5m4cU/8QpJ1xs4cKB88oTHpW9PW/hFNotYq/Kqy6hRo9jpYoOR6cEz14a0jV6IxvBJgpJatWoVY8DxX9bwBbAw2RAfiBgzJQosbjLTDMsO0qVZg8t6XL+ejfBRzBCHGMjSBCbSt7pdq9ltg4WJQUPTxCjYLeB2cNfInMEAauShCt7jJXdFmsN6fO0Gt4D7wgHdM2uyYyx5e/TLkIOT9pAJsFYtx+aAGY4gvkbPpQlLBJnmGQ6DZb3FFK6fEKZAPreq3Ao5hUARVpTcNrlbfHrUxwlpZbbahjQvk2IgyQ7hDTfcwOOK1wbHwUeaxTxixAjBlgcYnuXRJbuOY+TIkaR5TJo0CY+GS3yvDbxMmacdX4xIBbtPPJDyPoW/LWnLvBXCa4oTJkyAW2F8SctjhpCkbEEgpG0Ii88YsKhPBlLMQDNkwYg44EePgyzKSVIEBPJYOGWFweHplGmJALGnMtopsPMtGZLR4ZFhOiSaRMQfk5gIpUePDBEqvrnCU+meop8vhHv//fcBnMeBmYDDv6/I3SSrB4/bbesvB1irwsw3HHrqKTBveQgaOubwiHGKJMOPlqDil8/NGj5U4Q3LFl8l3O+v+UBwyAilHO/fdLQNj3hOSV5//fWEnuUFOZ5SYWd8Pb53Ao9YTMVbgZQ1TQr2ISTCVRwuvBtC1XzZBQwFoVCWJrzeFq0tzxjUDEGglg8B7IwP+PDDD/PFHTRx1+xhbKOJfBjchtK1/pVLroC/RoT99cxYkJR6zRGD8tKW76IjZVi34LR3osa80cOc5BrAVT3VgjahwPKFyUBqPALciD59+sBomj2iDYm0MHd6lv/SXGNNIsysw9ck8R2n7Ap6fGQGy+RKQgcJl8rOaoMWtFMK0ayNKOw2lLLaFlGeq3xC+EwCyDnnnFPQ2Zkh5wJfhbFB7k4YyV/I8FRzyGqauYhr/lseUJOmtt3v+V+S/5ShnQIMsEuGgCFQ2BBImB/SxFcx8U+4X0uzi4mtCRgChoAhkB0EjKCzg7v1aggYAoZATASMoGNCZAKGgCFgCGQHASPo7OBuvRoChoAhEBMBI+iYEJmAIWAIGALZQcAIOju4W6+GgCFgCMREwAg6JkQmYAgYAoZAdhAwgs4O7tarIWAIGAIxETCCjgmRCRgChoAhkB0EjKCzg7v1aggYAoZATASMoGNCZAKGgCFgCGQHASPo7OBuvRoChoAhEBMBI+iYEJmAIWAIGALZQcAIOju4W6+GgCFgCMREoAjfg8chclqI2UwFtIkW9FLMgjbRQswmJmAIGAKGgItAXOyhwlpwVQWXtYkWguXdq9pEC+7VgLL9JmEAOHbJEDAEch0B+S778FYKReovfoVviGTm21qII64bZMKGgCFgCGQOAftNwsxhbT0ZAoZAyhHI798kLOL+xpX8FlZiCGarbWLWWitDwBDIDwRcBgs/omzxVbz9Wogj/D01SUPAEDAEMoqAEXRG4bbODAFDwBAIj4ARdHisTNIQMAQMgYwiYASdUbitM0PAEDAEwiNgBB0eq/yUPHjw4E8//ZS+saVbf/osN82GQNYRMILO+i3ImgFk3a9bt27cuHHbt29PhxHp1p8Om02nIZBTCBTJKWvMmEwisG3btjlz5qSvx3TrT5/lptkQyBEEzIPOkRthZhgChoAh4EXACNqLiJ0rAvv37z906JCeWsEQMAQyjICFOFIJ+OjRo19//fVu3bq1b99++PDh8+fP37lzZ4sWLXr16nX55Zf/+OOPVM6cOfP999+vUKFCq1atOD3uuOPUgjVr1tx3331LlizZvHlzqVKlqlSp0rdv3yuuuKJkyZIqQ+GNN9545plnli5d+s033zRt2rR///6NGjW68847S5cuPXbsWJUcP348u3901LZtW63Uwttvv71161Y5pXzUUUc1b968cuXK1OzYseODDz746quvDhw48Jvf/KZcuXKVKlVq2LBhkSI/f1pWrFhB8BrJGjVq/O53v1Odq1at+vjjjzmtVasWtkXTr/JWMAQMgWAEjKCD8Ynv6sqVK2fMmLF79+677757165d0hg+5YABp02bBmlK5eeHj/feew9GO/LII6mEzTt06PDDDz+IAM05IEqaQKC//e1vpX7YsGG333675l1wiaN+/fqrV68uW7asyMhfKJJCsWLF3Eotf/vtt/qFXhQ48Je5CskuWrRIvrWLUzxothA5Pv300x49ehQtWpTKk046CY6GvpctW3bCCSdUrFiRSgid4WAYPULQzEPopJ7jsPqf9UuN/TUEDIEwCFiIIwxK8cnAU9Dfvffei6f8+OOP437S/pJLLoFqu3btyr7cm2++edZZZ1G5ceNGpexrrrkGdj7++OMnTpy4adOmBQsWDBo0CJnFixc/++yzYgEkfuutt0KCuMxz587dsmULORjHHHMM7CwC7l8cXvxfYX+3XsodO3Zs2bKllCn07t27WrVqcPrChQthZ4i4Xbt2+ObnnHNOzZo1EWPWmTdvnsgzW7Rp00bKDIeVAQfzhEwbTDMIRNQvTeyvIWAIhETAPOiQQMUndv/999944420IQKARzl48GDKzZo1mzp1qny3C/X4nriWa9eu5RLeKK4rBSIhPXv2pEB8A5l33nkHZtywYQM1HPjO/IXE4coSJUpQ7tOnT926dRs3bizk+B+h/x7C7/898/4/+uijy5QpI7UUjj32WMpEV/iLhb///e/Lly9PmV4gXCj7k08++eyzzzBYfHnYvE6dOhjPVIQfTbLznj17kCcSwrgoRNRPvR2GgCEQHgHzoMNjFVYSgrvyyitVul69elKmUtiZUzgRCqZAwJe/kLgEmseMGUMcee/evVQSFSHUC0GPGDGC0++++w6vmcL1118v7EyZo0GDBvi5Uk7mLyz85ZdfoqFq1arCzqoN2qWMAMFxrSRmDQtz+uGHH0romVbExFXACoaAIZAkAuZBJwlghObsqrkEqt9Xy5aaK+3Z+sPLfuSRR4haDBgwgLgEW4tdunTBm8ZBllbEQ6TgJ0FqXn31VVd5AmV+mULccFhYAy+iR91zDStTj5E412yKQtycMp0Q1vj1r23KTwB7a2IIREbAfpMwMi7J1JI4EbG5MnXEqw8++CC7fA888ACeMsFoYrsct912GxkguNUEmsW9pS0TgEdDtB49YsGn+/btEwHoWDYY/fKEYtxKLCHbRIIbeNPutOSKWdkQSB8C4h+E1K/CWgjZEDFtooUMtLXfJAwPclhJTUcL2+CwHK3YACR8MXv27MmTJxN9FpeZPUOiHJwSehaFREU0bKI1cfUVUVgyNLhUvXp12Rj0izFPuJVkrQg7U0kWB6fEW1wBKxsC6UbAfpMw3Qib/iNwWtmCmzVrFjRNGvXTTz/NxiCB3dNPPx10SN4gKk1ymyBFzNcDGczoqUngVALKNCR2AUe7B3MD24DUu3MPXrZsKrJtWLx4cRpyGs31TsAea2IIGAL2m4Q58RkgkkuiG6Y899xzF198sdhE9JlEN5L2SGLjey1q165NYJo0uEcffZT9RuFEJNevX//SSy9Jk7j+6o7l999/T0PIl61LvHU8d9L4eO1FtWGDvJlCQh4519STH615dbyVw6Jv+vTpTDNUEpMhvQ8Zj37VZgVDIIUIBEcOPR3xQZV9FLwK/Xx6ZKKdZqXtr7FSDZVyvH9lPPG2EvlobaNhlK/1Z5xxhrxRwpuEvCIoQS44kTRqhgxX8uoHhYceeoi/BKNbt25NojSxjgkTJsCPMLgfGWIjXMX79l+SGo1p0BEbg8S+ZfsRnuV1G94DlE+kvjeIB61evDrLzCIkepNaR9YdatWtpuzXH80SqzcEEkYgXuaRjuJtFcxXYbQl1q9lcST8wUhlQ7wAtgdvuOEG0o1hSfLVYLcvvvhC+iDNjk8AZd4OZy+RbGjeMKSsFpA7AauK36qVvIhI2Q1K6CUp0ClXIXfYmYO06yZNmpx44onYwIYhKdso1O/iwABeXSFVg7bMEBJUYVdQgjBUUkAJ7gmXeGUcyo6o32ODnRoChkAAApYUFQBO3JckycyTaqanWhC9HmG2Bwk98wIIV/kGD2FnNuteeeWVgQMHqim33HILL44TRoAB4UdI85///KekXWsQWYSF0z2dqh4KzAHETDT1QpKvSZXjLUGJnyg78xoLr64QlZbm+kohkrjVUgl36+uFIhBRv2uAlQ0BQyAYgV+xjOWQnVBcHnmqg9u4V9PUtvs9s7WXKUM7aTnvCzjCUDOuKAXypmFh944Qi4ArPakUYHL++eeTB43rLbt2eY+SDbCQI5AwP6SJr2LejoT7tRBHTGwzKoDDy4t8HBF77dev3/Lly3m9m6/gUAHSP0jL45QYhVZawRAwBPIAAQtxFKSbSIwYc19++WUSOfCmyb5gR/GCCy6QNAyIuyANxmw1BAyBWAgYQcdCKJeu//nPf5bXVYYMGULWBIkfhDVIvMNGXnKJ+L3PuWS+2WIIGALxIWAhjvjwyq40CW1EmUnqmDRpEnFqjCGswZcWsYPH12Jk1zbr3RAwBFKOgBF0yiFNr0I4mt9h4WDbwZ9al96+TbshYAhkFgELcWQW79T1RnaHJ/E5dbpNkyFgCOQEAkbQOXEbzAhDwBAwBPwIGEH7MbEaQ8AQMARyAgEj6Jy4DWaEIWAIGAJ+BIyg/ZhYjSFgCBgCOYGAEXRO3AYzwhAwBAwBPwJG0H5MrMYQMAQMgZxAwH6TMCdugxlhCBgCiSHACwHhG6qwFnK8rf0mYfgbZJKGgCGQcwjYbxLm3C0xgwwBQ8AQKAwI2G8SFoa7bGM0BPIWAb7FPvzYiGwUrN8kLOJ+Hzxl9zT8sJHMVtu4jDRhQ8AQyDMEEqOsbPFVvP1aFkeefVxtOIaAIZA/CBhB58+9tJEYAoZAniFgBJ1nN9SGYwgYAvmDgBF0/txLG4khYAjkGQJG0Hl2Q204hoAhkD8IGEHnz720kRgChkCeIWA/eVVQbyi/d/XrXxf4+TXzo9i4ceP27dtJnm3cuHFi9/7gwYNFihRJDHy37WeffbZlyxZ++ZcflkzMEmuV9wgU+Cc87+9QxAEuWLAAfvnwww8jXi0olVkZxaZNmz7++ON169YlgBKvOdBw3LhxUHy8zf1tv/zySyzhiFeVyRceBMyDLnj3evXq1a1bt+aB5yh41v/X4oI4im3bts2ZM+e/I4jvfzJt4+vJpPMIASPognczWSYXaGoWxPNjFMl8epo0aVK7dm2iJckosbb5jYB9OPL7/tro/oPAjz/+eOjQoaJFi8aEg5nvwIEDvI+LcALvEO/f///tnQfUXlP2/0e8SYT0RHqIFEKI9tNLRA0SvbcZjG4Yo4waI7qxGIxumYVoowuihEF0wUgYIcoQoiVBkpFE4r/+HzY7N7c992nvU97vs971rn3P3fucfb733u/dZ59z753bokWLjF9bJw/OL8UlfF6wYAFJ6pAOb5OgMD0Jnpcnofq1WT0IiKBLfyweffTRG264YcKECTNnzlxnnXX22WefNdZY44wzzmjfvv1tt91m7V177bUPPPDA8OHDhw4detFFFz333HNfffXVhhtuuPPOOx966KEQCoWPPfbYq6++2rVr14033pjN7t27Yzty5MgnnnjCKjnyyCM7dOgwatSo7LNMr7zyyu233/7iiy+++eabnTt3Xn311Y8//nh8sAqvvPLKhx9+GK+6dOly7rnnTps2bfvttz/ppJMGDhyIwtSpU88///zXX3/9rbfe6tat20YbbbTNNtvQO7P1/3AclVx33XXvvPMOk2DwCLWRk/nTn/5Ec6aW0ouMrdx9991MMALOkCFDvOmoMHHixPfee++bb77Bq7Zt21pHomrwIN5Onjx51qxZVIsC7Lzsssty4Pr06WP6Tz31FIC4DBFvsMEGvXv3puTLL7987bXXpk+fDrnDzhj27NmTznp0HGuL/pQpU5ZeemkAt2o53Mwc0mKPHj3A+euvv4ajcXv55Zdff/31GXNw4ICUF2yaexwC2jJb+5/Tk6Cy5OpHYAlOXH72TlXu5/lGDWWyHTFqnGM3ZuSWLle/cMEFF5x22ml2kbu3gwYNIuXasWPHGTNmWOHRRx8NG3LVffDBB1yHronwj3/8A4KDgIKF/fv3ZzapefPmW2+9tRO0KTz44IMjRowIKifJf//73//4xz9yzYcUoN2TTz6ZQu4N119//Xrrrcf04/z5802NrOumm246duzY/fff3/33GnbYYYd77rnHmYjz4fe///2NN97oCi60atVq/Pjxa6+9NiVJvcjYCjVwA+A/9wkc8CaCAp48+eSTH374YbDQZVhvr732sk1uh4888kjSvB+uGkffd999oSO12Wabrbjiityu4E2a88pN4N6Jbxa2x9pCptwViIUPOOAAM4HHWWQC9eNS6BRaZZVVuIXD6cFW0KQXHmJn8SRoXrtywfxQJr7KiWTB7WoVR05s81AgED7llFO4tIi8nn32WYIdZvw7deoEO8fW8tJLL3333Xdnn302odMVV1xB2IXagQceCDtvt912MOPjjz9ODEsh161RNqH3LbfcYrUhEGd5/BvbhBe+8MILxs7LLbfcmDFjCFTvvPNO/EQBn4n3XfPll18movztb3/7u9/9juCd4Bdq2HPPPWFnCJEAnPkuenTIIYdgwu3h9NNPd1tcMnaGOLjNwHqwxoknnsiNn0H3VVddZZqxvcjeCpVwSyBW5Y7lTYcE7nzGzhAlIeree+/NbSY2+TBp0iRjZwJV6HjffffdbbfdIESrkLDahC222IKI1WSEXXbZBeJmkASwXH4QMXzNeGLXXXflbooaYTs3pBRb2xX9b9l5Ds2OO+7ILdz4l9sz7ExkzfkwbNgwBAzRJAa3GjJ6Em1OJdWMgFIcpTw6xM5Ux8XDldm6dWtkeG3llVdmSVwoIPJWySSccMIJbJKm4FI01iOGfeihh2w0Q3mvXr1IOxpTrLDCCt9++62ZE5hnX8x76aWXEjszoCbcs8t7jz32YMhvvpF7CeZJzjvvvD//+c/uJFmU2bNnw0GEeHSHcpiaGBa+u+aaa6DdM888kwCZ8ptvvpn/1EmF5j9ZCPIzpBrI2HBXsDpje0EUn7EVKjnooIOsqqT/5BzYBYMzvDCOo7N0ITT+QIebH/+JqbfaaitL7DKU5M4EIXLPsNcHmwJcj8APgQQRAikj/tPTbbfdlkwOMsd98803h7K5Q5CvwBzMqTxqi3LSD3YmOcZe0KMqbpnI1MBt2zzkrg/C7OIGb5Vk9CSpRZVXJwINXLQcZqMPZLuosvtaKdvsHjaa5pw5c4iaae64444zdramBw8eTFR11113RT0B7cMPP9zLPWqj0A8ElyUxL+zMiNg18xU4soS6WDGaNna2GvANnmXvuuuu63VCaocddphvItx77738Jwg1dvZdhMYQNKwK61mqAbImpoOq3H+UObssgZ6URrAKs7fiDiQJ5IKNuQYMGOAZAJSJeeFKEs1Bwy233JISuDs47Ua8b+G5E3TQxGROftYyIxN6Gzu7DgloCBqFTz75JCnx7cpRwc8EdjmzU497yC2EfuGkZaLK50nUt2or4ezN7lKl+Krgdhssq4g9neS0zt5V16yUrTtQJYIFYjhjsU/QK0piCZoZniCV+5x+3759g+Zt2rQJbhYgEwkyHMaQ2DxkfvDBB4dKCNiZz/RC5ifIabDJ7Scp4euhMTlZfqRQyb0Q0zEw59aCYHRpPnjNQSGvVoKGsbJTMBFoUIHbBrG/77VdMCA/HCAlAlAMUPi5jp3ewUpcxsQiG1g4NGfgA6YUfvd6QgIs7GcCuzyNw60lqEk5BG0lZfIk2FzVytF5kXRXK8VXhbWrFEf60cxjrwVTGIQm1ikJ0YRXmlQevD5duRgB3jFz6ClnPQyfgzqM020T/uIX3OWyz55BwZdccgkzpT70RodMCPGpzzq6VVDIq5WgYawMYVk57YYUSDiESohLmAxgsUeoPOcmQwfTgY5JAcfqFxD0RD20mn0m1jaDY5QyeRLbIxU2JgINXI1Qu93nOTOCRz2LH5WyzeJbI+t46oBcRHCIihtJ2YnQJVc+hy1hSv3EhjlbCc2keTR9xBFHkKWNNV911VWtnEV7rBVBphKUmTdjmovsNuVMDMbaWmFeraTUY7ssIY5M3imkzPxnqITEut9cOYhM1ZKv4C779NNP//e//w0pBzed/Ump28RgcK/JobtdVCFaEroGLfKKqlm5/S+TJ9FGq7AkL4QrxVcFt/vTVDjGlttCDp0cOY9HpWxzOtb4CqQ7rVHWqIVWVrBOoPH9CbYI78BZjIijcSITmyw+IRnNMpKgicsQFndubuFwKMu0vRyBVAbToaTI+bFJHMfaQYTVVluN9SfBaN3yPynpwuytBB1Iktu1a2e7ooFtMLRHB5+NnckjMZ0YzDhZloMzPKkVzzmQbYCjg2oMFyB3RkKNcw+uHk+CIDSOHIon0hutFF8V3G6z9P5ob3YEuMJ50gR9xvieHGQTTmRpWvZ6cmr6GRkND5Nsue/yYDF7WQMXZEk46PLLLye5nBTjY4Ktrcbj6RuWjgWbYHkGKxYIHlmxRzk9NTpjfUiQnUmMkENAAUJ381AvsrfiNaQI3I0scc9MnQ//0cd/D5bN3PmaR06C7Mx8ppG7Z5PR9/DF0jWQL8lryrn9hIYm9JdVkiyv9tRNyNZaL9X/vDwpVaOqpxEQEEGXEuQLL7yQ6qAA1g7zqjZYj5UJRNNBYiq+PSMF6mGRNZzo01npNbMSDgXe5cZCDuMXZvZYhmEsz3LAFHPWArKXRPNOO+1k84EkClhMzfI7ykkI7L777ggeRTJj5sTHOmiWFVtSOHhHifYiYyvmJ49+gC2xv21G/9tULT0llrcUOcvmWOoX0vTYk4DXw23kceN+eVSKnnoQ7ZkE3mnHxCDdsVYgcR6x4TlDNBlq8JSmvS2PyNrHVVHbkCdFbmb3pMiGZN6YCGiSsJRos3iWp/JIGrAIF9mrJoPENewxo5cXJpAehd0IBlnTxu/qq68OrtVLqpOMMI9g3Hrrrayfvf/++yFTllgY9UDZLARMMqScVDJNsKKOWJsVJrzih2dwLGbkYbbRo0cb+/CoJAxO5TAUTrJiBF5Gpu8sROPeAEXCa5YPie1FllbMT+PclARCv379CJ9plFl+2DypdxA0+R+4FWLlvkLozQjDVptAr8bOtGWr6Cxlwe2WXvAjt864xBoiTmfpOofYByiEzOAGPtZ01DbJpcLKWUGY0ZPC6pdVRRBQBF1i2HnagndxkKtlsRpDZi7Rm266yQjUgzWatKS//XcPfNMF2xVSZgEspOxL8aJpZa8wJMCkl112GTQKGfEoIOxMrpa4lce7YxsKmtMiiRo6BT1ha+zMA3VEmsGZQ55Th+5xGGojvH3jjTcIIXkW3ENdRv1WbWwvMrZCDZYxCAEVdBgFHguEQJ3EKYHFLF0TNOQRQQeT3BTsTHqEcQ8P8lmF/goO7kNksTwTYmMXzHlG0aYlnZ2ZleXRFR9SUE/UNnRY0YmWUOj39aDPXu57KcnoCZr61QoCehdHKY8UA1uuzOi0MjlZ1kEzCLXHvUrVJMuTCU55BiR06easnzQFrpImZs2yh3g5rUyBgBSChvUgtWCiOWiODo+rwHTMPfryjKBCUI7tRZZWgpVIblIINJ13cSjFUcoTm2ftiBnJ55Id9nqZJrKn+ILPUvveYgSomSG8Jb7T6+EdESQZXIcJMX6+mZfA7YeAMd0EHX7pOr7XHjL0TRMwz9lKyESbQqD+EBBBl/KYMqCGoFnSwJPTvNSGATUL7I499liblEufiCvMD/Ibp556ak5b7g1Bgs6pLwUhIASqAQERdCmPwllnnWWz+TyXwS9YNW+MS39zcVA5u0z+19cYZLeSphAQAjWBgAi6lIeJpy3IMjMRx0oGZvmpmtCV17ozX8R64VK2pLqEgBBoAgiIoEt8kOFoHt/gR2BbwqV1JfZS1QkBIVALCGiZXbmOEou6gkugytWM6hUCQqB+ERBB1++xVc+EgBCocQRE0DV+AOW+EBAC9YuACLp+j616JgSEQI0jIIKu8QMo94WAEKhfBBpYbMDPOuhC9v66iQuNY5u9FWkKASFQxwjkxTyu7EJ2ZNzEhUawbbD3QFqTvEMne5OuWSlbd0CCEBACTRYB/7xZRgQqxVeFtasUR8bDKjUhIASEQGMj0MBraqF2i531TcLGhl/tCQEhUBwCMFj2CmqO6xrsvbrWQ+TgZvZuo1kp27yclLIQEAJ1hkBhlFUpvsq3XaU46ux0VXeEgBCoHwRE0PVzLNUTISAE6gwBEXSdHVB1RwgIgfpBQARdP8dSPRECQqDOEBBB19kBVXeEgBCoHwRE0PVzLNUTISAE6gwBEXSdHVB1RwgIgfpBQARdP8dSPRECQqDOENAnr2r1gPI9rWbNaub++tRTT7322ms9evTYd999DfHnnnvuxRdf7Ny584EHHhg8BqNHj3744Ye//vprdq222motWrSI6gT185WjnuRbQ1D//fff/+KLL3iYbc011wyWZ5d/+OGHhoaGwg5l0Pajjz767LPPllpqKT6Dmb11aVY5AiLoKj9A8e49//zzRx555E033bTGGmvEa1RZ6d1333311VevvfbaTtAPPfTQhRdeOGDAgCBBX3fddYcddpj7/vnnnz/77LMhHd9bmBD1pLB6zOrjjz/+4IMP2rZtWwBB89jxe++99/LLL2+55ZbcuvJyI2r76aefvvPOOyLovGCsfmURdPUfo7CHb7/99iabbMIlyi+8r8a3zzjjDHrQrl27XXfdtVOnTl999RUEXeN9SnSf288zzzyTuDt1RzG2qRVrZ3UhIIKuruORxRsGtnVAzccccwwszPu5vMvz5s2DkdmEpo8//niEadOmHXXUUUEdV5YQQmCttdZaaaWVyJaEyrVZ0wjocNb04ath5xnUh8b1/mLfvn37WseiOtXQ4YULF/74448tW7bM6Qz3Ue46vB8H5QLe6TN37lxS8Bm/DU8enF+KS/i8YMECciAhHd5kSWF6EjwvT0L1a7MYBETQxaAXb/voo4/ecMMNEyZMmDlz5jrrrLPPPvuQKSYqbN++/W233WY211577QMPPDB8+PChQ4dedNFFzJgRPG644YY777zzoYceCgVQ+Nhjj7366qtdu3bdeOON2ezevTu2I0eOfOKJJ6wS0tAdOnQYNWpUlnmhglv0TjIhdt55573xxhtkXW0G74ADDiAKdgUXxo4de80114AAFzYI4KfvcuHmm2++4447evfujWMU7r777sBle+nR9ddfv956662wwgpBHbedOnXq+eef//rrr7/11lvdunXbaKONttlmG3B2BReyeIIyiWkmXYF6yJAhbhsVJk6cSNb4m2++gXnJOw8cODCqQwk8SDp48uTJs2bNolpKYOdll12W06BPnz5mwlwl4wOXIeINNtgANCj58ssvmVCdPn065A47Y9izZ8/VV1/do+NYW/SnTJnCaIOTyqrl5GHmkBa5z4EV865wNG4vv/zy66+/PuMwJmmZV+S+aO4BI22Zrf3P6UlQWXI5EBBBlxjVCy644LTTTrPLkqq5lvgNGjSIxHHHjh29sUmTJsEdXOp/+ctfuHKsHGbnx7XKMgYowwr/+/PvpZde+s9//tO8eXMEfrbLhCOOOMKrTREKbtHqhEaPO+44CNc2Z8+ezcX/4IMP7rbbbrfcckswLjv77LPPPPNMT8I8/vjj48aN69KlS8g3ugMCTABaOR2fM2eOyf/++YdMc0Ed20vJ/vvvP2PGDNvkbsEPur/zzjvvueceZzH2ZvQETbs3BHthlft/uvPkk09++OGHXgL5vvLKK77pAjdXPGRph5cgYM4NGCi23npr4+jvvvvOP2CEwM+w5ZYDbzp6UCpV8aPpHXbYwcL2WFvQ+/bbb+F0b5djRAk4c1/xExK3OROoFn/gdFM29zjr9tprLwchiyfeloQyIdCMY8PPj5Nt5vW/HLZl6m25qyUQPuWUU7gYiJWY3SI8IQBksgt2jm0ahuVig0cIdq644goCJdRY1QA7b7fddswgcUlvv/32FBK9GmVDlBCi1YZAZEQMHlt5bGEBLVIPV/jRRx8Ngyy33HL3338/oR/cZJEaXp1zzjneFuRCjM/5Q1APGiwtuPXWW1u3bg3FuE6s8MILL8Djtuuvf/0r/bryyiujmtDKnnvuCTsTON9+++3MlYHtIYccgiZ3i9NPP91N8vIEWidW5f7n5iGBe4CxM0MWOr733ntvuummsckH6M86S6AKHbNqhXvYKqusYhUSVpuwxRZbELGajLDLLrtA3NwnwAH0IOLNNtuMMQEDlP79+6PGvXz8+PEptrYr+t9mLDghd9xxRwJn419YG3YmsubsGjZsmOWa0CQGtxoyehJtrvFL8iIrlM3DfK1Mv/Ft9U3CUp5RxM5Ux+nOtQQrIcMmK6+8MmuwPIQJtXfuueeecMIJFMJoXDzGNYzuWYVmWUvKe/XqRYRl1zajfsIiq4TAvIDVXfm2SFt/+MMfCAwZHcPL5AEoId8CIXLNjxkzhvTLQQcdZIljo0h0iDfRRxOWgUzhI/M56T9Lnj0oJqxO6hfZDwJD+ItxCcBSG5WzOA+uJKly1VVXEby3atWK8rw8wf8kx6ycnAMCDD5ixAjjOPIbuOHpJjfnVopM37faaitL7JIaJkkFIXJ34TiaJgpwvckIpIyQLSTnuG+77bY25uAs2nzzzWEH7hAMWTAniRFra1XF/oedSTSxi+NCVSzsQ6ZRggDzkBiC5Bu7CBeshoyexDbXyIU+dZGxXbqJph+IjFam1vi2NfOkQ144VkSZMaatCSMVYOxsbgwePDg2UcteLsXDDz/cvfU4i0JjZ3ZxIRG3IpAQdM2ChQJahJoJ62iRINrY2VqnKhLByKRcTQFNWzd28MEHGzubJhTDGgOTi/x/7733UgMBrLGz13biiSciw93GmKX1hLyBMRd3Ds8A0Bwxb7Cb5gyLmkmIE/8Gp90YfFh4nsILXPwMOKiE0DuUESIBTTkKn3zyibWS138/r7DyuwI3GPeQW4j1a/78+dZQmTzJy20pg4C+SViy08BCJ6qzaCVYLyV33XVXsMRk5mSCVO6z8L6MwdTatGkTtS2spIAWCdzgO5pjFivUKCE8vkGLFt3z1AbJTXQYSoc0SQiQtQgV5rtJrEROAytuhCRkY82ZP6S8tJ6Qt7W2gvcnSrhFEb/7XtOBAfnhKikRQmaGO/xcx0Iw0wz9x8SGWbCwz0CYjg+/Uvg9VJtvwsJ+XlHoaZzQrYVyS4KjUyZP3KXSCsHe5awZ/A1DBiIeA+W0MoWK2OqbhBmPTm41CzrQC02FUxK6sL2upPK8zjmvLYtQQItMUlrNliIPtUI+59133yXbTrmRI0IoAKTEspwh23w3uVWYCdzHL9bcZlxL6wmEZW3ZHF2w3egabcJtEv0s9giqZZG5z5kadOwLWkKGwTnA0K6kzaiHphmcTaUkyFZl8iTJwyLLg55nrwqrwgwNq0az1SqO7Mc0h6ZzELmI4KASs6TsROgiydFAKXYX0KLfb2JZwxLHZMnxzjWJAUmjB/0tIPQLmpvMOkUTWLhChjeqQMmqq67K/9J6YkltqvV1Jt406R2XTSA57rdqTgnuatyu8Ofpp5/2W13IxDad/ZlmsInBqBrJ4mhhekmISpJCeCu3/2XyJN1P7Y1FQAQdC0shhb5ijEVioZUVzOwXUmN12Hi/WNsbmusj4WBLtUynX79+DKgJAFmhxbrmoPtJAW9QJ6cM2REPwvUwNQvGg/okYZiYJVlv+frSesKj59ZW9Bbls2qmQOxp7Ezmh+nEYP7KshxJ/Ii55xzINsDRwd6RGobcGVcVcH8N1pNRrh5PMjpcx2qaJCzZweWa5EkTqrvkkks8nccmo10WhJWsmd/8xld3RQO6ErbiVcELTFux+be//S0UMF5++eWmZiMGJppYMEAJ/fWsK5ukHVihbJrF/CcYtPp5DohlZ8GqWEnCVCSBJ6uhKS+tJ0TQNg3AUgof/tMKPniwbM44X/PISZCdWXhn5O7ZZPQ9trWpOciX5DXlTGaQtrYK7T85E2ZfH3nkEU/yhGyDysXLeXlSfHOqIQUBEXQKOHnv4vVs2HDR8jIjXjhHZoNVB0TTNsmWd3UJBnYZs5NF1rB/kAoTLIotZmUeVUBPrBp0DoIlL774Ysp32mknf5TRNFlOy0OGlv3gP48/eBq3SFesfhifRi3RzD2DpX4sv6NmkgkeueflyX333ceRYuF2kns28QuTsjLd0twMHXjUM6TvsScBr4fbyL7EG289iPZMAkl8kkLcbq0VSJxHXVhsjibDhTfffBMFGiKy9tFM1DbkSZGb2T0psiGZpyOgFEc6PvntZbkrK89YDc2yWWQ3toG/R75eXphAQhOOJnxj2S8/XuMZXKtXWJ3pVjxtAX/xg8iI4whUCQmNf5l1xAE356mH/fbbj3c68yA7S7nRZEEFU1s8HslzEK5WsMDyNTrLkmcWcrDWhdcDMT9p8SZN0K4zV16eGOemJBDImXB/oi/0GhCS/IegyTvDrRArKzEIvVnWYh2HXo2dacsmUS1lwc0bdubHTY7FiNYQcTroccLYqhiaI2Sm7/TRmo7aJrlUWDkrCDN6Ulj9ssqIgCLojEBlVTv55JN5apkMKfNmDHK5qHhrsxGoh1fUZUtQ7b9X7Zsu2K6QMuN3ONGX4mVcMBCqJFiz+xPyJOgGdMP7MaBjokge3oOnIAteNUdimqVmbojA842MJOgs5ELoBwHxZLbFs8EKo/743pDgm9YKfSeFArzUjCfGzjyMR5QamjnM6AnVWsYg1FCwUyjwWCAE6iROCSxmKZegIWl6PzRkumBn0iOMonioxyr0V3BwLyEn5pkQGwlhzpJEm5Z0duYxFh5dCSamo7bmQ9CTaAkOeJQQ1PRy30tJRk+sU/pfJgSWYBjFz0ag3JbtTM3eWJlsR4wa5z6MGbmly1UuwEdcS9Gp9j322IN10Awb7QGtUvWCOTqGwzzUF7rYSlV/bD0kcOgmpJz+ckscg7vhcQLDpJVesfVnL6RyCBrGhBBDN4lgJY3gSbA5yY2AQMH8UCa+ytnlgttViiMntnko8IQbL3sjUUt22M2Y2OGpaDY9Ueu7ihSgZgbdlvhOr4rnrW2iL10ty15CV345Nbln8BhLTrViFLgREmzmrKERPMnpgxSEQGEIiKALwy3eiiEwBM1CgnXXXZfX0DAEZoHdsccea9P0EHe8WRGl5DdOPfXUnBVwbygVQedsSwpCQAiUCgERdKmQ/Kmes846y+bf+SCIfRPEa+ctd+nvGnbNvASyroye8jKRshAQArWCgAi6lEeKJynIMl922WW8k5N5eaomdOUVFszwsEq3lC2pLiEgBJq2xBnyAAAXP0lEQVQAAiLoEh9kOJqHJvgR2DI9FZwWL3FLqk4ICIF6R0DL7Mp1hFkPI3YuF7iqVwg0DQRE0E3jOKuXQkAI1CACIugaPGhyWQgIgaaBQAOpUn7WWRey991NXGgc2+ytSFMICIE6RiAv5nFlF7Ij4yYuNIKtvkmYHWRpCgEhUHUI5PseLqPXwl5Q3vi2SnFU3Qknh4SAEBAChoC+SagzQQgIgRpGgDcIZfeeENhiZ94PU8B7hxrfVt8kzH5wpSkEhEDVIZAvz1oHsCrMEPPGtFWKo+pOODkkBISAEDAERNA6E4SAEBACVYqACLpKD4zcEgJCQAiIoHUOCAEhIASqFAERdJUeGLklBISAEBBB6xwQAkJACFQpAiLoKj0wcksICAEhIILWOSAEhIAQqFIERNBVemDklhAQAkJABK1zQAgIASFQpQjok1elPDDPPffciy++2Llz5wMPPLCU9SbX9dRTT7322ms9evTYd999k7Xi9xTvLd/0atasjPf4H374oaGhwZr46KOPPvvss6WWWorPPMb3p7jS4usPelucL7IWAr8gUMarqwli/NBDD5100knnn39+o/X97rvvpsVLL720gBaL9Pb5559fc801//3vfxfQdE4TXmrz7rvv3nHHHV988YUpf/rpp//5+ZfTtjCFYuqPeluYD7ISAiEEFEGHANFmJgTefvvtTTbZBGLil8kgT6XPP//8mWeeydOoYuq15W3FYFLD+SMggs4fs2SLY445Ztddd+VNhskqdbKH4XyZqDkJoLXWWmullVYi45GkUGR5uesv0j2ZN00EynW6N000yQXza5p9L3evee1v+pt/uWHMnTu3VatWhb1Gstz1lxsf1V+XCOibhKU8rDfffDNp0969e1977bVe7zvvvHPOOee88sorn3zySbt27ZZbbrm99trrsMMOa9OmjetkFMaOHXvNNddMmDABJlpnnXWOPPLIJMOpU6eSCn/99dffeuutbt26bbTRRttss80+++yTpB8sz2k7cuTIJ554wkzwoUOHDqNGjbK5u5y2ZkXqnAnGrl27DhkyJNi0ycx8Tps2zeUWLVpssMEG06dPnzJlCqOT4cOH264333yTPDV3xJVXXhl4v/zyS5umW3bZZTfccMNOnTqZ2rPPPksie8kll9xxxx1DAfgLL7xA6rlly5bseuONNwqrP9ZbzgFrXf/LjUBeIzlXdiG7e27iQiPY6puE2UHOrckkFhw6YMAAV2WlxOabb75gwQIr+frnH+suYCgu7LySIWefffaZZ57pJ8fjjz8+bty4Ll26eFsu4MP+++8/Y8YMK/ng5x83jzvvvPOee+4JkZRbmZDF9qWff6aPiHDEEUfwP4utWc2cOROBJRm2Gfr/3Xff+SfjEPhxQ5ozZ8633347b948V7YS9r7//vtQs5UvXLiQjPB99903YsQIbgAUclOcPHkywscff9yvXz83x4R7548//ti3b18KC64/1ltvRUK5EdA3CcuNcD3Xf9RRR8HORHlQBgTByoeDDjqIDr/88ss33nhj9p6zeo+4FXYmUIX0iftuvfXW1q1b+yIHr+qrr77ac889YWcC59tvvx22YkLvkEMOQeHBBx88/fTTXTMqZLRlfHDLLbeYOQJx+tChQzPamhU3CULa5s2bR32gZIsttiDkt10Iu+yyS58+fWI1KYRn+fXv358hAvdCSzERnhNfmwn3S0t6ECAHK2FdHexMCantYHlIzll/Xt6GKtemEEhHQN8kTMenqL2Ee2QYqOLQQw/daaedEMhvwLD/+te/vvnmmxBfpLdkxEpI+OSTT7Zt2xZl8hVQMOwQMiTbMHv2bIbtROiM/dmL2nXXXQchkh656qqrCMNJ1IasbDOj7QorrEAwayaDBg1isR3yySefnL1du0vF+kAhHSRtYnsRWFeepGnlMKynSgiHyTIRDvsAgmEKCQfyS9zVOCIetr/33nuYs7dnz57F1J+vt+ltaW++CKTPTIRqI8RhyEUhxz3fuYqK2DYLfl/L5Hz/GwT5WqW3G4K1RjfhAks0X3/99bfddtusWbPoCBlVMqcQ9GWXXZaxXwzbbc3ZwQcfbOxshgSMrD0IVXLvvfdSsvfeexs7+94TTzwRGQ719LHvcqFStu5AYQI3CTfkqRbLbMyfP98LLUYmrCbZY4UwOGMLZOLrnM/a5KzfG5LQ+AjkyzzmYb5W6XyVpbbC2tUqjvKeUeQWLr74Yh6B40k/RvRMXjESJ5oOsWe6E+RGbDC+/vrrhzQ33XRTMgxeSD7OeIeZsR122MHLgwLzeMFNlytl6w4ULJBlDtra+MAQs3IGLtwsCZ8ZtRjb+vAlPb9h5jnrD7YuWQiUEAERdAnBjKmKpRQdO3Y877zzCNlIRhMI8zv11FN33nlnwmpfaRBjGShySo1OCYZW9ZFXNbsPf/4F6lgkMk+5aCMgVco24EIhIiOSUC6bcCZUEekdktSkm0iUM45hFGIEDZ7t27cPKYc2s9QfMtGmECgVAiLoUiEZXw+zYaeccspxxx3Higvm6Mg+s+QAVeYMyXKwGW+2eCnrxqyAROp6660X3GkJNS9xumFZxVZbbeXlQWHVVVcNbrpcKVt3oKwCkbLNB0DNBNSWQ19xxRXL2qgqFwJFIiCCLhLANHOSnmQnYGQWObB61xbwsrSLKTJWp7EYw6K5tCp+3sfiMPKk1AbF7L777kF9AuXgJvNdzH7A2rAtQXpwF4ns8ePHw038guUuV8rWHSirwGCFHzOHpKFtqaKF1WVtVJULgSIR0MuSigQwzfyBBx5gUcHWW289evRo1yP7bA+M2IpdL08RyJ+uscYaKLBszmYaTZlkBeuag4aM7k3zhhtuIEIP7rrooouYVGSkz2roYLnLednCbmZI6gYhL1tvMUXwNEVwri9FP8suSzcTO7PuEH2W7pG+yGKYU6cc3uZsVApNAQERdBmPMtRsi7p4kpDH/yxwYwnHFVdcQasEudmH2Oeeey4mDM8POOAAW0DGf55IjK7SN024m6lIS16T+x4zZgxL6KiBrGsoBg/2P7utL4NjTRvr1bhtZLelRTI8rBhhDBFsPSizTNA2gYvEjt0GggoFyNycbMGGkX6W6cGMrZTD24xNS62+ERBBl/H4skKT6UEaYFjNk9msRya9MHDgQJuhYpmdR145nRg2bNh+++2HGlE5y8iopFevXqx0jsaAm2222eGHH44mCzmI38k4Q8qs6ICVUCaWdzaJNprdlrS4cTQLq2E6FhFmt6Vd7h88um3PE0bdoATo7IlH2PnRRx+1NcuxmtkLuVkuv/zypk/9OZc/Z6+5HN5mb12adYyACLqUB9cCtOC6WqYHeUjEHoRjCYGFtIRy//znP4mF82qbZ/YuvPBCViCwgIy4kgwJz3Nb3BpskTqvvvpqkiEwODoM521CjEfymKgMzhxGvc1uC9nRCjcA64IRaMZ2MbE7U8htq8r+cxdhSSKPStomEXrU22iJKSeVs9efwvfHC82E/1GraElS/VFvvVoJQqAYBJZg3M3PRsoEAtljOmu1TLYjRo3zXo0ZuaXLNSowvwc1EwwiQGpQZ744e8epgWlG8hs8kch8oJfHCqhB0ISiNEr8HquTVJjRlmXXuNS9e3ejM6sto21S08FyzkzOMXoarD+okJcMGjxtjwnZoeAjP3lVkqJcWm9TGmriuwrmhzLxVc7DUXC7WsWRE9sSKEAuDK59fO01ssaD5IBvJglMKrotVQUfbEsysXLWLfAkS7pO0t6MtlBztIaMtlHDaAlBQ7SwsBJuJLbSjkfVy8HOeFVCbwvro6zqDAERdCUPKJkBHlrJ6QHBshN0TmUpRBGYNGkSsS1LEm2ycfXVV4/qqEQIVCECIuhKHhQywox9KulB02ib18DyUlDrK/ml6AOZTQMG9bL2EBBB194xk8f5IsD78Jhm5IlwVtHwKcV8zaUvBCqFgAi6Usir3cZDgJey8jAnE7P8Gq9VtSQEikZABF00hKqgFhAoySKQWuiofKwrBBpYKsvsNj+6xSNn+Z7HlbKtq4OgzggBIVAoAjBYdtNK8VXB7TbYoxM2VVXYALBSttmPijSFgBCoVwSMwbL3rlJ8VVi7P0XQ2fsmTSEgBIRAVSFQ3wzWwDOvUHu1PUnIJ5ir6iSQM0JACFQnAv74fhb3qpLr0hzXuzjS0NE+ISAEhEAFERBBVxB8NS0EhIAQSENABJ2GjvYJASEgBCqIQJUSdEOzRQ8ULPjxpyWA+gkBISAEQCBICEGiqEtwqpSgW7Vc9ATN3PlaZ1KX5546JQQKQSBICEGiKKSuqrepUoJuvdQigv5mzg9VD6McFAJCoJEQCBJCkCgaqfnGbaZKCbp7x0Wvov90+v8aFxO1JgSEQPUiECSEIFFUr8dFeFalBN2z0yKCfv/z2UV0UKZCQAjUFQJBQujVeRFR1FUnf+1MlRL0wN7tfvXwNxP/O9NlCUJACDRxBIKEsFKvRURRl7BUKUEP7tPR4Z7y2azps+b5pgQhIASaLAJQAYTg3Q8ShRfWk1ClBN1+mRYDerQ1oPniyL8mflFPoKsvQkAIFIYAVOCfIIIiIIrC6qkVqyolaODbfPCir5E+/OrU4OLHWgFXfgoBIVBCBCABqMArHDo4vw/Vu2ENCdVL0ENW69ay4Rf3Zsye/8Qb02oIVrkqBIRAyRGABKACq7ZFQ7Mhq4qgS45x5grbtGo+bO1erj76Xx/M+l4Loh0PCUKgaSHA5Q8JeJ+3HNwFivDNehWqN4IG8V02XL5l8188nD13wTVj363Xw6B+CQEhkI4Alz8kYDqMrYf/X490/frYW9UE3bFNy72H9HWgx7/95SMTPvVNCUJACDQRBLjwufy9s7tu0KtD6zqfHrTONvAGa3624YIDkVNwExdymriCm7jgu1zYYd3ez0z64qMv51jJtWPf7dJuqf8b0NkVJAgBIVDfCEyYMp0L3/vYt2vrbdf6KfucwhuuHBLcxIWQQsqmm7iQohza5SYuhBSSNpeYPfun5/TMrDq/Sfj5N3NPHT1p3oJf3mnH5MApuw8WRycdUZULgXpCAHY+/66JPyz85fJfqnmz8/ZbrVv7pehjdfJVEviFcWxVpzisq907tDpy2/5L/Pr+UQ7V2Xe8qVxH0nmgciFQNwhwmXOxOztDAlABhFA3HczZkSX4HjjU/v3336O69NJL53tTajTbR1//7KqHJwf7s8mgrodvu1LbpZtEKirYcclCoO4RYM0Gs4LBvDNdPnL7gcPW6tlonBMCuSLtNgQZGTm4GfIvfbPcttuu3YsY+upHJv+/Xx8k4uD9+8OZ+w3tt9WaPZovWQNDgXQAtVcICAEQ4GkU1juzos7XbFDIBzyO2G5gcN0theXmnKTD0ZjtLnrtcpI31VPO4Wm3TItL73977g8/mlccQij7n+M/2n6d3jxW1LntT5kp/YSAEKhFBHjPBk9y86ygP41ivWjVYsnjdhq0wcAutdipIn1egrid3//+99M7l5dZZpl8I+jGt5024/sL7p7o6zq8/8TXA3q25eUp/bu36dV5GVbh8LUFRdaOjwQhUFUIECnzbRTevs/7nXmDKO+o4y1Ivw6PF3m6QtfWJ+82uEfg/cONzznmTUXaraUI2mDiUF3y+3UfeOmT25/5cP6vc7vs4tC+99ks/hYdW0lCQAjULAI8pMZjEDuut1xDE05g1h5Bc75xwHjIcJ1+bR+eMG3cxK98krdmT0U5LgSEwCIEeFCQfCbXOI+qLSptklJNErQdqY6tW+y/WZ99hq7IbOFTEz+fMk2xc5M8hdXpOkKAN4jyGktelNYU3rOR5bjVMEFb99ou3Xz4ur35+/Z/P5DGmjz1u89mfP/5zO/nzFtIhmuhr/nIAoZ0hIAQaCwEyFsQKbdbpiXfFeQTd3xEiQmkun+/c77o1jxBe4c5tJsO6saflyQJP/7444wZM9jbqVOnJZdcMkkttrwiEwV4Uql2Fy5cOHXqVP4PGDAgFpCUwkr5XKl2dV6lnAyhXcWcV6Gq6ntTy4fr+/iqd0JACNQwAiLoGj54cl0ICIH6RkAEXd/HV70TAkKghhEQQdfwwZPrQkAI1DcCIuj6Pr7qnRAQAjWMgAi6hg+eXBcCQqC+ERBB1/fxVe+EgBCoYQRE0DV88OS6EBAC9Y1AtX+TMAl9HkawXS4kaUbL3QTB5ahabInruxCrFlvoJi7EqsUWuokLsWqxhW7iQqxabKGbuBCrFlvoJi7EqsUWuokLsWqxhW7iQqxabKGbuBCrFlvoJggux2pGC13fhahOUombuJCkGS13ExeiOkklbuJCkma03E1ciOoklbiJC0ma0XI3cSGqk1TiJi4kaUbL3cSFqE5sSQ18kzDWbwqtq/m+HxVDPiIzd+5chFatWjVrlvcYouB2i/G5Urb2dBz/u3fvjg/5/poUVjqvsp8eOq8yYpU3PWWsV2pCQAgIASFQJAINvKSfMKf6v0kY6mcxPnP3njdvHhXyDcYC3sXRpLDinQkzZ84EK86T0CHIuVnMMapFW51XOU8JV9B55VCkCzXzTcKkbhTwfTDPihRg6240EdsgVt73fIUmiJXjJqxiEXB8XIhVSy9sCueVUhzp54D2CgEhIAQqhoAIumLQq2EhIASEQDoCIuh0fLRXCAgBIVAxBETQFYNeDQsBISAE0hEQQafjo71CQAgIgYohIIKuGPRqWAgIASGQjoAIOh0f7RUCQkAIVAwBEXTFoFfDQkAICIF0BETQ6fhorxAQAkKgYgiIoCsGvRoWAkJACKQjIIJOx0d7hYAQEAIVQ0AEXTHo1bAQEAJCIB0BEXQ6PtorBISAEKgYAiLoikGvhoWAEBAC6QiIoNPx0V4hIASEQMUQ0DcJf/m2YcYjwIvkTdOFjIaouYkLsk1CwCFyIUkzWu4mLkR1kkrcxIUkzWi5myC4HFWLLXF9F2LVYgvdxIVYtdhCN3EhVi220E1ciFWLLXQTF2LVYgvdxIVYtdhCN3EhVi220E1ciFWLLXQTF2LVooX6JmHeYwiDuLAXjdecrb4dF71mkkr0TcIkZKLlOq+imMSW5E1PsbWoUAgIASEgBEqOgL5JuGRemBIC65uEGRFraljpm4QZTwzU9E3CjFjpm4RLZEQqpNYUvodGlz2T40IIhyybTRCrguFqglhlOYVidZoCVkpxxB56FQoBISAEKo+ACLryx0AeCAEhIARiERBBx8KiQiEgBIRA5REQQVf+GMgDISAEhEAsAiLoWFhUKASEgBCoPAIi6MofA3kgBISAEIhFQAQdC4sKhYAQEAKVR0AEXfljIA+EgBAQArEIiKBjYVGhEBACQqDyCIigK38M5IEQEAJCIBYBEXQsLCoUAkJACFQeARF05Y+BPBACQkAIxCIggo6FRYVCQAgIgcojIIKu/DGQB0JACAiBWARE0LGwqFAICAEhUHkE9E1CfZMw7Sy0b3Sh4UKa9uL73MSFxfenbbmJC2nai+9zExcW35+25SYupGkvvs9NEFxeXCVxy/VdSFSN7HATFyIqiQVu4kKiamSHm7gQUUkscBMXElUjO9zEhYhKYoGbuJCoGtnhJi5EVBIL3MSFRNXFd+ibhHmPIQziwt7IXnO2+nbc4tdL2pa+SZiGzuL7dF4tjkfiVt70lFiTdggBISAEhEBJEdA3CfVNwrQTSt+OS0Nn8X36JuHieKRt6bxKQyewT98k1DcJA6dDRPRMjgsRldwFTeHbcaDgEDWR/vqBL6C/Qay8nnyFAtr1JmrFVikOP2QShIAQEALVhYAIurqOh7wRAkJACDgCImiHQoIQEAJCoLoQEEFX1/GQN0JACAgBR0AE7VBIEAJCQAhUFwIi6Oo6HvJGCAgBIeAIiKAdCglCQAgIgepCQARdXcdD3ggBISAEHAERtEMhQQgIASFQXQiIoKvreMgbISAEhIAj8P8BFvSc0IjegIoAAAAASUVORK5CYII=;" vertex="1" parent="1">
          <mxGeometry x="530" y="460" width="243.32" height="440" as="geometry" />
        </mxCell>
      </root>
    </mxGraphModel>
  </diagram>
</mxfile>
